<svg width="33" height="33" viewBox="0 0 33 33" fill="none" xmlns="http://www.w3.org/2000/svg">
<path d="M23.3748 12.6088C23.1172 12.3527 22.7687 12.2089 22.4055 12.2089C22.0422 12.2089 21.6937 12.3527 21.4361 12.6088L16.4998 17.4763L11.6323 12.6088C11.3747 12.3527 11.0262 12.2089 10.663 12.2089C10.2997 12.2089 9.95121 12.3527 9.69359 12.6088C9.56471 12.7366 9.46242 12.8887 9.39261 13.0562C9.3228 13.2238 9.28687 13.4035 9.28687 13.585C9.28687 13.7665 9.3228 13.9462 9.39261 14.1138C9.46242 14.2814 9.56471 14.4334 9.69359 14.5613L15.5236 20.3913C15.6514 20.5201 15.8035 20.6224 15.971 20.6922C16.1386 20.762 16.3183 20.798 16.4998 20.798C16.6814 20.798 16.8611 20.762 17.0286 20.6922C17.1962 20.6224 17.3483 20.5201 17.4761 20.3913L23.3748 14.5613C23.5037 14.4334 23.606 14.2814 23.6758 14.1138C23.7456 13.9462 23.7816 13.7665 23.7816 13.585C23.7816 13.4035 23.7456 13.2238 23.6758 13.0562C23.606 12.8887 23.5037 12.7366 23.3748 12.6088Z" fill="#4DADBD" fill-opacity="0.6"/>
</svg>
