<svg width="72" height="72" viewBox="0 0 72 72" fill="none" xmlns="http://www.w3.org/2000/svg">
<path d="M11.428 10.9015H64.303V55.9015H11.428V10.9015Z" fill="url(#paint0_linear)"/>
<path d="M64.3029 10.9015H69.9279V55.9015H64.3029V10.9015Z" fill="url(#paint1_linear)"/>
<path d="M55.3029 48.0265H2.42788L11.4279 10.9015H64.3029L55.3029 48.0265Z" fill="url(#paint2_linear)"/>
<path d="M64.3029 10.9015H11.4279L8.70063 22.1515H61.5756L64.3029 10.9015Z" fill="url(#paint3_linear)"/>
<path d="M56.3906 69.4015C63.8465 69.4015 69.8906 63.3573 69.8906 55.9015C69.8906 48.4456 63.8465 42.4015 56.3906 42.4015C48.9348 42.4015 42.8906 48.4456 42.8906 55.9015C42.8906 63.3573 48.9348 69.4015 56.3906 69.4015Z" fill="url(#paint4_linear)"/>
<path d="M71.6154 10.9013C71.6154 10.4538 71.4376 10.0246 71.1212 9.7081C70.8047 9.39163 70.3755 9.21384 69.9279 9.21384H62.4166C62.037 7.61243 61.1282 6.18594 59.8372 5.16518C58.5463 4.14442 56.9486 3.58911 55.3028 3.58911C53.6571 3.58911 52.0594 4.14442 50.7685 5.16518C49.4775 6.18594 48.5687 7.61243 48.1891 9.21384H45.5416C45.162 7.61243 44.2532 6.18594 42.9622 5.16518C41.6713 4.14442 40.0736 3.58911 38.4278 3.58911C36.7821 3.58911 35.1844 4.14442 33.8935 5.16518C32.6025 6.18594 31.6937 7.61243 31.3141 9.21384H28.6666C28.287 7.61243 27.3782 6.18594 26.0872 5.16518C24.7963 4.14442 23.1986 3.58911 21.5528 3.58911C19.9071 3.58911 18.3094 4.14442 17.0185 5.16518C15.7275 6.18594 14.8187 7.61243 14.4391 9.21384H11.4272C11.0495 9.21603 10.6832 9.344 10.3863 9.57755C10.0893 9.81109 9.87866 10.1369 9.78753 10.5035L0.787528 47.6285C0.727336 47.8767 0.724274 48.1354 0.778573 48.385C0.832872 48.6345 0.943117 48.8685 1.101 49.0693C1.25887 49.2701 1.46027 49.4324 1.69 49.544C1.91973 49.6556 2.1718 49.7137 2.42722 49.7137H9.73972V55.9012C9.73972 56.3488 9.91751 56.778 10.234 57.0944C10.5504 57.4109 10.9797 57.5887 11.4272 57.5887H41.2974C41.7249 61.4148 43.5896 64.9357 46.5142 67.4393C49.4388 69.943 53.205 71.2425 57.0513 71.0751C60.8975 70.9077 64.5366 69.2859 67.2327 66.5376C69.9287 63.7894 71.4804 60.1198 71.5739 56.271C71.5735 56.0934 71.6154 10.9013 71.6154 10.9013ZM68.2404 46.4134C67.5717 45.5796 66.8176 44.818 65.9904 44.1412V33.4012C65.9904 32.9536 65.8126 32.5244 65.4962 32.208C65.1797 31.8915 64.7505 31.7137 64.3029 31.7137C63.8554 31.7137 63.4261 31.8915 63.1097 32.208C62.7932 32.5244 62.6154 32.9536 62.6154 33.4012V42.0487C61.3893 41.4956 60.0946 41.1093 58.7659 40.9L65.6297 12.5888H68.24L68.2404 46.4134ZM12.7547 12.5888H14.4387C14.8203 14.1892 15.7296 15.6145 17.0202 16.6349C18.3107 17.6554 19.9073 18.2116 21.5525 18.2138C22 18.2138 22.4293 18.0361 22.7457 17.7196C23.0622 17.4031 23.24 16.9739 23.24 16.5263C23.24 16.0788 23.0622 15.6496 22.7457 15.3331C22.4293 15.0166 22 14.8388 21.5525 14.8388C20.8076 14.8382 20.0782 14.6265 19.4487 14.2282C18.8192 13.83 18.3154 13.2616 17.9957 12.5888H31.3137C31.6953 14.1892 32.6046 15.6145 33.8952 16.6349C35.1857 17.6554 36.7823 18.2116 38.4275 18.2138C38.875 18.2138 39.3043 18.0361 39.6207 17.7196C39.9372 17.4031 40.115 16.9739 40.115 16.5263C40.115 16.0788 39.9372 15.6496 39.6207 15.3331C39.3043 15.0166 38.875 14.8388 38.4275 14.8388C37.6826 14.8382 36.9532 14.6265 36.3237 14.2282C35.6942 13.83 35.1904 13.2616 34.8707 12.5888H48.1887C48.5703 14.1892 49.4796 15.6145 50.7702 16.6349C52.0607 17.6554 53.6573 18.2116 55.3025 18.2138C55.75 18.2138 56.1793 18.0361 56.4957 17.7196C56.8122 17.4031 56.99 16.9739 56.99 16.5263C56.99 16.0788 56.8122 15.6496 56.4957 15.3331C56.1793 15.0166 55.75 14.8388 55.3025 14.8388C54.5576 14.8382 53.8282 14.6265 53.1987 14.2282C52.5692 13.83 52.0654 13.2616 51.7457 12.5888H62.1563L60.247 20.4638H10.8462L12.7547 12.5888ZM55.3025 6.96384C56.0473 6.96458 56.7767 7.17631 57.4062 7.57452C58.0357 7.97273 58.5394 8.54111 58.8592 9.21384H51.7462C52.0659 8.54108 52.5697 7.97267 53.1992 7.57445C53.8286 7.17624 54.5581 6.96453 55.3029 6.96384H55.3025ZM38.4275 6.96384C39.1723 6.96458 39.9017 7.17631 40.5312 7.57452C41.1607 7.97273 41.6644 8.54111 41.9842 9.21384H34.8712C35.1909 8.54108 35.6947 7.97267 36.3242 7.57445C36.9536 7.17624 37.6831 6.96453 38.4279 6.96384H38.4275ZM21.5525 6.96384C22.2973 6.96458 23.0267 7.17631 23.6562 7.57452C24.2857 7.97273 24.7894 8.54111 25.1092 9.21384H17.9962C18.3159 8.54108 18.8197 7.97267 19.4492 7.57445C20.0786 7.17624 20.8081 6.96453 21.5529 6.96384H21.5525ZM10.0267 23.8388H59.4283L55.3285 40.7517C53.2529 40.8975 51.2295 41.4688 49.384 42.43C47.5386 43.3911 45.9106 44.7216 44.6012 46.3387H4.57273L10.0267 23.8388ZM13.1143 49.7138H42.5219C41.8826 51.1412 41.4695 52.6594 41.2974 54.2138H13.1147L13.1143 49.7138ZM58.0782 67.5914V66.0263C58.0782 65.5788 57.9004 65.1496 57.5839 64.8331C57.2674 64.5166 56.8382 64.3388 56.3907 64.3388C55.9431 64.3388 55.5139 64.5166 55.1974 64.8331C54.8809 65.1496 54.7032 65.5788 54.7032 66.0263V67.5914C52.1812 67.2232 49.8455 66.0509 48.0433 64.2487C46.2411 62.4465 45.0688 60.1108 44.7006 57.5888H46.2657C46.7132 57.5888 47.1424 57.4111 47.4589 57.0946C47.7754 56.7781 47.9532 56.3489 47.9532 55.9013C47.9532 55.4538 47.7754 55.0246 47.4589 54.7081C47.1424 54.3916 46.7132 54.2138 46.2657 54.2138H44.7006C45.0688 51.6919 46.2412 49.3562 48.0433 47.5541C49.8455 45.7519 52.1812 44.5796 54.7032 44.2115V45.7763C54.7032 46.2239 54.8809 46.6531 55.1974 46.9696C55.5139 47.2861 55.9431 47.4638 56.3907 47.4638C56.8382 47.4638 57.2674 47.2861 57.5839 46.9696C57.9004 46.6531 58.0782 46.2239 58.0782 45.7763V44.2115C60.6001 44.5796 62.9358 45.7519 64.738 47.5541C66.5401 49.3562 67.7125 51.6919 68.0807 54.2138H66.5157C66.0681 54.2138 65.6389 54.3916 65.3224 54.7081C65.0059 55.0246 64.8282 55.4538 64.8282 55.9013C64.8282 56.3489 65.0059 56.7781 65.3224 57.0946C65.6389 57.4111 66.0681 57.5888 66.5157 57.5888H68.0807C67.7125 60.1108 66.5402 62.4465 64.738 64.2487C62.9358 66.0509 60.6001 67.2232 58.0782 67.5914Z" fill="black"/>
<path d="M36.7405 30.0264H41.2405C41.688 30.0264 42.1172 29.8486 42.4337 29.5321C42.7502 29.2156 42.928 28.7864 42.928 28.3389C42.928 27.8913 42.7502 27.4621 42.4337 27.1456C42.1172 26.8292 41.688 26.6514 41.2405 26.6514H36.7405C36.2929 26.6514 35.8637 26.8292 35.5472 27.1456C35.2308 27.4621 35.053 27.8913 35.053 28.3389C35.053 28.7864 35.2308 29.2156 35.5472 29.5321C35.8637 29.8486 36.2929 30.0264 36.7405 30.0264Z" fill="black"/>
<path d="M25.4905 30.0264H29.9905C30.438 30.0264 30.8672 29.8486 31.1837 29.5321C31.5002 29.2156 31.678 28.7864 31.678 28.3389C31.678 27.8913 31.5002 27.4621 31.1837 27.1456C30.8672 26.8292 30.438 26.6514 29.9905 26.6514H25.4905C25.0429 26.6514 24.6137 26.8292 24.2972 27.1456C23.9807 27.4621 23.803 27.8913 23.803 28.3389C23.803 28.7864 23.9807 29.2156 24.2972 29.5321C24.6137 29.8486 25.0429 30.0264 25.4905 30.0264Z" fill="black"/>
<path d="M14.2405 30.0264H18.7405C19.188 30.0264 19.6172 29.8486 19.9337 29.5321C20.2502 29.2156 20.428 28.7864 20.428 28.3389C20.428 27.8913 20.2502 27.4621 19.9337 27.1456C19.6172 26.8292 19.188 26.6514 18.7405 26.6514H14.2405C13.7929 26.6514 13.3637 26.8292 13.0472 27.1456C12.7307 27.4621 12.553 27.8913 12.553 28.3389C12.553 28.7864 12.7307 29.2156 13.0472 29.5321C13.3637 29.8486 13.7929 30.0264 14.2405 30.0264Z" fill="black"/>
<path d="M47.9904 30.0264H52.4904C52.938 30.0264 53.3672 29.8486 53.6836 29.5321C54.0001 29.2156 54.1779 28.7864 54.1779 28.3389C54.1779 27.8913 54.0001 27.4621 53.6836 27.1456C53.3672 26.8292 52.938 26.6514 52.4904 26.6514H47.9904C47.5429 26.6514 47.1136 26.8292 46.7972 27.1456C46.4807 27.4621 46.3029 27.8913 46.3029 28.3389C46.3029 28.7864 46.4807 29.2156 46.7972 29.5321C47.1136 29.8486 47.5429 30.0264 47.9904 30.0264Z" fill="black"/>
<path d="M34.4905 36.7764H38.9905C39.438 36.7764 39.8672 36.5986 40.1837 36.2821C40.5002 35.9656 40.678 35.5364 40.678 35.0889C40.678 34.6413 40.5002 34.2121 40.1837 33.8956C39.8672 33.5792 39.438 33.4014 38.9905 33.4014H34.4905C34.0429 33.4014 33.6137 33.5792 33.2972 33.8956C32.9808 34.2121 32.803 34.6413 32.803 35.0889C32.803 35.5364 32.9808 35.9656 33.2972 36.2821C33.6137 36.5986 34.0429 36.7764 34.4905 36.7764Z" fill="black"/>
<path d="M23.2405 36.7764H27.7405C28.188 36.7764 28.6172 36.5986 28.9337 36.2821C29.2502 35.9656 29.428 35.5364 29.428 35.0889C29.428 34.6413 29.2502 34.2121 28.9337 33.8956C28.6172 33.5792 28.188 33.4014 27.7405 33.4014H23.2405C22.7929 33.4014 22.3637 33.5792 22.0472 33.8956C21.7307 34.2121 21.553 34.6413 21.553 35.0889C21.553 35.5364 21.7307 35.9656 22.0472 36.2821C22.3637 36.5986 22.7929 36.7764 23.2405 36.7764Z" fill="black"/>
<path d="M11.9905 36.7764H16.4905C16.938 36.7764 17.3672 36.5986 17.6837 36.2821C18.0002 35.9656 18.178 35.5364 18.178 35.0889C18.178 34.6413 18.0002 34.2121 17.6837 33.8956C17.3672 33.5792 16.938 33.4014 16.4905 33.4014H11.9905C11.5429 33.4014 11.1137 33.5792 10.7972 33.8956C10.4807 34.2121 10.303 34.6413 10.303 35.0889C10.303 35.5364 10.4807 35.9656 10.7972 36.2821C11.1137 36.5986 11.5429 36.7764 11.9905 36.7764Z" fill="black"/>
<path d="M45.7404 36.7764H50.2404C50.688 36.7764 51.1172 36.5986 51.4336 36.2821C51.7501 35.9656 51.9279 35.5364 51.9279 35.0889C51.9279 34.6413 51.7501 34.2121 51.4336 33.8956C51.1172 33.5792 50.688 33.4014 50.2404 33.4014H45.7404C45.2929 33.4014 44.8636 33.5792 44.5472 33.8956C44.2307 34.2121 44.0529 34.6413 44.0529 35.0889C44.0529 35.5364 44.2307 35.9656 44.5472 36.2821C44.8636 36.5986 45.2929 36.7764 45.7404 36.7764Z" fill="black"/>
<path d="M33.3655 43.5264H37.8655C38.313 43.5264 38.7422 43.3486 39.0587 43.0321C39.3752 42.7156 39.553 42.2864 39.553 41.8389C39.553 41.3913 39.3752 40.9621 39.0587 40.6456C38.7422 40.3292 38.313 40.1514 37.8655 40.1514H33.3655C32.9179 40.1514 32.4887 40.3292 32.1722 40.6456C31.8558 40.9621 31.678 41.3913 31.678 41.8389C31.678 42.2864 31.8558 42.7156 32.1722 43.0321C32.4887 43.3486 32.9179 43.5264 33.3655 43.5264Z" fill="black"/>
<path d="M22.1155 43.5264H26.6155C27.063 43.5264 27.4922 43.3486 27.8087 43.0321C28.1252 42.7156 28.303 42.2864 28.303 41.8389C28.303 41.3913 28.1252 40.9621 27.8087 40.6456C27.4922 40.3292 27.063 40.1514 26.6155 40.1514H22.1155C21.6679 40.1514 21.2387 40.3292 20.9222 40.6456C20.6057 40.9621 20.428 41.3913 20.428 41.8389C20.428 42.2864 20.6057 42.7156 20.9222 43.0321C21.2387 43.3486 21.6679 43.5264 22.1155 43.5264Z" fill="black"/>
<path d="M17.053 41.8389C17.053 41.3913 16.8752 40.9621 16.5587 40.6456C16.2422 40.3292 15.813 40.1514 15.3655 40.1514H10.8655C10.4179 40.1514 9.98868 40.3292 9.67221 40.6456C9.35575 40.9621 9.17796 41.3913 9.17796 41.8389C9.17796 42.2864 9.35575 42.7156 9.67221 43.0321C9.98868 43.3486 10.4179 43.5264 10.8655 43.5264H15.3655C15.813 43.5264 16.2422 43.3486 16.5587 43.0321C16.8752 42.7156 17.053 42.2864 17.053 41.8389Z" fill="black"/>
<path d="M59.6975 50.2081L56.0575 53.8481L52.6452 52.142C52.2449 51.9419 51.7815 51.909 51.3569 52.0505C50.9323 52.1921 50.5814 52.4965 50.3813 52.8968C50.1811 53.2971 50.1482 53.7606 50.2898 54.1851C50.4313 54.6097 50.7357 54.9607 51.1361 55.1608L55.6361 57.4108C55.9528 57.5692 56.3114 57.6239 56.661 57.5671C57.0106 57.5104 57.3334 57.3451 57.5839 57.0947L62.0839 52.5947C62.3989 52.2779 62.5755 51.8492 62.5749 51.4024C62.5743 50.9557 62.3966 50.5274 62.0807 50.2115C61.7648 49.8955 61.3365 49.7178 60.8898 49.7172C60.443 49.7165 60.0142 49.8931 59.6975 50.2081Z" fill="black"/>
<defs>
<linearGradient id="paint0_linear" x1="11.428" y1="33.4015" x2="64.303" y2="33.4015" gradientUnits="userSpaceOnUse">
<stop offset="0.015" stop-color="#CACAD5"/>
<stop offset="1" stop-color="#DCDCE3"/>
</linearGradient>
<linearGradient id="paint1_linear" x1="64.3029" y1="33.4015" x2="69.9279" y2="33.4015" gradientUnits="userSpaceOnUse">
<stop offset="0.015" stop-color="#A6A6B9"/>
<stop offset="1" stop-color="#CACAD5"/>
</linearGradient>
<linearGradient id="paint2_linear" x1="2.42788" y1="29.464" x2="64.3029" y2="29.464" gradientUnits="userSpaceOnUse">
<stop offset="0.011" stop-color="#DCDCE3"/>
<stop offset="1" stop-color="#EDEDF1"/>
</linearGradient>
<linearGradient id="paint3_linear" x1="2.42791" y1="16.5265" x2="64.3029" y2="16.5265" gradientUnits="userSpaceOnUse">
<stop offset="0.011" stop-color="#80D1CB"/>
<stop offset="1" stop-color="#BFE8E5"/>
</linearGradient>
<linearGradient id="paint4_linear" x1="46.8447" y1="65.4474" x2="65.9365" y2="46.3554" gradientUnits="userSpaceOnUse">
<stop offset="0.011" stop-color="#F8C73F"/>
<stop offset="1" stop-color="#FADA7F"/>
</linearGradient>
</defs>
</svg>
