<svg width="82" height="82" viewBox="0 0 82 82" fill="none" xmlns="http://www.w3.org/2000/svg">
<g clip-path="url(#clip0)">
<path d="M34.4277 8.11634C32.4515 7.26895 30.325 6.83301 28.1752 6.83301C19.4081 6.83301 12.3 13.9396 12.3 22.7082C12.3 30.1961 14.4046 37.5338 18.3735 43.8832L19.1334 45.0996L22.6717 71.043C22.9943 73.4047 25.0115 75.1662 27.3949 75.1662C29.725 75.1662 31.7135 73.4811 32.0976 71.1823L36.2262 46.4102C36.6157 44.0759 38.6343 42.3662 41 42.3662C43.3657 42.3662 45.3843 44.0759 45.7738 46.4102L49.9025 71.1823C50.2865 73.4811 52.275 75.1662 54.6051 75.1662C56.9886 75.1662 59.0057 73.4047 59.3283 71.043L62.8666 45.0996L63.6266 43.8832C67.5954 37.5337 69.7 30.1961 69.7 22.7082C69.7 13.9396 62.592 6.83301 53.8248 6.83301C51.6751 6.83301 49.5485 7.27039 47.5723 8.11634C43.3753 9.91489 38.6247 9.91489 34.4277 8.11634Z" fill="#E6E6E6"/>
<path d="M61.5 8.8147C52.7902 29.5416 33.3372 41.5381 19.4928 47.74L22.6717 71.0431C23.0202 73.652 25.4173 75.4861 28.0264 75.1376C30.1078 74.8602 31.7628 73.2531 32.1017 71.1797L36.2304 46.4075C36.6691 43.7712 39.1619 41.9891 41.7982 42.4278C43.8386 42.7667 45.4391 44.3671 45.7779 46.4075L49.9066 71.1797C50.3302 73.7777 52.7793 75.5407 55.3787 75.1184C57.4519 74.7808 59.0591 73.1258 59.3366 71.0431L62.8668 45.0997L63.6267 43.8833C67.5956 37.5338 69.7002 30.1962 69.7002 22.7083C69.7 16.9285 66.5593 11.6067 61.5 8.8147Z" fill="#DEDEDE"/>
<path d="M57.0045 70.6642L65.2041 62.4646L63.2713 60.5318L55.0717 68.7314L57.0045 70.6642Z" fill="#A2DAEB"/>
<path d="M80.6334 40.9998L61.5 60.133L65.6 64.233L80.6334 49.1998V40.9998Z" fill="#4398D1"/>
<path d="M49.2 80.6331C54.4835 80.6331 58.7666 77.5737 58.7666 73.7997C58.7666 70.0257 54.4835 66.9663 49.2 66.9663C43.9165 66.9663 39.6334 70.0257 39.6334 73.7997C39.6334 77.5737 43.9165 80.6331 49.2 80.6331Z" fill="#A2DAEB"/>
<path d="M20.5 24.5998H17.7666C17.7666 17.2267 22.96 14.2419 25.6932 13.6938L26.229 16.3725L25.9666 15.0331L26.24 16.371C26.0076 16.4216 20.5 17.6694 20.5 24.5998Z" fill="#F7F7F7"/>
<path d="M31.4334 13.6665H28.7V16.3999H31.4334V13.6665Z" fill="#F7F7F7"/>
<path d="M12.3 26.6933L17.7667 21.2266L12.3 15.7598L6.83323 21.2266L12.3 26.6933Z" fill="#A2DAEB"/>
<path d="M25.61 42.3663C22.5335 42.3635 20.0436 39.8667 20.0463 36.7917C20.0478 35.928 20.2486 35.0766 20.6367 34.303L21.5755 32.4252L14.0725 24.9222L16.0049 22.9897L23.5079 30.4927C24.3403 31.3251 24.5465 32.5961 24.0204 33.6483L23.076 35.5329C22.3776 36.935 22.9475 38.638 24.3484 39.3363C25.0714 39.6971 25.9146 39.7312 26.6649 39.4319L30.9248 37.7195L31.9416 40.2573L27.679 41.9615C27.0218 42.2268 26.3193 42.3648 25.61 42.3663Z" fill="#A2DAEB"/>
<path d="M1.36659 1.36646L13.6666 14.3948L5.46659 22.5948L1.36659 19.1331V1.36646Z" fill="#4398D1"/>
<path d="M4.58511 23.6439C5.12772 24.1018 5.93123 24.0676 6.43284 23.5661L6.83323 23.1616L11.3336 27.6619C11.8681 28.1949 12.7331 28.1949 13.2661 27.6619L15.0332 25.8948L21.57 32.4316L20.6366 34.3039C19.2631 37.0537 20.3783 40.3952 23.128 41.7701C24.5507 42.4807 26.2084 42.5491 27.6844 41.9573L31.947 40.2531L30.9247 37.7207L26.6649 39.4264C25.2094 40.0045 23.5612 39.2925 22.9831 37.837C22.6865 37.0908 22.7207 36.253 23.076 35.5341L24.0148 33.6563C24.5409 32.6039 24.3346 31.3329 23.5023 30.5007L16.9655 23.9639L18.7327 22.1968C19.2657 21.6623 19.2657 20.7973 18.7327 20.2643L14.2323 15.7639L14.6327 15.3635C15.1561 14.8402 15.1684 13.9955 14.6601 13.4585L2.36006 0.430094C1.84212 -0.119242 0.976953 -0.143906 0.427617 0.37548C0.155832 0.632051 0 0.991441 0 1.36733V19.1339C0 19.5371 0.177613 19.9184 0.485113 20.178L4.58511 23.6439ZM15.8342 21.2331L12.3 24.7633L8.76583 21.2291L12.3 17.6949L15.8342 21.2331ZM2.73339 4.80588L11.7616 14.3725L11.3338 14.8003L5.86716 20.2669L5.38878 20.7453L2.73339 18.4999V4.80588Z" fill="black"/>
<path d="M81.1568 39.737C80.6457 39.5251 80.0579 39.6426 79.6672 40.0336L60.5338 59.1668C60.0008 59.6998 60.0008 60.5662 60.5338 61.0993L61.6176 62.183L56.2547 67.5459C54.1336 66.2448 51.6874 65.5697 49.2 65.5998C43.1716 65.5998 38.2666 69.2775 38.2666 73.7998C38.2666 78.3221 43.1716 81.9998 49.2 81.9998C55.2284 81.9998 60.1334 78.3221 60.1334 73.7998C60.106 72.1379 59.4705 70.5445 58.3457 69.3199L63.55 64.1156L64.6338 65.1994C65.1668 65.7324 66.0332 65.7324 66.5662 65.1994L81.5996 50.166C81.8565 49.9091 82 49.5619 82 49.1998V40.9998C82 40.4463 81.6678 39.9487 81.1568 39.737ZM49.2 79.2664C44.7557 79.2664 41 76.7627 41 73.7998C41 70.8369 44.7557 68.3332 49.2 68.3332C53.6443 68.3332 57.4 70.8369 57.4 73.7998C57.4 76.7627 53.6443 79.2664 49.2 79.2664ZM79.2666 48.634L65.6 62.3006L63.4324 60.133L79.2666 44.2989V48.634Z" fill="black"/>
<path d="M41 43.7331C42.7001 43.7276 44.1516 44.9589 44.4262 46.6359L47.1691 63.092L49.8642 62.641L47.1213 46.1849C46.5569 42.8038 43.3589 40.5215 39.9777 41.0859C37.3633 41.5218 35.3146 43.5705 34.8787 46.1849L30.75 70.9571C30.4411 72.8102 28.6877 74.0622 26.8345 73.752C25.3654 73.5074 24.2268 72.3347 24.0246 70.8587L20.4877 44.9153C20.463 44.7212 20.3961 44.5355 20.2923 44.3687L19.5323 43.1523C17.2173 39.4527 15.5499 35.3856 14.5987 31.1257L11.9296 31.7217C12.9491 36.2863 14.7381 40.6433 17.22 44.608L17.8241 45.5757L21.3227 71.2281C21.7792 74.5846 24.8707 76.9352 28.2271 76.4788C30.8906 76.1167 33.0077 74.0612 33.4504 71.4084L37.5791 46.6362C37.8539 44.9603 39.3027 43.7303 41 43.7331Z" fill="black"/>
<path d="M28.1752 8.19984C30.1405 8.19712 32.0838 8.59623 33.8892 9.37251C38.4321 11.3104 43.568 11.3104 48.1108 9.37251C55.4757 6.21695 64.0052 9.6294 67.1607 16.9943C67.9343 18.7998 68.3334 20.7431 68.3334 22.7084C68.3361 29.9407 66.3025 37.0283 62.4677 43.1592L61.7077 44.3756C61.6038 44.5423 61.5369 44.7283 61.5124 44.9222L60.3945 53.1222L63.1019 53.4912L64.1815 45.5824L64.7856 44.6147C68.8938 38.0466 71.071 30.4547 71.0668 22.7084C71.0668 13.1855 63.3465 5.46646 53.8249 5.46646C51.4906 5.46646 49.1795 5.94068 47.0339 6.86046C43.1785 8.50318 38.8216 8.50318 34.9663 6.86046C28.1944 3.95762 20.3279 5.67834 15.3861 11.1435L17.4141 12.9831C20.1651 9.9409 24.0739 8.20385 28.1752 8.19984Z" fill="black"/>
</g>
<defs>
<clipPath id="clip0">
<rect width="82" height="82" fill="white"/>
</clipPath>
</defs>
</svg>
