<svg width="79" height="77" viewBox="0 0 79 77" fill="none" xmlns="http://www.w3.org/2000/svg">
<path d="M24.3276 29.7668V24.7429H19.7607C17.5891 24.7429 15.8288 25.9242 15.8288 27.3814V29.4222C15.8288 30.8794 17.5891 32.0607 19.7607 32.0607H24.3276V29.7668Z" fill="#F4D5BA"/>
<path d="M75.0681 24.7429H70.5012V29.7668V32.0608H75.0681C77.2397 32.0608 79 30.8796 79 29.4224V27.3816C79.0003 25.9243 77.2397 24.7429 75.0681 24.7429Z" fill="#F4D5BA"/>
<path d="M46.7556 53.2745L56.7364 45.9403L52.7739 45.3643C50.8614 45.0636 49.4854 43.3278 49.4854 41.8015V35H40.218H30.951V41.8015C30.951 43.3278 29.575 45.0636 27.6625 45.3643L23.7 45.9403L33.6808 53.2745C37.3555 55.9752 43.0805 55.9752 46.7556 53.2745Z" fill="#FFE7CF"/>
<path d="M44.5273 35.0002V45.848C44.5273 47.4535 45.9583 49.2792 47.9472 49.5955L51.4989 50.4L56.7364 46.5074L52.6155 45.9015C50.6265 45.5852 49.1955 43.7595 49.1955 42.1541V35H44.5273V35.0002Z" fill="#F4D5BA"/>
<path d="M50.3095 45.8934L39.5 52.8988L28.6905 45.8934C28.1109 45.5179 27.36 45.4032 26.6674 45.5843L8.50717 50.3354C6.55335 50.8465 5.10102 52.2722 4.75745 54.0166L0.756544 74.3263C0.481162 75.7239 1.72294 77 3.35811 77H75.6419C77.277 77 78.5188 75.7239 78.2434 74.3263L74.2425 54.0166C73.8989 52.2722 72.4466 50.8466 70.4928 50.3354L52.3326 45.5843C51.6398 45.403 50.8891 45.5177 50.3095 45.8934Z" fill="#24D9DE"/>
<path d="M26.8556 45.1986L23.7734 46.0041L30.5758 54.2501C31.1113 54.8993 32.0952 55.1392 32.9429 54.8272L39.5161 52.4085L28.8515 45.5032C28.2797 45.1329 27.5391 45.0198 26.8556 45.1986Z" fill="#D0D1D2"/>
<path d="M46.0893 54.8273C46.937 55.1392 47.9211 54.8993 48.4564 54.2503L55.2588 46.0043L55.2424 46.0001L52.1766 45.1988C51.4931 45.0202 50.7525 45.1332 50.1807 45.5034L39.5161 52.4085L46.0893 54.8273Z" fill="#D0D1D2"/>
<path d="M39.516 52.4086L34.3469 54.3108L37.3688 57.3539H41.6632L44.685 54.3108L39.516 52.4086Z" fill="#F9644B"/>
<path d="M41.6631 57.3539H39.5159H37.3687L33.4028 76.1649H45.629L41.6631 57.3539Z" fill="#F9644B"/>
<path d="M51.5216 6.08196C48.8698 4.11971 45.1422 4.24711 40.2182 4.20001C35.2942 4.24727 31.5666 4.11971 28.9148 6.08212C25.5324 8.5852 23.7 12.3022 23.7 16.1382V27.2889C23.7 31.1249 29.3099 41.3 40.2182 41.3C51.1264 41.3 56.7364 31.1249 56.7364 27.2889V16.1382C56.7364 12.3022 54.9038 8.58505 51.5216 6.08196Z" fill="#FFE7CF"/>
<path d="M51.1982 6.37781C50.0795 5.60492 48.7801 5.15975 47.2929 4.90002C47.2929 4.90569 47.2931 4.91074 47.2931 4.91641V27.4066C47.2931 30.6539 42.9503 38.4808 34.4727 40.702C35.9257 41.0827 37.4993 41.3 39.1943 41.3C50.7787 41.3 56.7364 31.2105 56.7364 27.4066V16.3495C56.7362 12.5457 54.79 8.85987 51.1982 6.37781Z" fill="#F4D5BA"/>
<path d="M39.5 73.4474C39.5 73.4474 27.3602 45.3192 26.6674 45.5009L8.50717 50.2645C6.55335 50.777 5.10102 52.2065 4.75745 53.9555L0.756544 74.3192C0.481162 75.7205 1.72294 77 3.35811 77H75.6419C77.277 77 78.5188 75.7205 78.2434 74.3192L74.2425 53.9555C73.8989 52.2065 72.4466 50.7771 70.4928 50.2645L52.3326 45.5009C51.6398 45.3192 39.5 73.4474 39.5 73.4474Z" fill="#E1EFFB"/>
<path d="M78.2442 74.3193L74.323 53.9555C73.9862 52.2065 72.5628 50.777 70.6479 50.2646L52.8492 45.5009C52.6646 45.4514 51.651 47.4944 50.2727 50.4949L63.1814 53.9498C64.1571 54.2108 64.8823 54.9392 65.0539 55.8304L69.1304 77H75.6946C77.2971 77.0002 78.5141 75.7206 78.2442 74.3193Z" fill="#CADDEA"/>
<path d="M49.5378 0.700012H39.5H29.4622C24.2967 0.700012 20.1091 4.35786 20.1091 8.87V22.2823C20.1091 22.2823 22.6846 22.2314 24.3397 23.6622C24.6844 23.9601 25.2701 23.7424 25.2701 23.3189V12.3444C25.2701 10.35 27.121 8.73317 29.4043 8.73317H33.1608C34.146 8.73317 35.101 9.03078 35.8637 9.57541L36.2322 9.83861C37.1545 10.4972 38.3089 10.857 39.5 10.857C40.6911 10.857 41.8457 10.4972 42.7678 9.83861L43.1363 9.57541C43.899 9.03078 44.854 8.73317 45.8392 8.73317H49.5957C51.879 8.73317 53.7299 10.35 53.7299 12.3444V23.3189C53.7299 23.7424 54.3156 23.9603 54.6603 23.6622C56.3154 22.2314 58.8909 22.2823 58.8909 22.2823V8.87C58.8909 4.35786 54.7034 0.700012 49.5378 0.700012Z" fill="#FFB125"/>
<path d="M49.3657 0.700012H40.2182C45.4297 0.700012 49.6613 4.29032 49.7399 8.74427C51.9177 8.88269 53.6348 10.441 53.6348 12.3444V23.3189C53.6348 23.7424 54.2314 23.9603 54.5824 23.6622C56.2679 22.2314 58.8909 22.2823 58.8909 22.2823V8.87C58.8911 4.35786 54.6266 0.700012 49.3657 0.700012Z" fill="#FF901D"/>
<path d="M58.5318 64.4C61.5066 64.4 63.9182 62.3629 63.9182 59.85C63.9182 57.3371 61.5066 55.3 58.5318 55.3C55.557 55.3 53.1454 57.3371 53.1454 59.85C53.1454 62.3629 55.557 64.4 58.5318 64.4Z" fill="#1785B8"/>
<path d="M58.1727 62.3C58.966 62.3 59.6091 61.3598 59.6091 60.2C59.6091 59.0402 58.966 58.1 58.1727 58.1C57.3794 58.1 56.7364 59.0402 56.7364 60.2C56.7364 61.3598 57.3794 62.3 58.1727 62.3Z" fill="#E1EFFB"/>
<path d="M78.944 73.0572L75.0035 53.115C74.5788 50.9663 72.8156 49.2403 70.4014 48.6108L59.7731 45.8386C59.5531 43.5927 58.4878 41.4738 56.7151 39.7967C55.297 38.4552 53.5134 37.4784 51.5474 36.9394C51.8839 36.6167 52.1958 36.295 52.482 35.9804C55.0094 33.2016 56.3626 30.1402 56.7071 28.0512H57.527C59.6595 28.0512 61.3946 26.5515 61.3946 24.7078V22.994C61.3946 21.7636 60.5939 20.6488 59.3899 20.0702V15.9489C59.3899 15.3262 58.8058 14.8213 58.0854 14.8213C57.365 14.8213 56.7812 15.326 56.7812 15.9489V20.5755C56.2732 20.6518 55.667 20.7835 55.047 21.0093C54.9835 21.0293 54.9217 21.0524 54.8633 21.0803C54.7232 21.1354 54.583 21.1936 54.4433 21.2592V12.1723C54.4433 9.66185 52.0808 7.61954 49.1767 7.61954H45.5763C44.3345 7.61954 43.1214 7.99356 42.16 8.67303L41.8067 8.92268C41.1578 9.38137 40.3387 9.63402 39.5004 9.63402C38.662 9.63402 37.8427 9.38137 37.1938 8.92268L36.8407 8.67303C35.8793 7.99371 34.6662 7.61954 33.4244 7.61954H29.8237C26.9196 7.61954 24.557 9.66185 24.557 12.1723V21.2592C24.4173 21.1936 24.2771 21.1354 24.137 21.0803C24.0786 21.0524 24.017 21.0293 23.9535 21.0093C23.3335 20.7835 22.7272 20.6518 22.2194 20.5755V8.87681C22.2194 5.22562 25.6557 2.25511 29.8793 2.25511H49.1208C53.3447 2.25511 56.7808 5.22562 56.7808 8.87681V10.6493C56.7808 11.2721 57.3648 11.7769 58.0851 11.7769C58.8053 11.7769 59.3895 11.2722 59.3895 10.6493V8.87681C59.3895 3.98219 54.7829 0 49.1208 0H29.8793C24.2171 0 19.6106 3.98219 19.6106 8.87681V20.0704C18.4066 20.6489 17.606 21.7636 17.606 22.9941V24.708C17.606 26.5516 19.341 28.0513 21.4735 28.0513H22.2935C22.6378 30.1404 23.9911 33.2017 26.5186 35.9805C26.8044 36.2948 27.1161 36.6162 27.4523 36.9386C22.9325 38.1797 19.6364 41.6925 19.2274 45.8386L8.59873 48.6108C6.18453 49.2403 4.42114 50.9663 3.99665 53.115L2.39646 61.2133C2.2752 61.8272 2.75258 62.4097 3.46256 62.5145C4.17236 62.6196 4.84651 62.2068 4.96794 61.5929L6.56813 53.4945C6.82492 52.1946 7.89171 51.1506 9.35221 50.7698L19.1825 48.2058V50.4362C16.9292 50.7947 15.0119 52.1328 14.2222 53.9866C14.0126 54.4787 13.8823 54.9939 13.8349 55.5179L12.8849 66.0595C12.8132 66.8536 13.1311 67.6443 13.7565 68.2286C14.3819 68.813 15.269 69.1484 16.1902 69.1484H17.8165C18.5369 69.1484 19.1209 68.6437 19.1209 68.0208C19.1209 67.3979 18.5369 66.8933 17.8165 66.8933H16.1902C15.9938 66.8933 15.8048 66.822 15.6714 66.6972C15.5381 66.5727 15.4705 66.4042 15.4858 66.235L16.4358 55.6933C16.4645 55.3758 16.5433 55.0637 16.6703 54.7658C17.2197 53.4762 18.7034 52.6029 20.3626 52.5928L20.5774 52.5915C20.5875 52.5913 20.5974 52.5913 20.6073 52.5913C22.2199 52.5913 23.6473 53.3818 24.2494 54.6106C24.4184 54.9551 24.521 55.3194 24.5548 55.6933L25.5052 66.2352C25.5203 66.4042 25.4526 66.5727 25.3194 66.6973C25.1861 66.8219 24.997 66.8933 24.8006 66.8933H23.1743C22.4539 66.8933 21.8698 67.398 21.8698 68.0208C21.8698 68.6435 22.4539 69.1484 23.1743 69.1484H24.8006C25.7218 69.1484 26.609 68.8132 27.2343 68.2286C27.8599 67.6441 28.1777 66.8534 28.106 66.0597L27.1556 55.5179C27.1 54.901 26.9303 54.2996 26.6515 53.7307C25.7922 51.9776 23.9549 50.7586 21.791 50.4288V47.5254L26.275 46.3558C26.683 47.0986 27.4914 48.7037 29.0928 52.1637C30.7068 55.6549 32.7128 60.1298 34.6368 64.48C34.6505 64.5165 34.6664 64.5522 34.6841 64.5871C35.968 67.4913 37.2135 70.3357 38.2787 72.7895C38.4697 73.2296 38.9563 73.521 39.5 73.521C40.0437 73.521 40.5303 73.2296 40.7213 72.7895C41.7863 70.3357 43.0318 67.4913 44.3159 64.5871C44.3338 64.5522 44.3495 64.5164 44.3632 64.48C46.2858 60.1323 48.2908 55.6603 49.904 52.1702C51.5075 48.7057 52.3167 47.0992 52.7248 46.3558L57.2088 47.5254V54.1854C54.102 54.7071 51.7487 57.0758 51.7487 59.9119C51.7487 63.1289 54.7763 65.7463 58.4979 65.7463C62.2195 65.7463 65.2472 63.129 65.2472 59.9119C65.2472 57.0851 62.9093 54.7222 59.8175 54.1903V48.2059L69.648 50.7699C71.1085 51.1507 72.1751 52.1947 72.432 53.4947L76.3725 73.437C76.4379 73.7677 76.3361 74.091 76.0858 74.3474C75.8356 74.6037 75.484 74.745 75.0959 74.745H3.9041C3.51597 74.745 3.16454 74.6038 2.9142 74.3474C2.66403 74.091 2.56208 73.7678 2.62749 73.437L3.92793 66.8556C4.04919 66.2417 3.57181 65.6592 2.86183 65.5544C2.15203 65.4491 1.47789 65.8622 1.35645 66.476L0.0560118 73.0574C-0.137967 74.0397 0.177096 75.04 0.920305 75.8017C1.66386 76.5633 2.75136 77 3.9041 77H75.0959C76.2486 77 77.3363 76.5633 78.0797 75.8015C78.8229 75.0398 79.138 74.0396 78.944 73.0572ZM56.7965 22.8728C57.4915 22.723 58.0494 22.7257 58.0557 22.7258C58.2805 22.7284 58.499 22.683 58.6931 22.595C58.7512 22.72 58.7855 22.8543 58.7855 22.9941V24.708C58.7855 25.308 58.2208 25.7962 57.5266 25.7962H56.7965V22.8728ZM22.2035 25.7962H21.4734C20.7792 25.7962 20.2145 25.308 20.2145 24.708V22.9941C20.2145 22.8543 20.2489 22.72 20.3069 22.5951C20.5009 22.6831 20.7194 22.7285 20.9443 22.7258C20.9542 22.7273 21.5106 22.7246 22.2035 22.8734V25.7962ZM24.8122 27.0605V24.0981C25.2075 24.2006 25.6398 24.1866 26.0389 24.0426C26.7235 23.7957 27.1657 23.2223 27.1657 22.5815V12.1723C27.1657 10.9054 28.3581 9.87465 29.8237 9.87465H33.424C34.0656 9.87465 34.6925 10.0679 35.1891 10.4189L35.5423 10.6686C36.6559 11.4557 38.0614 11.889 39.5 11.889C40.9386 11.889 42.3441 11.4556 43.4577 10.6686L43.8109 10.4189C44.3074 10.0679 44.9344 9.87465 45.576 9.87465H49.1763C50.6419 9.87465 51.8343 10.9054 51.8343 12.1723V22.5816C51.8343 23.2223 52.2765 23.7959 52.9611 24.0428C53.1897 24.1252 53.4291 24.1652 53.6664 24.1652C53.8433 24.1652 54.0188 24.1428 54.1878 24.0992V27.0605C54.1878 28.7069 52.8711 31.9039 50.431 34.5865C49.6227 35.4752 48.5838 36.4299 47.3046 37.2642C47.264 37.2877 47.2252 37.3131 47.1882 37.3402C45.2065 38.6068 42.6583 39.5771 39.5 39.5771C36.3417 39.5771 33.7935 38.6068 31.8117 37.34C31.7746 37.3131 31.736 37.2877 31.6956 37.2644C30.4164 36.4299 29.3774 35.4752 28.569 34.5865C26.129 31.904 24.8122 28.7069 24.8122 27.0605ZM48.0455 45.2781L39.5 50.7995L30.9545 45.2781C31.8019 44.347 32.2767 43.1519 32.2767 42.0853V40.2677C34.2862 41.2019 36.6841 41.8324 39.5 41.8324C42.3159 41.8324 44.7139 41.2019 46.7233 40.2677V42.0853C46.7233 43.1519 47.1981 44.347 48.0455 45.2781ZM28.7776 44.0195C28.081 43.7901 27.3087 43.7525 26.5782 43.9238C26.5462 43.9303 26.5149 43.9377 26.4845 43.9455L21.9781 45.1209C22.7402 41.8812 25.7833 39.3026 29.668 38.8032V42.0853C29.668 42.7928 29.3026 43.5241 28.7776 44.0195ZM32.3177 53.0712C32.3153 53.0659 32.3129 53.0607 32.3106 53.0556C32.2445 52.911 32.1793 52.7685 32.1145 52.6275C32.1029 52.602 32.0912 52.5766 32.0796 52.5513C32.0162 52.4134 31.9534 52.2765 31.8915 52.1419C31.8872 52.1325 31.8828 52.1231 31.8785 52.1135C31.6852 51.6935 31.4989 51.2906 31.3197 50.9045C31.3066 50.8765 31.2936 50.8481 31.2805 50.8203C31.229 50.7096 31.1784 50.6006 31.1281 50.4929C31.1097 50.4533 31.0914 50.4142 31.0731 50.3751C31.0244 50.2708 30.9761 50.167 30.9284 50.0655C30.9141 50.0351 30.9002 50.0056 30.8861 49.9754C30.7997 49.791 30.7151 49.6113 30.6326 49.4361C30.6104 49.3887 30.5876 49.3405 30.5655 49.2937C30.5331 49.2254 30.5016 49.1589 30.47 49.092C30.4359 49.0198 30.4018 48.9482 30.3684 48.8779C30.3559 48.8515 30.3428 48.8237 30.3303 48.7975C30.3202 48.7765 30.311 48.7571 30.3011 48.7362C30.1504 48.4198 30.0072 48.1215 29.8713 47.8411C29.8703 47.8388 29.8691 47.8365 29.868 47.8343C29.7957 47.685 29.7249 47.5391 29.6568 47.4001C29.6215 47.3281 29.5867 47.2572 29.5526 47.1878L36.9021 51.9362L33.8311 53.064C33.8257 53.0659 33.8202 53.0679 33.8148 53.07L32.5326 53.5409C32.4599 53.3819 32.3887 53.2261 32.3177 53.0712ZM35.4301 59.9753C35.1724 59.3974 34.9129 58.8161 34.6528 58.2355C34.246 57.3273 33.8576 56.4637 33.4858 55.6411L33.9726 55.4623L35.9614 57.4608L35.4301 59.9753ZM39.5252 69.1398C39.4878 69.0728 39.4433 69.0094 39.3918 68.9505C38.8024 67.6037 38.0543 65.8997 37.2264 64.0247L38.4442 58.261H40.5558L41.7736 64.0247C40.906 65.989 40.1268 67.7651 39.5252 69.1398ZM41.045 56.0061H37.955L36.4927 54.5368L39.5 53.4324L42.5073 54.5368L41.045 56.0061ZM44.3472 58.2355C44.0871 58.8161 43.8276 59.3974 43.5699 59.9753L43.0386 57.4606L45.0274 55.4621L45.5142 55.6409C45.1424 56.4636 44.754 57.3273 44.3472 58.2355ZM49.3433 47.4001C49.2788 47.5319 49.2116 47.6701 49.1433 47.8111C49.1344 47.8295 49.1254 47.848 49.1165 47.8665C49.0488 48.0063 48.9799 48.1492 48.9086 48.2979C48.9039 48.3077 48.899 48.3181 48.8943 48.328C48.8327 48.4563 48.7696 48.5887 48.7054 48.7236C48.6934 48.7488 48.6821 48.7721 48.6701 48.7975C48.6558 48.8278 48.6405 48.8598 48.626 48.8903C48.5975 48.9505 48.5685 49.0119 48.5392 49.0732C48.5034 49.1489 48.4677 49.2242 48.431 49.3017C48.4194 49.3263 48.4074 49.352 48.3955 49.3769C48.3047 49.5692 48.2115 49.7674 48.1161 49.971C48.1012 50.0029 48.0864 50.0342 48.0714 50.0665C48.0243 50.1672 47.9763 50.2699 47.9281 50.3732C47.9093 50.4136 47.8903 50.4539 47.8714 50.4949C47.8216 50.6015 47.7713 50.7095 47.7205 50.8189C47.7063 50.8495 47.6918 50.8808 47.6776 50.9114C47.5006 51.2922 47.3171 51.6894 47.1266 52.1033C47.1203 52.117 47.1141 52.1304 47.1078 52.1442C47.0462 52.2779 46.9839 52.4138 46.921 52.5508C46.9093 52.5764 46.8975 52.602 46.8856 52.6277C46.8206 52.7694 46.755 52.9125 46.6885 53.058C46.6873 53.0607 46.6861 53.0634 46.6849 53.0659C46.6132 53.2226 46.5412 53.3803 46.4678 53.5412L45.1844 53.0698C45.1798 53.0682 45.1753 53.0665 45.171 53.0649L42.0983 51.9365L49.4477 47.1881C49.4133 47.2572 49.3785 47.3279 49.3433 47.4001ZM52.5155 43.9456C52.5154 43.9456 52.515 43.9455 52.5148 43.9455C52.5138 43.9452 52.5126 43.945 52.5115 43.9446C51.7548 43.7483 50.9475 43.7808 50.2226 44.0195C49.6974 43.5241 49.3322 42.7928 49.3322 42.0853V38.8015C53.2412 39.2996 56.2751 41.854 57.0273 45.1223L52.5155 43.9456ZM62.6385 59.9119C62.6385 61.8856 60.781 63.4912 58.4979 63.4912C56.2149 63.4912 54.3574 61.8856 54.3574 59.9119C54.3574 57.9381 56.2149 56.3326 58.4979 56.3326C60.781 56.3326 62.6385 57.9381 62.6385 59.9119Z" fill="black"/>
</svg>
