<svg width="22" height="22" viewBox="0 0 22 22" fill="none" xmlns="http://www.w3.org/2000/svg">
<path d="M21.58 4.54667L17.6667 0.613334C17.4081 0.356044 17.0582 0.211609 16.6934 0.211609C16.3286 0.211609 15.9786 0.356044 15.72 0.613334L1.8467 14.4667L0.580038 19.9333C0.536342 20.1332 0.53784 20.3402 0.584422 20.5394C0.631004 20.7386 0.721494 20.9249 0.84928 21.0846C0.977067 21.2443 1.13892 21.3735 1.32302 21.4627C1.50712 21.5518 1.70882 21.5988 1.91337 21.6C2.00868 21.6096 2.10472 21.6096 2.20004 21.6L7.7267 20.3333L21.58 6.49333C21.8373 6.23474 21.9818 5.88479 21.9818 5.52C21.9818 5.15521 21.8373 4.80526 21.58 4.54667ZM7.06004 19.1333L1.88004 20.22L3.06004 15.14L13.44 4.8L17.44 8.8L7.06004 19.1333ZM18.3334 7.83333L14.3334 3.83333L16.6534 1.52667L20.5867 5.52667L18.3334 7.83333Z" fill="#396F78"/>
</svg>
