<svg width="78" height="78" viewBox="0 0 78 78" fill="none" xmlns="http://www.w3.org/2000/svg">
<path d="M47.1885 29.303C36.9168 31.6759 27.3957 38.1234 20.3257 45.3238C25.889 54.7939 35.8718 61.7447 47.1885 64.0604C58.5052 61.7447 68.4879 54.7937 74.0512 45.3238C66.9813 38.1235 57.4601 31.6759 47.1885 29.303Z" fill="#E3F2FF"/>
<path d="M34.6963 46.6172C34.6963 41.9844 37.7625 37.8274 42.1607 36.4418C41.1508 36.1247 40.0765 35.9531 38.9619 35.9531C32.9235 35.9531 28.2979 40.9267 28.2979 46.6172C28.2979 52.5068 33.0723 57.2812 38.9619 57.2812C40.0766 57.2812 41.1511 57.1096 42.1611 56.7924C37.8349 55.4335 34.6963 51.3921 34.6963 46.6172Z" fill="white"/>
<path d="M49.626 46.6172C49.626 41.8422 46.4872 37.8006 42.1607 36.4419C37.7625 37.8273 34.6963 41.9845 34.6963 46.6172C34.6963 51.3921 37.8347 55.4334 42.1611 56.7924C46.4877 55.4334 49.626 51.3918 49.626 46.6172Z" fill="#4DBBEB"/>
<path d="M38.9619 43.5703C40.6453 43.5703 42.0088 44.9338 42.0088 46.6172C42.0088 48.3006 40.6453 49.6641 38.9619 49.6641C37.2785 49.6641 35.915 48.3006 35.915 46.6172C35.915 44.9338 37.2785 43.5703 38.9619 43.5703Z" fill="#57555C"/>
<path d="M30.9365 41.6004C31.5321 41.0063 31.5321 40.0404 30.9365 39.4463C30.3423 38.8506 29.3765 38.8506 28.7823 39.4463C28.1867 40.0404 28.1867 41.0063 28.7823 41.6004C29.3765 42.1961 30.3423 42.1961 30.9365 41.6004Z" fill="black"/>
<path d="M43.5703 46.6172C43.5703 44.0971 41.5201 42.0469 39 42.0469C36.4799 42.0469 34.4297 44.0971 34.4297 46.6172C34.4297 49.1373 36.4799 51.1875 39 51.1875C41.5201 51.1875 43.5703 49.1373 43.5703 46.6172ZM37.4766 46.6172C37.4766 45.7772 38.16 45.0938 39 45.0938C39.84 45.0938 40.5234 45.7772 40.5234 46.6172C40.5234 47.4572 39.84 48.1406 39 48.1406C38.16 48.1406 37.4766 47.4572 37.4766 46.6172Z" fill="black"/>
<path d="M39 58.8047C45.7202 58.8047 51.1875 53.3374 51.1875 46.6172C51.1875 39.897 45.7202 34.4297 39 34.4297C37.2971 34.4297 35.6504 34.7738 34.1061 35.4527C33.3359 35.7913 32.9859 36.6902 33.3244 37.4604C33.6629 38.2307 34.5619 38.5804 35.3322 38.2421C36.4877 37.7342 37.7218 37.4766 39 37.4766C44.0401 37.4766 48.1406 41.577 48.1406 46.6172C48.1406 51.6573 44.0401 55.7578 39 55.7578C33.9599 55.7578 29.8594 51.6573 29.8594 46.6172C29.8594 46.5651 29.8592 46.5142 29.8604 46.4621C29.8799 45.621 29.2139 44.9233 28.3728 44.9038C27.5303 44.8828 26.834 45.5502 26.8145 46.3914C26.8127 46.4673 26.8125 46.5413 26.8125 46.6172C26.8125 53.3374 32.2798 58.8047 39 58.8047Z" fill="black"/>
<path d="M40.5234 22.2422V13.1016C40.5234 12.2602 39.8414 11.5781 39 11.5781C38.1586 11.5781 37.4766 12.2602 37.4766 13.1016V22.2422C37.4766 23.0836 38.1586 23.7656 39 23.7656C39.8414 23.7656 40.5234 23.0836 40.5234 22.2422Z" fill="black"/>
<path d="M21.9803 25.0273C22.5752 24.4324 22.5752 23.4678 21.9803 22.8727L15.5179 16.4103C14.923 15.8154 13.9583 15.8154 13.3633 16.4103C12.7684 17.0052 12.7684 17.9698 13.3633 18.5649L19.8257 25.0273C20.4206 25.6222 21.3854 25.6224 21.9803 25.0273Z" fill="black"/>
<path d="M58.1743 25.0273L64.6367 18.5649C65.2316 17.97 65.2316 17.0053 64.6367 16.4103C64.0418 15.8154 63.0771 15.8154 62.4821 16.4103L56.0197 22.8727C55.4248 23.4676 55.4248 24.4323 56.0197 25.0273C56.6144 25.6222 57.5792 25.6224 58.1743 25.0273Z" fill="black"/>
<path d="M0.381608 46.8777C-0.175361 47.5084 -0.115642 48.4711 0.514908 49.028C1.14561 49.585 2.10842 49.5253 2.66524 48.8947C2.98989 48.5271 3.32245 48.1609 3.65928 47.7969C11.1874 59.1715 24.834 66.4219 39 66.4219C53.166 66.4219 66.8126 59.1715 74.3407 47.7969C74.6775 48.161 75.0101 48.5273 75.3347 48.8947C75.8899 49.5233 76.8525 49.5867 77.4851 49.028C78.1156 48.4711 78.1753 47.5082 77.6184 46.8777C67.9407 35.9213 53.5711 26.8125 39 26.8125C24.4269 26.8125 10.0574 35.9236 0.381608 46.8777ZM39 29.8594C54.1948 29.8594 66.7358 40.2354 72.1635 45.5537C65.2749 56.4161 52.3933 63.375 39 63.375C25.6067 63.375 12.7251 56.4161 5.83643 45.5538C11.2641 40.2354 23.8054 29.8594 39 29.8594Z" fill="black"/>
</svg>
