<svg width="78" height="78" viewBox="0 0 78 78" fill="none" xmlns="http://www.w3.org/2000/svg">
<g clip-path="url(#clip0)">
<path d="M39.4248 66.3594C39.4248 66.3594 22.0065 55.9934 12.915 42.8234C7.64705 35.1764 6.88234 28.5489 8.41175 23.3659C10.6209 15.8888 19.0327 8.49665 30.7582 12.83C36.451 14.9542 39.4248 17.3332 39.4248 17.3332C39.4248 17.3332 42.3987 14.9542 48.0915 12.83C59.817 8.49665 68.2287 15.8888 70.4379 23.3659C71.9673 28.464 71.2026 35.0914 65.9346 42.8234C56.8431 55.9934 39.4248 66.3594 39.4248 66.3594Z" fill="#F55557"/>
<path d="M76.8105 37.8104H70.183C72.9869 31.5228 72.6471 26.5098 71.6274 23.1111C69.8431 16.9934 63.8954 10.4509 54.9739 10.4509C52.5948 10.4509 50.2157 10.8758 47.7516 11.8104C43.5033 13.4248 40.6993 15.1241 39.5098 15.9738C38.2353 15.1241 35.5163 13.4248 31.268 11.8104C28.8039 10.8758 26.4248 10.4509 24.0457 10.4509C15.1242 10.4509 9.17647 16.9934 7.39216 23.1111C6.20261 26.6797 5.86274 32.2026 9.26144 39.0849H1.18954C0.509804 39.0849 0 39.5947 0 40.2745C0 40.9542 0.509804 41.464 1.18954 41.464H10.6209C11.0458 42.1437 11.4706 42.8235 11.8954 43.5032C19.6275 54.6339 36.366 66.6993 39.4248 67.464V67.549C39.4248 67.549 39.5098 67.549 39.5948 67.464C39.6797 67.464 39.7647 67.464 39.7647 67.464V67.379C42.3987 66.1045 58.4575 55.7385 66.9542 43.4182C67.719 42.3137 68.3987 41.1241 68.9935 40.1045H76.8105C77.4902 40.1045 78 39.5947 78 38.915C78 38.3202 77.4902 37.8104 76.8105 37.8104ZM9.60131 23.7908C11.1307 18.5228 16.3137 12.83 23.9608 12.83C26 12.83 28.1242 13.2548 30.3333 14.0196C35.7712 16.0588 38.6601 18.3529 38.6601 18.3529C39.085 18.6928 39.7647 18.6928 40.1895 18.3529C40.1895 18.3529 43.0784 16.0588 48.5163 14.0196C50.7255 13.2548 52.8497 12.83 54.8889 12.83C62.5359 12.83 67.7189 18.5228 69.2484 23.7908C70.5229 28.1241 69.8431 32.8823 67.4641 37.8104H60.2418L57.183 32.6274C57.0131 32.2875 56.5882 32.0326 56.1634 32.0326C55.7386 32.0326 55.3137 32.2026 55.1438 32.5424L52.5948 36.281L48.5163 23.0261C48.3464 22.5163 47.8366 22.1764 47.3268 22.1764C46.817 22.1764 46.3072 22.5163 46.1373 23.0261L39.2549 46.9019L31.7778 27.7843C31.6078 27.3594 31.183 27.0196 30.6732 27.0196C30.1634 27.0196 29.7386 27.2745 29.5686 27.6993L23.7059 39.0849H12.0654C9.0915 33.647 8.15686 28.464 9.60131 23.7908ZM64.915 42.1437C57.0131 53.6143 42.5686 62.9607 39.4248 64.915C36.281 62.9607 21.8366 53.5294 13.9346 42.1437C13.7647 41.8888 13.6797 41.7189 13.5098 41.464H24.4706C24.8954 41.464 25.3203 41.2091 25.5752 40.7843L30.5033 31.098L38.3203 51.0653C38.4902 51.5751 38.915 51.83 39.4248 51.83C39.4248 51.83 39.4248 51.83 39.5098 51.83C40.0196 51.83 40.4444 51.4901 40.6144 50.9803L47.4118 27.6143L51.0654 39.4248C51.2353 39.8496 51.5752 40.1895 52.085 40.2745C52.5098 40.3594 53.0196 40.1045 53.2745 39.7647L56.1634 35.6013L58.6274 39.7647C58.8824 40.1045 59.2222 40.3594 59.6471 40.3594H66.1895C65.7647 40.8692 65.3399 41.549 64.915 42.1437Z" fill="#30323A"/>
</g>
<defs>
<clipPath id="clip0">
<rect width="78" height="78" fill="white"/>
</clipPath>
</defs>
</svg>
