<svg width="30" height="26" viewBox="0 0 30 26" fill="none" xmlns="http://www.w3.org/2000/svg">
<path d="M11.3485 24.4782C12.9087 25.9692 15.3656 25.9692 16.9258 24.4782C18.466 22.939 18.4668 20.4427 16.9276 18.9025C16.927 18.902 16.9264 18.9014 16.9258 18.9008L15.3606 17.3356H25.4354C27.8366 17.3356 29.7832 15.389 29.7832 12.9877C29.7832 10.5865 27.8366 8.63995 25.4354 8.63995H15.3606L16.9258 7.07473C18.3543 5.43003 18.1789 2.93881 16.5342 1.5103C15.0457 0.217533 12.8313 0.222343 11.3485 1.52164L1.70844 11.1617C0.690073 12.1804 0.690073 13.8317 1.70844 14.8504L11.3485 24.4782Z" fill="#FAFAFA"/>
</svg>
