<svg width="494" height="388" viewBox="0 0 494 388" fill="none" xmlns="http://www.w3.org/2000/svg">
<path d="M449.669 354.203C440.199 364.346 429.348 373.104 417.436 380.218C417.163 380.386 416.885 380.544 416.606 380.707L397.321 363.632C397.524 363.444 397.748 363.232 397.99 363C412.359 349.351 483.694 253.916 488.447 230.676C488.119 232.612 492.736 308.539 449.669 354.203Z" fill="#F0F0F0"/>
<path d="M421.157 383.513C420.793 383.6 420.422 383.682 420.05 383.756L405.582 370.946C405.864 370.847 406.195 370.73 406.573 370.6C412.78 368.401 431.269 361.763 449.668 354.202C469.438 346.075 489.113 336.891 493.345 331.009C492.437 332.376 464.476 373.823 421.157 383.513Z" fill="#F0F0F0"/>
<path d="M449.402 101.616H447.341V45.1518C447.341 40.8602 446.497 36.6106 444.855 32.6456C443.213 28.6807 440.807 25.0781 437.773 22.0435C434.74 19.0088 431.139 16.6016 427.175 14.9593C423.212 13.317 418.964 12.4717 414.674 12.4717H295.092C290.802 12.4717 286.554 13.317 282.591 14.9593C278.628 16.6016 275.026 19.0088 271.993 22.0434C268.959 25.078 266.553 28.6806 264.911 32.6455C263.27 36.6105 262.425 40.8601 262.425 45.1517V354.92C262.425 359.211 263.27 363.461 264.911 367.426C266.553 371.391 268.959 374.994 271.993 378.028C275.026 381.063 278.628 383.47 282.591 385.112C286.554 386.755 290.802 387.6 295.092 387.6H414.674C418.964 387.6 423.212 386.755 427.175 385.112C431.139 383.47 434.74 381.063 437.773 378.028C440.807 374.994 443.213 371.391 444.855 367.426C446.496 363.461 447.341 359.212 447.341 354.92V141.808H449.402V101.616Z" fill="#3F3D56"/>
<path d="M440.388 45.3762V354.693C440.388 357.898 439.756 361.072 438.53 364.033C437.304 366.994 435.506 369.684 433.241 371.95C430.975 374.216 428.285 376.013 425.325 377.239C422.364 378.464 419.192 379.095 415.988 379.094H295.831C292.628 379.094 289.456 378.463 286.497 377.237C283.537 376.011 280.848 374.213 278.583 371.947C276.318 369.682 274.522 366.992 273.296 364.031C272.07 361.071 271.44 357.898 271.44 354.693V45.3762C271.44 42.1718 272.07 38.9988 273.296 36.0384C274.522 33.0779 276.318 30.388 278.583 28.1221C280.848 25.8563 283.537 24.0591 286.497 22.8329C289.456 21.6068 292.628 20.9758 295.831 20.9761H310.412C309.697 22.7367 309.424 24.6463 309.619 26.537C309.814 28.4276 310.471 30.2413 311.531 31.8186C312.591 33.3959 314.022 34.6885 315.699 35.5826C317.376 36.4767 319.246 36.945 321.146 36.9463H389.651C391.552 36.9481 393.425 36.4817 395.103 35.5885C396.781 34.6952 398.214 33.4025 399.275 31.8242C400.335 30.246 400.992 28.4309 401.185 26.539C401.379 24.6471 401.104 22.7366 400.385 20.9761H415.988C419.192 20.9749 422.364 21.6052 425.325 22.8309C428.285 24.0566 430.975 25.8537 433.241 28.1196C435.506 30.3854 437.304 33.0757 438.53 36.0366C439.756 38.9976 440.388 42.1712 440.388 45.3762V45.3762Z" fill="white"/>
<path d="M403.011 206.114H297.396C295.546 206.112 293.773 205.376 292.465 204.067C291.157 202.759 290.421 200.984 290.419 199.134V195.66C290.421 193.809 291.157 192.035 292.465 190.726C293.773 189.418 295.546 188.682 297.396 188.679H403.011C404.861 188.682 406.634 189.418 407.942 190.726C409.25 192.035 409.986 193.809 409.988 195.66V199.134C409.986 200.984 409.25 202.759 407.942 204.067C406.634 205.376 404.861 206.112 403.011 206.114Z" fill="#F0F0F0"/>
<path d="M403.011 236.064H297.396C295.546 236.062 293.773 235.326 292.465 234.017C291.157 232.708 290.421 230.934 290.419 229.084V225.609C290.421 223.759 291.157 221.984 292.465 220.676C293.773 219.367 295.546 218.631 297.396 218.629H403.011C404.861 218.631 406.634 219.367 407.942 220.676C409.25 221.984 409.986 223.759 409.988 225.609V229.084C409.986 230.934 409.25 232.708 407.942 234.017C406.634 235.326 404.861 236.062 403.011 236.064V236.064Z" fill="#F0F0F0"/>
<path d="M408.294 199.416H302.679C300.737 199.414 298.875 198.641 297.501 197.267C296.128 195.893 295.355 194.03 295.353 192.087V188.612C295.355 186.669 296.128 184.806 297.501 183.432C298.875 182.058 300.737 181.285 302.679 181.283H408.294C410.236 181.285 412.098 182.058 413.472 183.432C414.845 184.806 415.618 186.669 415.62 188.612V192.087C415.618 194.03 414.845 195.893 413.472 197.267C412.098 198.641 410.236 199.414 408.294 199.416V199.416ZM302.679 182.679C301.107 182.681 299.599 183.307 298.488 184.419C297.376 185.531 296.75 187.039 296.749 188.612V192.087C296.75 193.66 297.376 195.168 298.488 196.28C299.599 197.392 301.107 198.018 302.679 198.02H408.294C409.866 198.018 411.374 197.392 412.486 196.28C413.598 195.168 414.223 193.66 414.225 192.087V188.612C414.223 187.039 413.598 185.531 412.486 184.419C411.374 183.307 409.866 182.681 408.294 182.679H302.679Z" fill="#3F3D56"/>
<path d="M408.294 229.365H302.679C300.737 229.363 298.875 228.59 297.501 227.216C296.128 225.842 295.355 223.979 295.353 222.036V218.562C295.355 216.619 296.128 214.756 297.501 213.382C298.875 212.008 300.737 211.235 302.679 211.233H408.294C410.236 211.235 412.098 212.008 413.472 213.382C414.845 214.756 415.618 216.619 415.62 218.562V222.036C415.618 223.979 414.845 225.842 413.472 227.216C412.098 228.59 410.236 229.363 408.294 229.365V229.365ZM302.679 212.629C301.107 212.631 299.599 213.256 298.488 214.369C297.376 215.481 296.75 216.989 296.749 218.562V222.036C296.75 223.609 297.376 225.117 298.488 226.23C299.599 227.342 301.107 227.968 302.679 227.969H408.294C409.866 227.968 411.374 227.342 412.486 226.23C413.598 225.117 414.223 223.609 414.225 222.036V218.562C414.223 216.989 413.598 215.481 412.486 214.369C411.374 213.256 409.866 212.631 408.294 212.629H302.679Z" fill="#3F3D56"/>
<path d="M440.387 45.3762V112.657C429.701 115.47 418.512 115.792 407.681 113.6C396.85 111.408 386.667 106.76 377.913 100.013C369.16 93.2659 362.071 84.6001 357.19 74.6821C352.31 64.7642 349.769 53.8585 349.763 42.804C349.763 40.8309 349.842 38.8783 350.001 36.9462H389.651C391.552 36.948 393.424 36.4817 395.103 35.5885C396.781 34.6952 398.214 33.4024 399.275 31.8242C400.335 30.246 400.991 28.4309 401.185 26.539C401.379 24.6471 401.104 22.7366 400.385 20.9761H415.988C419.192 20.9749 422.364 21.6052 425.325 22.8309C428.285 24.0566 430.975 25.8537 433.24 28.1196C435.506 30.3854 437.304 33.0757 438.53 36.0366C439.756 38.9976 440.387 42.1712 440.387 45.3762V45.3762Z" fill="#F0F0F0"/>
<path d="M332.153 374.892C332.153 376.31 332.1 377.711 331.985 379.093H295.831C292.628 379.094 289.456 378.463 286.497 377.237C283.537 376.01 280.848 374.213 278.583 371.947C276.318 369.682 274.522 366.992 273.296 364.031C272.07 361.071 271.44 357.898 271.44 354.693V321.608C279.018 320.622 286.72 321.263 294.031 323.489C301.343 325.715 308.096 329.474 313.841 334.516C319.586 339.558 324.19 345.767 327.348 352.729C330.506 359.691 332.144 367.246 332.153 374.892H332.153Z" fill="#4DADBD"/>
<path d="M40.5534 316.839C41.5693 317.286 42.721 317.311 43.7558 316.91C44.7906 316.509 45.624 315.713 46.0733 314.698L78.6433 240.853C79.3887 239.163 79.6165 237.29 79.2978 235.471C78.9791 233.651 78.1282 231.967 76.8528 230.632C75.5773 229.296 73.9346 228.369 72.1323 227.967C70.3301 227.566 68.4492 227.708 66.7277 228.376H66.7276C64.7387 229.135 63.0744 230.561 62.0178 232.41C61.8497 232.703 61.6973 233.004 61.5612 233.313L28.9911 307.158C28.7692 307.661 28.6484 308.203 28.6359 308.753C28.6233 309.303 28.7191 309.85 28.9178 310.362C29.1166 310.875 29.4144 311.344 29.7942 311.742C30.174 312.139 30.6284 312.458 31.1314 312.68L40.5534 316.839Z" fill="#4DADBD"/>
<path d="M77.3062 271.17L45.0903 264.008L53.0641 242.906C54.4225 237.748 57.5837 233.248 61.9744 230.222C66.3652 227.196 71.6945 225.845 76.9959 226.413L77.3063 226.448L77.3062 271.17Z" fill="#2F2E41"/>
<path d="M142.377 317.895C141.43 317.893 140.503 317.617 139.709 317.1C138.915 316.582 138.288 315.846 137.904 314.98L105.334 241.135C104.298 238.785 104.202 236.128 105.065 233.709C105.928 231.291 107.684 229.295 109.973 228.133C112.262 226.971 114.91 226.731 117.37 227.462C119.831 228.193 121.918 229.839 123.202 232.063V232.062C123.383 232.376 123.547 232.7 123.693 233.031L156.263 306.876C156.785 308.062 156.816 309.407 156.348 310.615C155.88 311.823 154.951 312.796 153.766 313.319L144.024 317.618L144.019 317.607C143.493 317.797 142.937 317.895 142.377 317.895V317.895Z" fill="#4DADBD"/>
<path d="M97.3246 292.537C96.2147 292.538 95.1506 292.98 94.3657 293.765C93.5809 294.55 93.1394 295.615 93.1382 296.725V382.59C93.1394 383.7 93.5809 384.765 94.3657 385.55C95.1506 386.335 96.2147 386.777 97.3246 386.778H107.623C108.733 386.777 109.797 386.335 110.582 385.55C111.367 384.765 111.808 383.7 111.809 382.59V296.725C111.808 295.615 111.367 294.55 110.582 293.765C109.797 292.98 108.733 292.538 107.623 292.537H97.3246Z" fill="#4DADBD"/>
<path d="M76.956 292.537C75.846 292.538 74.7819 292.98 73.9971 293.765C73.2122 294.55 72.7708 295.615 72.7695 296.725V382.59C72.7708 383.7 73.2122 384.765 73.9971 385.55C74.7819 386.335 75.846 386.777 76.956 386.778H87.2544C88.3644 386.777 89.4285 386.335 90.2133 385.55C90.9982 384.765 91.4396 383.7 91.4409 382.59V296.725C91.4396 295.615 90.9982 294.55 90.2133 293.765C89.4285 292.98 88.3644 292.538 87.2544 292.537H76.956Z" fill="#4DADBD"/>
<path d="M91.9817 202.579C111.635 202.579 127.566 186.641 127.566 166.98C127.566 147.32 111.635 131.382 91.9817 131.382C72.3288 131.382 56.397 147.32 56.397 166.98C56.397 186.641 72.3288 202.579 91.9817 202.579Z" fill="#4DADBD"/>
<path d="M103.824 181.924C106.131 181.86 109.001 181.78 111.213 180.163C111.872 179.662 112.413 179.023 112.798 178.291C113.184 177.559 113.405 176.751 113.446 175.925C113.486 175.337 113.389 174.748 113.164 174.204C112.939 173.66 112.591 173.176 112.148 172.788C110.993 171.812 109.306 171.583 107.488 172.117L109.372 158.349L107.989 158.159L105.775 174.346L106.929 173.816C108.268 173.202 110.105 172.889 111.247 173.854C111.527 174.107 111.746 174.42 111.885 174.771C112.025 175.122 112.082 175.499 112.051 175.876C112.017 176.491 111.852 177.092 111.565 177.637C111.278 178.182 110.877 178.659 110.39 179.036C108.669 180.294 106.38 180.456 103.785 180.528L103.824 181.924Z" fill="#2F2E41"/>
<path d="M123.724 159.536H116.208V160.932H123.724V159.536Z" fill="#2F2E41"/>
<path d="M100.001 159.536H92.4854V160.932H100.001V159.536Z" fill="#2F2E41"/>
<path d="M127.241 318.329L114.433 224.796C114.296 223.793 113.8 222.874 113.037 222.208C112.275 221.543 111.297 221.176 110.285 221.176H100.618C100.658 220.946 100.679 220.712 100.68 220.478V216.988C100.68 215.877 100.239 214.812 99.4542 214.027C98.6691 213.241 97.6043 212.8 96.494 212.8H88.1211C87.0108 212.8 85.946 213.241 85.1609 214.027C84.3758 214.812 83.9347 215.877 83.9347 216.988V220.478C83.9361 220.712 83.9571 220.946 83.9974 221.176H74.3299C73.3179 221.176 72.3403 221.543 71.5777 222.208C70.8152 222.874 70.3193 223.793 70.1819 224.796L57.3742 318.329C57.2931 318.921 57.3397 319.524 57.511 320.097C57.6822 320.67 57.9741 321.2 58.3671 321.65C58.76 322.101 59.2449 322.462 59.7891 322.71C60.3332 322.957 60.924 323.085 61.5218 323.085H123.093C123.691 323.085 124.282 322.957 124.826 322.71C125.37 322.462 125.855 322.101 126.248 321.65C126.641 321.2 126.933 320.67 127.104 320.097C127.275 319.524 127.322 318.921 127.241 318.329V318.329Z" fill="#2F2E41"/>
<path d="M107.309 271.17V226.448L107.619 226.413C112.927 225.845 118.263 227.201 122.656 230.234C127.05 233.267 130.21 237.776 131.563 242.942L139.525 264.008L107.309 271.17Z" fill="#2F2E41"/>
<path d="M90.1899 203.689L65.5768 194.132C61.552 192.57 57.5048 191.054 53.5013 189.438C51.7864 188.84 50.2068 187.909 48.8533 186.697C47.675 185.449 46.8719 183.895 46.536 182.211C45.6824 178.602 45.8367 174.655 45.8976 170.972C45.9448 166.942 46.2763 162.92 46.8896 158.937C47.9645 151.453 50.4887 144.25 54.3207 137.732C61.2233 126.402 73.1159 117.878 86.7956 118.558C93.1288 118.873 99.4984 121.146 104.204 125.478C104.695 126.065 105.245 126.599 105.847 127.071C106.265 127.228 106.72 127.259 107.156 127.159C107.73 127.122 108.305 127.094 108.88 127.075C110.875 126.99 112.875 127.074 114.856 127.325C118.467 127.716 121.89 129.137 124.716 131.421C127.067 133.444 128.98 136.301 129.177 139.476C129.272 140.933 129.031 142.393 128.473 143.742C127.915 145.092 127.054 146.295 125.958 147.259C123.021 149.735 118.832 148.865 115.309 148.678L102.405 147.994L95.8674 147.647C94.5212 147.576 94.5252 149.67 95.8674 149.741L113.245 150.662C116.037 150.81 118.915 151.173 121.71 151.006C123.857 150.908 125.908 150.083 127.524 148.666C129.001 147.309 130.1 145.593 130.716 143.684C131.332 141.776 131.443 139.74 131.039 137.776C130.143 133.492 126.955 129.948 123.219 127.84C118.135 124.971 112.064 124.696 106.375 125.12L107.115 125.427C100.681 118.518 90.8241 115.601 81.5708 116.622C71.8009 117.7 63.1114 123.152 56.868 130.608C49.907 138.921 46.1137 149.286 44.639 159.945C43.8716 165.7 43.619 171.512 43.8841 177.311C43.8732 179.869 44.3106 182.409 45.1765 184.816C46.1645 187.158 47.9508 189.074 50.2178 190.223C52.8168 191.478 55.4888 192.576 58.2193 193.511L67.2873 197.032L85.0994 203.948L89.6334 205.709C90.89 206.197 91.4343 204.173 90.1899 203.689Z" fill="#2F2E41"/>
<path d="M51.4898 132.529C49.3508 132.529 47.2598 131.895 45.4813 130.706C43.7028 129.517 42.3166 127.827 41.4981 125.85C40.6795 123.873 40.4653 121.698 40.8826 119.599C41.2999 117.501 42.3299 115.573 43.8424 114.06C45.3549 112.547 47.282 111.516 49.3799 111.099C51.4778 110.681 53.6523 110.896 55.6285 111.714C57.6047 112.533 59.2937 113.92 60.4821 115.699C61.6705 117.478 62.3048 119.57 62.3048 121.71C62.3015 124.578 61.1611 127.328 59.1336 129.357C57.1061 131.385 54.3571 132.526 51.4898 132.529ZM51.4898 112.985C49.7648 112.985 48.0785 113.497 46.6442 114.455C45.2099 115.414 44.0921 116.777 43.4319 118.371C42.7718 119.965 42.5991 121.72 42.9356 123.412C43.2721 125.105 44.1028 126.659 45.3226 127.88C46.5423 129.1 48.0964 129.931 49.7883 130.267C51.4801 130.604 53.2338 130.431 54.8274 129.771C56.4211 129.111 57.7833 127.992 58.7417 126.557C59.7 125.123 60.2115 123.436 60.2115 121.71C60.2089 119.397 59.2892 117.179 57.6541 115.543C56.019 113.908 53.8021 112.988 51.4898 112.985V112.985Z" fill="#2F2E41"/>
<path d="M232.277 199.576L208.869 181.666L190.965 205.083L214.374 222.994L232.277 199.576Z" fill="#CEB699"/>
<path d="M99.9827 39.6939C103.681 39.691 107.329 40.5545 110.634 42.2154C113.939 43.8762 116.809 46.2882 119.015 49.2581L132.684 31.3796L91.6715 0L60.3042 41.0282L77.9804 54.5527C79.7493 50.164 82.7892 46.4044 86.7097 43.7567C90.6303 41.1091 95.2525 39.6942 99.9827 39.6939V39.6939Z" fill="#CEB699"/>
<path d="M493.302 388H0.69774C0.512688 388 0.335214 387.926 0.204363 387.796C0.0735112 387.665 0 387.487 0 387.302C0 387.117 0.0735112 386.939 0.204363 386.808C0.335214 386.678 0.512688 386.604 0.69774 386.604H493.302C493.487 386.604 493.665 386.678 493.796 386.808C493.926 386.939 494 387.117 494 387.302C494 387.487 493.926 387.665 493.796 387.796C493.665 387.926 493.487 388 493.302 388Z" fill="#3F3D56"/>
<path d="M373.073 272.179H322.932C321.082 272.177 319.309 271.441 318 270.132C316.692 268.824 315.957 267.05 315.955 265.199V261.725C315.957 259.874 316.692 258.1 318 256.791C319.309 255.483 321.082 254.747 322.932 254.745H373.073C374.923 254.747 376.696 255.483 378.004 256.791C379.313 258.1 380.048 259.874 380.05 261.725V265.199C380.048 267.05 379.313 268.824 378.004 270.132C376.696 271.441 374.923 272.177 373.073 272.179V272.179Z" fill="#4DADBD"/>
<path d="M378.356 265.481H328.215C326.273 265.479 324.41 264.706 323.037 263.332C321.663 261.958 320.891 260.095 320.889 258.152V254.678C320.891 252.735 321.663 250.872 323.037 249.498C324.41 248.124 326.273 247.351 328.215 247.349H378.356C380.299 247.351 382.161 248.124 383.534 249.498C384.908 250.872 385.68 252.735 385.682 254.678V258.152C385.68 260.095 384.908 261.958 383.534 263.332C382.161 264.706 380.299 265.479 378.356 265.481V265.481ZM328.215 248.745C326.643 248.746 325.135 249.372 324.023 250.484C322.911 251.597 322.286 253.105 322.284 254.678V258.152C322.286 259.725 322.911 261.233 324.023 262.345C325.135 263.458 326.643 264.083 328.215 264.085H378.356C379.929 264.083 381.436 263.458 382.548 262.345C383.66 261.233 384.285 259.725 384.287 258.152V254.678C384.285 253.105 383.66 251.597 382.548 250.484C381.436 249.372 379.929 248.746 378.356 248.745H328.215Z" fill="#3F3D56"/>
</svg>
