<svg width="150" height="26" viewBox="0 0 150 26" fill="none" xmlns="http://www.w3.org/2000/svg">
<path d="M1.52344 22V4.9375H6.77344C8.27344 4.9375 9.61328 5.27734 10.793 5.95703C11.9805 6.62891 12.9062 7.58984 13.5703 8.83984C14.2344 10.082 14.5664 11.4961 14.5664 13.082V13.8672C14.5664 15.4531 14.2383 16.8633 13.582 18.0977C12.9336 19.332 12.0156 20.2891 10.8281 20.9688C9.64062 21.6484 8.30078 21.9922 6.80859 22H1.52344ZM5.03906 7.78516V19.1758H6.73828C8.11328 19.1758 9.16406 18.7266 9.89062 17.8281C10.6172 16.9297 10.9883 15.6445 11.0039 13.9727V13.0703C11.0039 11.3359 10.6445 10.0234 9.92578 9.13281C9.20703 8.23438 8.15625 7.78516 6.77344 7.78516H5.03906ZM16.3828 15.543C16.3828 14.2852 16.625 13.1641 17.1094 12.1797C17.5938 11.1953 18.2891 10.4336 19.1953 9.89453C20.1094 9.35547 21.168 9.08594 22.3711 9.08594C24.082 9.08594 25.4766 9.60938 26.5547 10.6562C27.6406 11.7031 28.2461 13.125 28.3711 14.9219L28.3945 15.7891C28.3945 17.7344 27.8516 19.2969 26.7656 20.4766C25.6797 21.6484 24.2227 22.2344 22.3945 22.2344C20.5664 22.2344 19.1055 21.6484 18.0117 20.4766C16.9258 19.3047 16.3828 17.7109 16.3828 15.6953V15.543ZM19.7695 15.7891C19.7695 16.9922 19.9961 17.9141 20.4492 18.5547C20.9023 19.1875 21.5508 19.5039 22.3945 19.5039C23.2148 19.5039 23.8555 19.1914 24.3164 18.5664C24.7773 17.9336 25.0078 16.9258 25.0078 15.543C25.0078 14.3633 24.7773 13.4492 24.3164 12.8008C23.8555 12.1523 23.207 11.8281 22.3711 11.8281C21.543 11.8281 20.9023 12.1523 20.4492 12.8008C19.9961 13.4414 19.7695 14.4375 19.7695 15.7891ZM35.7539 19.5039C36.3789 19.5039 36.8867 19.332 37.2773 18.9883C37.668 18.6445 37.8711 18.1875 37.8867 17.6172H41.0625C41.0547 18.4766 40.8203 19.2656 40.3594 19.9844C39.8984 20.6953 39.2656 21.25 38.4609 21.6484C37.6641 22.0391 36.7812 22.2344 35.8125 22.2344C34 22.2344 32.5703 21.6602 31.5234 20.5117C30.4766 19.3555 29.9531 17.7617 29.9531 15.7305V15.5078C29.9531 13.5547 30.4727 11.9961 31.5117 10.832C32.5508 9.66797 33.9766 9.08594 35.7891 9.08594C37.375 9.08594 38.6445 9.53906 39.5977 10.4453C40.5586 11.3438 41.0469 12.543 41.0625 14.043H37.8867C37.8711 13.3867 37.668 12.8555 37.2773 12.4492C36.8867 12.0352 36.3711 11.8281 35.7305 11.8281C34.9414 11.8281 34.3438 12.1172 33.9375 12.6953C33.5391 13.2656 33.3398 14.1953 33.3398 15.4844V15.8359C33.3398 17.1406 33.5391 18.0781 33.9375 18.6484C34.3359 19.2188 34.9414 19.5039 35.7539 19.5039ZM47.0508 6.20312V9.32031H49.2188V11.8047H47.0508V18.1328C47.0508 18.6016 47.1406 18.9375 47.3203 19.1406C47.5 19.3438 47.8438 19.4453 48.3516 19.4453C48.7266 19.4453 49.0586 19.418 49.3477 19.3633V21.9297C48.6836 22.1328 48 22.2344 47.2969 22.2344C44.9219 22.2344 43.7109 21.0352 43.6641 18.6367V11.8047H41.8125V9.32031H43.6641V6.20312H47.0508ZM50.2266 15.543C50.2266 14.2852 50.4688 13.1641 50.9531 12.1797C51.4375 11.1953 52.1328 10.4336 53.0391 9.89453C53.9531 9.35547 55.0117 9.08594 56.2148 9.08594C57.9258 9.08594 59.3203 9.60938 60.3984 10.6562C61.4844 11.7031 62.0898 13.125 62.2148 14.9219L62.2383 15.7891C62.2383 17.7344 61.6953 19.2969 60.6094 20.4766C59.5234 21.6484 58.0664 22.2344 56.2383 22.2344C54.4102 22.2344 52.9492 21.6484 51.8555 20.4766C50.7695 19.3047 50.2266 17.7109 50.2266 15.6953V15.543ZM53.6133 15.7891C53.6133 16.9922 53.8398 17.9141 54.293 18.5547C54.7461 19.1875 55.3945 19.5039 56.2383 19.5039C57.0586 19.5039 57.6992 19.1914 58.1602 18.5664C58.6211 17.9336 58.8516 16.9258 58.8516 15.543C58.8516 14.3633 58.6211 13.4492 58.1602 12.8008C57.6992 12.1523 57.0508 11.8281 56.2148 11.8281C55.3867 11.8281 54.7461 12.1523 54.293 12.8008C53.8398 13.4414 53.6133 14.4375 53.6133 15.7891ZM71.4492 12.4961C70.9883 12.4336 70.582 12.4023 70.2305 12.4023C68.9492 12.4023 68.1094 12.8359 67.7109 13.7031V22H64.3242V9.32031H67.5234L67.6172 10.832C68.2969 9.66797 69.2383 9.08594 70.4414 9.08594C70.8164 9.08594 71.168 9.13672 71.4961 9.23828L71.4492 12.4961Z" fill="black"/>
<path d="M78.7969 14.3945C76.8672 13.8398 75.4609 13.1602 74.5781 12.3555C73.7031 11.543 73.2656 10.543 73.2656 9.35547C73.2656 8.01172 73.8008 6.90234 74.8711 6.02734C75.9492 5.14453 77.3477 4.70312 79.0664 4.70312C80.2383 4.70312 81.2812 4.92969 82.1953 5.38281C83.1172 5.83594 83.8281 6.46094 84.3281 7.25781C84.8359 8.05469 85.0898 8.92578 85.0898 9.87109H82.8281C82.8281 8.83984 82.5 8.03125 81.8438 7.44531C81.1875 6.85156 80.2617 6.55469 79.0664 6.55469C77.957 6.55469 77.0898 6.80078 76.4648 7.29297C75.8477 7.77734 75.5391 8.45312 75.5391 9.32031C75.5391 10.0156 75.832 10.6055 76.418 11.0898C77.0117 11.5664 78.0156 12.0039 79.4297 12.4023C80.8516 12.8008 81.9609 13.2422 82.7578 13.7266C83.5625 14.2031 84.1562 14.7617 84.5391 15.4023C84.9297 16.043 85.125 16.7969 85.125 17.6641C85.125 19.0469 84.5859 20.1562 83.5078 20.9922C82.4297 21.8203 80.9883 22.2344 79.1836 22.2344C78.0117 22.2344 76.918 22.0117 75.9023 21.5664C74.8867 21.1133 74.1016 20.4961 73.5469 19.7148C73 18.9336 72.7266 18.0469 72.7266 17.0547H74.9883C74.9883 18.0859 75.3672 18.9023 76.125 19.5039C76.8906 20.0977 77.9102 20.3945 79.1836 20.3945C80.3711 20.3945 81.2812 20.1523 81.9141 19.668C82.5469 19.1836 82.8633 18.5234 82.8633 17.6875C82.8633 16.8516 82.5703 16.207 81.9844 15.7539C81.3984 15.293 80.3359 14.8398 78.7969 14.3945ZM95.5078 22C95.3828 21.75 95.2812 21.3047 95.2031 20.6641C94.1953 21.7109 92.9922 22.2344 91.5938 22.2344C90.3438 22.2344 89.3164 21.8828 88.5117 21.1797C87.7148 20.4688 87.3164 19.5703 87.3164 18.4844C87.3164 17.1641 87.8164 16.1406 88.8164 15.4141C89.8242 14.6797 91.2383 14.3125 93.0586 14.3125H95.168V13.3164C95.168 12.5586 94.9414 11.957 94.4883 11.5117C94.0352 11.0586 93.3672 10.832 92.4844 10.832C91.7109 10.832 91.0625 11.0273 90.5391 11.418C90.0156 11.8086 89.7539 12.2812 89.7539 12.8359H87.5742C87.5742 12.2031 87.7969 11.5938 88.2422 11.0078C88.6953 10.4141 89.3047 9.94531 90.0703 9.60156C90.8438 9.25781 91.6914 9.08594 92.6133 9.08594C94.0742 9.08594 95.2188 9.45312 96.0469 10.1875C96.875 10.9141 97.3047 11.918 97.3359 13.1992V19.0352C97.3359 20.1992 97.4844 21.125 97.7812 21.8125V22H95.5078ZM91.9102 20.3477C92.5898 20.3477 93.2344 20.1719 93.8438 19.8203C94.4531 19.4688 94.8945 19.0117 95.168 18.4492V15.8477H93.4688C90.8125 15.8477 89.4844 16.625 89.4844 18.1797C89.4844 18.8594 89.7109 19.3906 90.1641 19.7734C90.6172 20.1562 91.1992 20.3477 91.9102 20.3477ZM102.902 10.8555C103.863 9.67578 105.113 9.08594 106.652 9.08594C109.332 9.08594 110.684 10.5977 110.707 13.6211V22H108.539V13.6094C108.531 12.6953 108.32 12.0195 107.906 11.582C107.5 11.1445 106.863 10.9258 105.996 10.9258C105.293 10.9258 104.676 11.1133 104.145 11.4883C103.613 11.8633 103.199 12.3555 102.902 12.9648V22H100.734V4H102.902V10.8555ZM121.781 22C121.656 21.75 121.555 21.3047 121.477 20.6641C120.469 21.7109 119.266 22.2344 117.867 22.2344C116.617 22.2344 115.59 21.8828 114.785 21.1797C113.988 20.4688 113.59 19.5703 113.59 18.4844C113.59 17.1641 114.09 16.1406 115.09 15.4141C116.098 14.6797 117.512 14.3125 119.332 14.3125H121.441V13.3164C121.441 12.5586 121.215 11.957 120.762 11.5117C120.309 11.0586 119.641 10.832 118.758 10.832C117.984 10.832 117.336 11.0273 116.812 11.418C116.289 11.8086 116.027 12.2812 116.027 12.8359H113.848C113.848 12.2031 114.07 11.5938 114.516 11.0078C114.969 10.4141 115.578 9.94531 116.344 9.60156C117.117 9.25781 117.965 9.08594 118.887 9.08594C120.348 9.08594 121.492 9.45312 122.32 10.1875C123.148 10.9141 123.578 11.918 123.609 13.1992V19.0352C123.609 20.1992 123.758 21.125 124.055 21.8125V22H121.781ZM118.184 20.3477C118.863 20.3477 119.508 20.1719 120.117 19.8203C120.727 19.4688 121.168 19.0117 121.441 18.4492V15.8477H119.742C117.086 15.8477 115.758 16.625 115.758 18.1797C115.758 18.8594 115.984 19.3906 116.438 19.7734C116.891 20.1562 117.473 20.3477 118.184 20.3477ZM137.742 15.8008C137.742 17.7383 137.297 19.2969 136.406 20.4766C135.516 21.6484 134.32 22.2344 132.82 22.2344C131.219 22.2344 129.98 21.668 129.105 20.5352L129 22H127.008V4H129.176V10.7148C130.051 9.62891 131.258 9.08594 132.797 9.08594C134.336 9.08594 135.543 9.66797 136.418 10.832C137.301 11.9961 137.742 13.5898 137.742 15.6133V15.8008ZM135.574 15.5547C135.574 14.0781 135.289 12.9375 134.719 12.1328C134.148 11.3281 133.328 10.9258 132.258 10.9258C130.828 10.9258 129.801 11.5898 129.176 12.918V18.4023C129.84 19.7305 130.875 20.3945 132.281 20.3945C133.32 20.3945 134.129 19.9922 134.707 19.1875C135.285 18.3828 135.574 17.1719 135.574 15.5547Z" fill="#4DADBD"/>
</svg>
