<svg width="686" height="455" viewBox="0 0 686 455" fill="none" xmlns="http://www.w3.org/2000/svg">
<path d="M209.966 211.006H121.663V307.849H209.966V211.006Z" fill="#CCCCCC"/>
<path d="M76.7089 453.506H31.7546L26.9381 415.714H81.5254L76.7089 453.506Z" fill="#E6E6E6"/>
<path d="M166.979 426.132L165.462 446.473C165.393 447.394 165.526 448.318 165.851 449.185C166.177 450.051 166.687 450.839 167.349 451.496C168.01 452.153 168.807 452.663 169.686 452.993C170.565 453.323 171.506 453.465 172.446 453.409L183.098 452.776C183.592 452.747 184.073 452.611 184.507 452.379C184.941 452.147 185.317 451.823 185.61 451.432C185.902 451.041 186.103 450.592 186.198 450.116C186.294 449.64 186.281 449.149 186.161 448.679L180.248 425.481L166.979 426.132Z" fill="#E6E6E6"/>
<path d="M256.081 438.161C268.618 441.037 277.574 445.126 283.458 450.659C285.553 452.615 288.294 453.767 291.183 453.907C294.873 454.097 297.89 453.692 300.157 452.698H300.158C300.738 452.447 301.24 452.048 301.611 451.543C301.981 451.037 302.207 450.444 302.265 449.824C302.333 449.194 302.229 448.558 301.962 447.981C301.696 447.404 301.277 446.908 300.749 446.543L271.015 425.793L258.385 430.749L255.439 433.639C255.12 433.951 254.879 434.333 254.736 434.752C254.592 435.172 254.55 435.618 254.612 436.056C254.675 436.495 254.84 436.913 255.095 437.278C255.349 437.643 255.687 437.945 256.081 438.161H256.081Z" fill="#E6E6E6"/>
<path d="M217.499 106.05L132.508 105.278C132.722 93.1369 135.602 81.2145 141.898 70.5457C146.033 63.5388 145.943 55.9133 144.947 49.4889C143.409 39.5747 146.985 29.4311 154.931 23.12C161.003 18.2886 168.667 15.8016 176.479 16.1274L178.129 16.1948C183.505 16.4139 188.738 17.9541 193.349 20.6738C197.959 23.3935 201.799 27.2057 204.516 31.7604C207.278 36.6226 208.391 42.2201 207.696 47.7439C207.158 52.9413 208.447 58.1917 211.462 63.4921C216.664 75.131 217.79 90.0244 217.499 106.05Z" fill="#2F2E41"/>
<path d="M274.362 426.876L257.681 431.143L176.456 257.586L181.532 426.876H164.852C147.028 347.229 114.848 255.309 129.316 226.289L215.618 221.31L274.362 426.876Z" fill="#396F78"/>
<path d="M175.73 76.9159C188.147 76.9159 198.213 67.0437 198.213 54.8656C198.213 42.6876 188.147 32.8153 175.73 32.8153C163.314 32.8153 153.248 42.6876 153.248 54.8656C153.248 67.0437 163.314 76.9159 175.73 76.9159Z" fill="#FFB9B9"/>
<path d="M195.312 95.4098L158.325 93.2759C161.95 85.1161 163.398 77.2586 161.951 69.803H189.51C189.447 75.5274 192.352 85.4296 195.312 95.4098Z" fill="#FFB9B9"/>
<path d="M218.519 227.711L137.294 233.402L145.633 92.209L159.776 88.2967L175.73 91.8531L191.685 84.0286L201.838 87.5858L218.519 227.711Z" fill="#396F78"/>
<path d="M151.073 329.427L95.5926 316.98C112.09 263.324 141.81 140.576 132.217 96.8323L161.226 84.0289L151.073 329.427Z" fill="#E6E6E6"/>
<path d="M124.239 174.364L103.208 161.561L121.144 110.038C123.144 104.721 126.976 100.257 131.976 97.4181L138.019 93.9872L134.392 145.912L124.239 174.364Z" fill="#E6E6E6"/>
<path d="M266.747 317.691C249.236 327.627 205.465 333.166 186.246 326.227C184.832 277.748 182.059 140.621 190.96 82.6063L222.87 95.4097L219.969 133.82C204.714 166.678 249.013 281.122 266.747 317.691Z" fill="#E6E6E6"/>
<path d="M264.209 167.963L244.627 161.561L218.519 132.397L222.871 95.4095L266.384 155.159L264.209 167.963Z" fill="#E6E6E6"/>
<path d="M202.841 195.648C203.162 197.027 204.026 198.226 205.246 198.98C206.466 199.735 207.941 199.984 209.348 199.674L225.97 195.982L223.567 185.576L206.945 189.267C205.538 189.58 204.315 190.428 203.546 191.624C202.776 192.821 202.523 194.268 202.841 195.648Z" fill="#FFB9B9"/>
<path d="M195.312 49.1752C182.824 44.139 170.491 43.7746 158.325 48.4639L153.248 30.6814H199.663L195.312 49.1752Z" fill="#2F2E41"/>
<path d="M217.794 183.611L227.222 200.682C243.079 196.344 256.823 182.669 270.01 166.54L266.384 155.159L243.902 160.849L217.794 183.611Z" fill="#E6E6E6"/>
<path d="M210.904 148.402H208.003C208.003 108.16 199.555 80.1168 191.323 80.1168L190.598 77.2716C197.981 77.2716 202.688 88.9431 205.336 98.7346C208.927 112.009 210.904 129.647 210.904 148.402Z" fill="#3F3D56"/>
<path d="M144.183 138.443H141.282C141.282 101.589 149.788 78.6942 162.314 78.6942L161.588 81.5394C152.925 81.5394 144.183 99.1347 144.183 138.443Z" fill="#3F3D56"/>
<path d="M209.454 156.226C213.459 156.226 216.706 153.041 216.706 149.113C216.706 145.184 213.459 142 209.454 142C205.448 142 202.201 145.184 202.201 149.113C202.201 153.041 205.448 156.226 209.454 156.226Z" fill="#3F3D56"/>
<path d="M132.579 155.515H129.678C129.678 145.317 135.534 137.021 142.733 137.021V139.866C137.134 139.866 132.579 146.886 132.579 155.515Z" fill="#3F3D56"/>
<path d="M155.787 155.515H152.886C152.886 146.886 148.331 139.866 142.733 139.866V137.021C149.931 137.021 155.787 145.317 155.787 155.515Z" fill="#3F3D56"/>
<path d="M154.336 159.071C155.938 159.071 157.237 157.797 157.237 156.226C157.237 154.654 155.938 153.381 154.336 153.381C152.734 153.381 151.435 154.654 151.435 156.226C151.435 157.797 152.734 159.071 154.336 159.071Z" fill="#3F3D56"/>
<path d="M131.129 159.071C132.731 159.071 134.03 157.797 134.03 156.226C134.03 154.654 132.731 153.381 131.129 153.381C129.527 153.381 128.228 154.654 128.228 156.226C128.228 157.797 129.527 159.071 131.129 159.071Z" fill="#3F3D56"/>
<path d="M94.8672 130.063L112.967 133.232L154.336 190.925L132.358 185.853L94.8672 130.063Z" fill="#396F78"/>
<path d="M91.657 129.356C91.3811 129.36 91.1115 129.437 90.8763 129.578C90.641 129.719 90.4488 129.92 90.3197 130.159C90.1906 130.398 90.1294 130.667 90.1424 130.937C90.1554 131.208 90.2423 131.469 90.3938 131.695L129.064 189.24C129.279 189.562 129.613 189.79 129.995 189.878L147.987 194.03C148.29 194.1 148.608 194.078 148.898 193.967C149.189 193.855 149.438 193.66 149.612 193.407C149.787 193.154 149.879 192.855 149.876 192.549C149.873 192.243 149.775 191.946 149.596 191.696L107.139 132.487C107.024 132.325 106.877 132.188 106.708 132.082C106.539 131.976 106.35 131.904 106.152 131.87L91.947 129.382C91.8513 129.365 91.7542 129.356 91.657 129.356Z" fill="#3F3D56"/>
<path d="M115.779 170.5L116.854 181.118L133.813 179.467C135.249 179.327 136.569 178.633 137.483 177.539C138.398 176.445 138.831 175.039 138.689 173.631C138.546 172.223 137.84 170.928 136.724 170.031C135.608 169.135 134.175 168.709 132.739 168.849L115.779 170.5Z" fill="#FFB9B9"/>
<path d="M101.032 169.27C101.057 172.891 102.539 176.355 105.157 178.908C107.774 181.461 111.314 182.895 115.005 182.9H117.794L119.824 166.306L103.015 160.371L101.032 169.27Z" fill="#E6E6E6"/>
<path d="M686 0H355.265V170.852H686V0Z" fill="#E6E6E6"/>
<path d="M364.898 161.404H676.367V9.448H364.898V161.404Z" fill="white"/>
<path d="M499.761 31.4935H388.98V140.146H499.761V31.4935Z" fill="#3F3D56"/>
<path d="M473.27 81.0957C475.043 81.0957 476.481 79.6857 476.481 77.9464C476.481 76.207 475.043 74.797 473.27 74.797C471.496 74.797 470.059 76.207 470.059 77.9464C470.059 79.6857 471.496 81.0957 473.27 81.0957Z" fill="#396F78"/>
<path d="M461.228 70.073C463.002 70.073 464.439 68.663 464.439 66.9236C464.439 65.1843 463.002 63.7743 461.228 63.7743C459.455 63.7743 458.017 65.1843 458.017 66.9236C458.017 68.663 459.455 70.073 461.228 70.073Z" fill="#396F78"/>
<path d="M459.623 77.9464C458.441 77.9466 457.283 78.2685 456.277 78.8763C455.391 77.5694 454.35 76.3705 453.175 75.305C453.188 75.137 453.201 74.9686 453.201 74.7971C453.202 73.5613 452.832 72.3525 452.137 71.3215C451.442 70.2906 450.453 69.4831 449.293 68.9998C448.134 68.5164 446.855 68.3786 445.616 68.6035C444.377 68.8284 443.233 69.4061 442.326 70.2645C440.606 70.0251 438.862 70.0102 437.138 70.2201C437.139 70.1707 437.146 70.1227 437.146 70.0731C437.147 69.0188 436.879 67.981 436.365 67.0549C435.851 66.1289 435.109 65.3441 434.205 64.7725C433.302 64.2009 432.267 63.8608 431.195 63.7835C430.123 63.7061 429.048 63.8939 428.07 64.3296C427.091 64.7653 426.239 65.4351 425.593 66.2774C424.946 67.1198 424.526 68.1078 424.37 69.1509C424.214 70.1941 424.327 71.2589 424.7 72.2479C425.072 73.2368 425.692 74.1183 426.502 74.8114C425.427 75.7146 424.451 76.7263 423.592 77.8297C422.8 77.1827 421.86 76.7325 420.852 76.5172C419.844 76.3018 418.799 76.3276 417.804 76.5924C416.808 76.8572 415.893 77.3532 415.134 78.0384C414.376 78.7237 413.797 79.578 413.446 80.5291C413.095 81.4803 412.983 82.5003 413.119 83.5029C413.256 84.5055 413.636 85.4611 414.228 86.289C414.821 87.1169 415.608 87.7927 416.523 88.2592C417.438 88.7257 418.454 88.9692 419.485 88.9692L419.505 88.9682C419.495 89.23 419.485 89.4921 419.485 89.7565C419.485 91.3413 419.68 92.9203 420.066 94.4593C418.157 95.1636 416.463 96.3321 415.141 97.855C413.819 99.3778 412.913 101.205 412.508 103.165C412.103 105.126 412.213 107.155 412.827 109.062C413.441 110.969 414.539 112.692 416.018 114.07C417.497 115.447 419.308 116.433 421.282 116.935C423.256 117.437 425.328 117.439 427.303 116.941C429.278 116.443 431.091 115.461 432.573 114.087C434.055 112.713 435.157 110.993 435.775 109.087C440.242 109.929 444.868 109.256 448.894 107.178C449.305 108.127 449.947 108.963 450.764 109.611C451.582 110.26 452.549 110.702 453.581 110.899C454.613 111.096 455.678 111.041 456.684 110.739C457.689 110.438 458.604 109.899 459.347 109.17C460.091 108.44 460.64 107.543 460.948 106.557C461.255 105.571 461.311 104.526 461.111 103.514C460.91 102.502 460.459 101.553 459.798 100.752C459.136 99.9502 458.284 99.3202 457.317 98.9171C458.707 96.3284 459.488 93.4668 459.603 90.5429L459.623 90.5439C461.326 90.5439 462.96 89.8803 464.164 88.699C465.368 87.5178 466.045 85.9157 466.045 84.2452C466.045 82.5746 465.368 80.9725 464.164 79.7913C462.96 78.6101 461.326 77.9465 459.623 77.9465V77.9464Z" fill="#396F78"/>
<path d="M458.017 29.1315H425.907V33.8555H458.017V29.1315Z" fill="#E6E6E6"/>
<path d="M641.046 31.4935H530.265V140.146H641.046V31.4935Z" fill="#3F3D56"/>
<path d="M606.688 105.188C607.486 105.188 608.133 104.554 608.133 103.771C608.133 102.988 607.486 102.354 606.688 102.354C605.89 102.354 605.243 102.988 605.243 103.771C605.243 104.554 605.89 105.188 606.688 105.188Z" fill="#396F78"/>
<path d="M601.269 100.228C602.067 100.228 602.714 99.5936 602.714 98.8109C602.714 98.0282 602.067 97.3937 601.269 97.3937C600.471 97.3937 599.824 98.0282 599.824 98.8109C599.824 99.5936 600.471 100.228 601.269 100.228Z" fill="#396F78"/>
<path d="M600.547 103.771C600.015 103.771 599.494 103.916 599.041 104.19C598.642 103.601 598.174 103.062 597.645 102.582C597.651 102.507 597.657 102.431 597.657 102.354C597.657 101.798 597.491 101.254 597.178 100.79C596.865 100.326 596.42 99.9626 595.898 99.7451C595.377 99.5276 594.801 99.4655 594.243 99.5668C593.686 99.668 593.171 99.9279 592.763 100.314C591.989 100.206 591.204 100.2 590.429 100.294C590.429 100.272 590.432 100.25 590.432 100.228C590.433 99.7537 590.312 99.2867 590.081 98.8699C589.849 98.4532 589.515 98.1 589.109 97.8428C588.702 97.5856 588.237 97.4326 587.754 97.3978C587.272 97.363 586.788 97.4475 586.348 97.6435C585.907 97.8396 585.524 98.141 585.233 98.5201C584.942 98.8991 584.753 99.3437 584.683 99.8131C584.613 100.283 584.664 100.762 584.831 101.207C584.999 101.652 585.278 102.048 585.642 102.36C585.158 102.767 584.719 103.222 584.333 103.719C583.976 103.427 583.553 103.225 583.1 103.128C582.646 103.031 582.176 103.043 581.728 103.162C581.28 103.281 580.868 103.504 580.527 103.813C580.185 104.121 579.925 104.505 579.767 104.933C579.609 105.361 579.559 105.82 579.62 106.272C579.681 106.723 579.853 107.153 580.119 107.525C580.386 107.898 580.74 108.202 581.152 108.412C581.563 108.622 582.021 108.731 582.485 108.731L582.494 108.731C582.489 108.849 582.485 108.967 582.485 109.086C582.485 109.799 582.573 110.509 582.746 111.202C581.887 111.519 581.125 112.045 580.53 112.73C579.935 113.415 579.527 114.238 579.345 115.12C579.163 116.002 579.212 116.915 579.488 117.773C579.765 118.631 580.259 119.407 580.924 120.026C581.59 120.646 582.405 121.09 583.293 121.316C584.182 121.542 585.114 121.543 586.003 121.319C586.891 121.095 587.707 120.653 588.374 120.034C589.041 119.416 589.537 118.642 589.815 117.784C591.825 118.163 593.907 117.86 595.719 116.925C595.904 117.352 596.193 117.728 596.56 118.02C596.928 118.312 597.363 118.511 597.828 118.6C598.292 118.688 598.772 118.664 599.224 118.528C599.677 118.392 600.088 118.15 600.423 117.822C600.757 117.493 601.004 117.09 601.143 116.646C601.281 116.202 601.306 115.732 601.216 115.276C601.126 114.821 600.923 114.394 600.625 114.033C600.328 113.673 599.944 113.389 599.509 113.208C600.135 112.043 600.486 110.755 600.538 109.439L600.547 109.44C601.313 109.44 602.048 109.141 602.59 108.61C603.132 108.078 603.437 107.357 603.437 106.606C603.437 105.854 603.132 105.133 602.59 104.601C602.048 104.07 601.313 103.771 600.547 103.771V103.771Z" fill="#396F78"/>
<path d="M618.024 78.2941C618.822 78.2941 619.469 77.6596 619.469 76.8769C619.469 76.0942 618.822 75.4597 618.024 75.4597C617.226 75.4597 616.579 76.0942 616.579 76.8769C616.579 77.6596 617.226 78.2941 618.024 78.2941Z" fill="#396F78"/>
<path d="M621.423 71.834C622.221 71.834 622.868 71.1995 622.868 70.4168C622.868 69.6341 622.221 68.9996 621.423 68.9996C620.625 68.9996 619.978 69.6341 619.978 70.4168C619.978 71.1995 620.625 71.834 621.423 71.834Z" fill="#396F78"/>
<path d="M616.36 71.0793C616.215 70.5774 615.932 70.1246 615.541 69.7714C616.01 69.2355 616.412 68.6468 616.739 68.0177C616.815 68.003 616.891 67.9878 616.967 67.9669C617.513 67.8165 618.002 67.5118 618.372 67.0909C618.743 66.6699 618.979 66.1513 619.051 65.5997C619.123 65.0481 619.028 64.4878 618.777 63.9889C618.527 63.49 618.132 63.0744 617.642 62.794C617.538 62.0342 617.332 61.2913 617.029 60.5846C617.051 60.5791 617.073 60.5759 617.095 60.5699C617.561 60.4419 617.986 60.2012 618.332 59.87C618.679 59.5388 618.935 59.1276 619.077 58.6741C619.219 58.2207 619.243 57.7395 619.147 57.2746C619.05 56.8097 618.836 56.3761 618.524 56.0134C618.212 55.6507 617.813 55.3706 617.362 55.1987C616.911 55.0269 616.423 54.9688 615.944 55.0297C615.464 55.0907 615.007 55.2688 614.616 55.5476C614.225 55.8265 613.911 56.1973 613.704 56.6259C613.174 56.2794 612.608 55.9885 612.016 55.7581C612.205 55.3424 612.289 54.8882 612.261 54.4339C612.233 53.9795 612.095 53.5385 611.856 53.1479C611.618 52.7574 611.287 52.4289 610.892 52.1903C610.497 51.9516 610.049 51.8098 609.586 51.7768C609.123 51.7439 608.659 51.8208 608.233 52.0009C607.807 52.1811 607.431 52.4593 607.138 52.8119C606.844 53.1646 606.642 53.5814 606.547 54.027C606.453 54.4726 606.469 54.934 606.595 55.3721L606.598 55.3806C606.481 55.4081 606.364 55.4359 606.248 55.4682C605.548 55.6616 604.874 55.937 604.242 56.2886C603.698 55.5636 602.975 54.9861 602.141 54.6103C601.307 54.2344 600.39 54.0725 599.475 54.1397C598.56 54.2069 597.677 54.501 596.909 54.9945C596.142 55.488 595.515 56.1646 595.087 56.9609C594.659 57.7571 594.445 58.647 594.464 59.5468C594.483 60.4467 594.735 61.327 595.195 62.1053C595.656 62.8836 596.311 63.5343 597.099 63.9963C597.886 64.4583 598.781 64.7164 599.698 64.7465C599.871 66.747 600.732 68.6303 602.141 70.087C601.772 70.3774 601.481 70.7522 601.295 71.1785C601.108 71.6048 601.03 72.0696 601.069 72.5321C601.108 72.9945 601.263 73.4405 601.519 73.8308C601.774 74.2212 602.124 74.544 602.537 74.7709C602.949 74.9978 603.413 75.1218 603.886 75.1321C604.359 75.1425 604.827 75.0387 605.25 74.8301C605.672 74.6214 606.036 74.3142 606.309 73.9354C606.583 73.5566 606.757 73.1178 606.817 72.6575C608.13 72.9326 609.489 72.9154 610.794 72.6072L610.796 72.6159C610.899 72.9745 611.072 73.3097 611.307 73.6023C611.542 73.895 611.833 74.1394 612.164 74.3216C612.496 74.5038 612.86 74.6202 613.237 74.6642C613.614 74.7082 613.996 74.6789 614.362 74.5779C614.727 74.477 615.069 74.3064 615.367 74.0759C615.665 73.8454 615.914 73.5595 616.1 73.2346C616.285 72.9097 616.404 72.5521 616.448 72.1823C616.493 71.8125 616.463 71.4377 616.36 71.0793V71.0793Z" fill="#396F78"/>
<path d="M562.059 59.0357C562.857 59.0357 563.504 58.4012 563.504 57.6185C563.504 56.8358 562.857 56.2013 562.059 56.2013C561.261 56.2013 560.614 56.8358 560.614 57.6185C560.614 58.4012 561.261 59.0357 562.059 59.0357Z" fill="#396F78"/>
<path d="M554.67 59.6163C555.468 59.6163 556.115 58.9818 556.115 58.1991C556.115 57.4164 555.468 56.7819 554.67 56.7819C553.872 56.7819 553.225 57.4164 553.225 58.1991C553.225 58.9818 553.872 59.6163 554.67 59.6163Z" fill="#396F78"/>
<path d="M557.918 62.0667C557.56 62.4519 557.317 62.9271 557.218 63.4394C556.506 63.3317 555.784 63.3074 555.067 63.3671C555.014 63.3116 554.961 63.2565 554.903 63.2045C554.484 62.8292 553.962 62.5831 553.402 62.4968C552.842 62.4105 552.268 62.4878 551.753 62.7192C551.237 62.9505 550.802 63.3256 550.503 63.7977C550.203 64.2698 550.051 64.818 550.067 65.3739C549.464 65.8618 548.93 66.4259 548.478 67.0514C548.462 67.0361 548.448 67.0194 548.431 67.0044C548.074 66.6841 547.641 66.4567 547.171 66.3432C546.701 66.2297 546.21 66.2336 545.743 66.3546C545.275 66.4756 544.846 66.7098 544.494 67.0357C544.143 67.3617 543.88 67.7689 543.731 68.2202C543.581 68.6715 543.55 69.1522 543.639 69.6185C543.729 70.0848 543.936 70.5216 544.242 70.889C544.548 71.2563 544.943 71.5424 545.391 71.721C545.84 71.8997 546.326 71.9651 546.807 71.9114C546.787 72.5359 546.834 73.1607 546.947 73.7756C546.487 73.8377 546.049 74.0074 545.671 74.2705C545.292 74.5336 544.983 74.8822 544.771 75.287C544.559 75.6917 544.449 76.1407 544.451 76.5958C544.453 77.051 544.567 77.4989 544.783 77.9018C544.999 78.3047 545.311 78.6507 545.692 78.9104C546.073 79.1702 546.512 79.3362 546.972 79.3943C547.432 79.4524 547.9 79.4009 548.336 79.2442C548.772 79.0875 549.162 78.8302 549.475 78.494L549.481 78.4871C549.567 78.57 549.652 78.6527 549.742 78.7329C550.279 79.2136 550.873 79.6291 551.512 79.9704C551.171 80.8062 551.053 81.7132 551.168 82.6061C551.283 83.4991 551.627 84.3488 552.169 85.0754C552.71 85.8021 553.431 86.3819 554.263 86.7605C555.096 87.1391 556.013 87.304 556.928 87.2397C557.844 87.1755 558.727 86.8842 559.496 86.3932C560.265 85.9022 560.895 85.2276 561.325 84.4327C561.756 83.6379 561.973 82.7487 561.957 81.8488C561.941 80.9489 561.693 80.0677 561.234 79.288C562.875 78.0874 564.051 76.3752 564.568 74.4327C565.014 74.5867 565.492 74.6309 565.96 74.5614C566.428 74.4919 566.871 74.3108 567.251 74.0341C567.631 73.7573 567.935 73.3934 568.138 72.9741C568.341 72.5549 568.436 72.0933 568.414 71.6298C568.393 71.1662 568.256 70.7149 568.015 70.3155C567.774 69.9161 567.437 69.5808 567.033 69.3391C566.629 69.0973 566.171 68.9564 565.699 68.9289C565.226 68.9013 564.754 68.9879 564.324 69.181C563.869 67.9423 563.136 66.8195 562.18 65.8951L562.187 65.8888C562.443 65.614 562.642 65.2923 562.772 64.9421C562.901 64.592 562.959 64.2201 562.942 63.8479C562.925 63.4758 562.834 63.1105 562.673 62.7731C562.512 62.4357 562.284 62.1327 562.004 61.8815C561.723 61.6303 561.395 61.4358 561.038 61.3092C560.68 61.1825 560.301 61.1262 559.922 61.1434C559.542 61.1606 559.17 61.251 558.826 61.4094C558.483 61.5679 558.174 61.7912 557.918 62.0667Z" fill="#396F78"/>
<path d="M599.302 29.1315H567.192V33.8555H599.302V29.1315Z" fill="#E6E6E6"/>
<path d="M20.2105 401.733C31.786 416.937 55.8143 418.538 55.8143 418.538C55.8143 418.538 61.0752 395.487 49.4997 380.283C37.9243 365.079 13.8959 363.478 13.8959 363.478C13.8959 363.478 8.63505 386.529 20.2105 401.733Z" fill="#E6E6E6"/>
<path d="M79.1783 407.449C71.54 417.482 55.6844 418.538 55.6844 418.538C55.6844 418.538 52.2129 403.328 59.8512 393.295C67.4895 383.262 83.3451 382.206 83.3451 382.206C83.3451 382.206 86.8166 397.416 79.1783 407.449Z" fill="#E6E6E6"/>
<path d="M417.077 453.236H0V455H417.077V453.236Z" fill="#3F3D56"/>
</svg>
