<svg width="28" height="28" viewBox="0 0 28 28" fill="none" xmlns="http://www.w3.org/2000/svg">
<path fill-rule="evenodd" clip-rule="evenodd" d="M18.3 15.1171L14.5106 17.3046L16.5523 20.8408L20.341 18.6532C20.8061 18.3806 21.1445 17.935 21.2823 17.4138C21.4201 16.8926 21.3462 16.338 21.0766 15.8711C20.807 15.4042 20.3637 15.0629 19.8434 14.9216C19.3231 14.7803 18.768 14.8506 18.2994 15.1171H18.3ZM17.135 21.8517L20.9238 19.6642C21.6547 19.2357 22.1864 18.5355 22.4029 17.7164C22.6195 16.8974 22.5033 16.0259 22.0797 15.2922C21.656 14.5585 20.9594 14.0221 20.1418 13.8001C19.3242 13.5782 18.452 13.6886 17.7155 14.1073L13.9267 16.2948C13.888 16.2278 13.8243 16.179 13.7496 16.1589C13.6749 16.1389 13.5953 16.1494 13.5283 16.1881L9.23495 18.6667C8.83369 18.8948 8.48152 19.2001 8.19871 19.5649C7.91591 19.9297 7.70805 20.3468 7.58711 20.7922C7.46618 21.2377 7.43454 21.7027 7.49404 22.1604C7.55353 22.6181 7.70298 23.0596 7.93378 23.4593C8.16457 23.859 8.47216 24.2092 8.83882 24.4896C9.20549 24.7699 9.62399 24.975 10.0702 25.093C10.5165 25.211 10.9817 25.2395 11.439 25.177C11.8963 25.1145 12.3368 24.9621 12.735 24.7287L17.0289 22.2495C17.0959 22.2108 17.1447 22.1471 17.1648 22.0724C17.1848 21.9977 17.1743 21.9181 17.1356 21.8511L17.135 21.8517ZM11.6535 18.5045L9.46945 19.7528C8.59037 20.2545 8.20012 21.2777 8.44278 22.2098C8.52328 22.5219 8.88845 22.6193 9.16845 22.4595C9.30845 22.3796 9.35337 22.2017 9.30553 22.0477C9.12703 21.469 9.3627 20.8209 9.90345 20.5123L12.0875 19.264C12.1853 19.205 12.2561 19.1101 12.2849 18.9995C12.3136 18.8889 12.298 18.7715 12.2413 18.6723C12.1846 18.5731 12.0914 18.5001 11.9816 18.4687C11.8717 18.4373 11.754 18.4502 11.6535 18.5045Z" fill="#396F78"/>
<path fill-rule="evenodd" clip-rule="evenodd" d="M13.5679 16.8385L11.7888 17.8658C12.0202 17.847 12.2512 17.9077 12.4434 18.0379C12.6357 18.1681 12.7779 18.3599 12.8465 18.5818C12.9151 18.8036 12.906 19.0422 12.8207 19.2582C12.7354 19.4742 12.579 19.6546 12.3774 19.7698L10.1934 21.0181C9.89995 21.1855 9.7617 21.5466 9.86378 21.875C9.96878 22.2133 9.89878 22.7138 9.45837 22.9653C9.32286 23.0435 9.17265 23.0929 9.01717 23.1103C8.86168 23.1278 8.70427 23.113 8.55478 23.0668C8.49011 23.0462 8.42759 23.0195 8.36812 22.9868C8.54456 23.3449 8.79261 23.6629 9.09693 23.9212C9.40124 24.1795 9.75534 24.3726 10.1373 24.4885C10.5193 24.6045 10.9209 24.6408 11.3175 24.5952C11.714 24.5496 12.097 24.4231 12.4427 24.2235L16.4846 21.8902L13.5679 16.8385ZM14.5106 17.3052L18.2994 15.1177C18.7676 14.8579 19.3191 14.7924 19.8351 14.9353C20.3511 15.0783 20.7903 15.4182 21.0581 15.8819C21.3258 16.3456 21.4007 16.8959 21.2666 17.4143C21.1325 17.9327 20.8001 18.3776 20.341 18.6533L16.5523 20.8408L14.5106 17.3046V17.3052ZM17.1356 21.8511L20.9244 19.6636C21.6552 19.2351 22.187 18.5349 22.4035 17.7159C22.6201 16.8968 22.5039 16.0253 22.0802 15.2916C21.6566 14.5579 20.96 14.0215 20.1424 13.7996C19.3248 13.5776 18.4525 13.688 17.716 14.1068L13.9273 16.2943C13.8886 16.2273 13.8249 16.1784 13.7502 16.1584C13.6755 16.1383 13.5959 16.1488 13.5289 16.1875L9.23495 18.6667C8.83369 18.8948 8.48152 19.2001 8.19871 19.5649C7.91591 19.9297 7.70805 20.3468 7.58711 20.7922C7.46618 21.2377 7.43454 21.7027 7.49404 22.1604C7.55353 22.6181 7.70298 23.0596 7.93378 23.4593C8.16457 23.8591 8.47216 24.2092 8.83882 24.4896C9.20549 24.77 9.62399 24.975 10.0702 25.093C10.5165 25.211 10.9817 25.2395 11.439 25.177C11.8963 25.1145 12.3368 24.9621 12.7349 24.7287L17.0289 22.2495C17.0959 22.2108 17.1447 22.1471 17.1648 22.0724C17.1848 21.9977 17.1743 21.9181 17.1356 21.8511ZM9.47003 19.7517L11.654 18.5033C11.7548 18.4458 11.8744 18.4306 11.9863 18.4612C12.0983 18.4918 12.1935 18.5656 12.2511 18.6664C12.3086 18.7672 12.3238 18.8867 12.2932 18.9987C12.2626 19.1106 12.1888 19.2059 12.088 19.2634L9.90403 20.5118C9.36328 20.8203 9.12762 21.4684 9.30612 22.0471C9.35395 22.2011 9.30903 22.379 9.16903 22.4589C8.88903 22.6188 8.52387 22.5213 8.44278 22.2093C8.2007 21.2771 8.59095 20.2539 9.46945 19.7517H9.47003Z" fill="#396F78"/>
<path d="M22.9869 10.3332C23.0148 10.3622 23.0487 10.3848 23.0863 10.3994C23.1238 10.414 23.1641 10.4203 23.2043 10.4177C23.2445 10.4152 23.2837 10.4039 23.3191 10.3846C23.3545 10.3654 23.3852 10.3387 23.4093 10.3063C24.0552 9.4072 24.3605 8.30775 24.2707 7.2043C24.1809 6.10086 23.7019 5.06524 22.9191 4.28237C22.1363 3.4995 21.1007 3.02034 19.9973 2.93046C18.8938 2.84057 17.7944 3.1458 16.8952 3.79166C16.8628 3.81566 16.8361 3.84644 16.8168 3.88183C16.7976 3.91723 16.7863 3.95639 16.7838 3.9966C16.7812 4.0368 16.7875 4.07708 16.8021 4.11463C16.8167 4.15217 16.8393 4.18608 16.8683 4.21399L22.9869 10.3332Z" fill="#396F78"/>
<path d="M16.2504 4.83348C16.2225 4.80443 16.1885 4.78181 16.151 4.76721C16.1135 4.7526 16.0732 4.74636 16.033 4.74891C15.9928 4.75146 15.9536 4.76275 15.9182 4.782C15.8828 4.80124 15.852 4.82796 15.828 4.86032C15.1821 5.75944 14.8768 6.85889 14.9666 7.96233C15.0563 9.06578 15.5354 10.1014 16.3182 10.8843C17.101 11.6671 18.1366 12.1463 19.24 12.2362C20.3435 12.3261 21.4429 12.0208 22.3421 11.375C22.3745 11.351 22.4012 11.3202 22.4204 11.2848C22.4397 11.2494 22.451 11.2102 22.4535 11.17C22.4561 11.1298 22.4498 11.0896 22.4352 11.052C22.4206 11.0145 22.398 10.9806 22.369 10.9526L16.2504 4.83348Z" fill="#396F78"/>
<path d="M7.7278 5.5189C8.21955 4.6929 9.44279 4.78273 9.80913 5.67173L12.671 12.6233C12.7466 12.8072 12.7741 13.0073 12.7507 13.2048C12.7273 13.4022 12.6538 13.5904 12.5372 13.7515C12.4206 13.9126 12.2648 14.0412 12.0845 14.1251C11.9042 14.209 11.7055 14.2455 11.5072 14.231L4.80005 13.7398C4.60169 13.7253 4.41034 13.6602 4.24419 13.5509C4.07803 13.4416 3.94258 13.2916 3.8507 13.1152C3.75882 12.9388 3.71356 12.7419 3.71922 12.5431C3.72488 12.3443 3.78128 12.1502 3.88305 11.9793L7.72721 5.51831L7.7278 5.5189Z" fill="#396F78"/>
</svg>
