<svg width="30" height="29" viewBox="0 0 30 29" fill="none" xmlns="http://www.w3.org/2000/svg">
<path d="M22.0833 7.08336H7.91659C7.54086 7.08336 7.18053 7.23262 6.91485 7.4983C6.64917 7.76397 6.49992 8.12431 6.49992 8.50003C6.49992 8.87575 6.64917 9.23609 6.91485 9.50176C7.18053 9.76744 7.54086 9.9167 7.91659 9.9167H22.0833C22.459 9.9167 22.8193 9.76744 23.085 9.50176C23.3507 9.23609 23.4999 8.87575 23.4999 8.50003C23.4999 8.12431 23.3507 7.76397 23.085 7.4983C22.8193 7.23262 22.459 7.08336 22.0833 7.08336ZM22.0833 12.75H7.91659C7.54086 12.75 7.18053 12.8993 6.91485 13.165C6.64917 13.4306 6.49992 13.791 6.49992 14.1667C6.49992 14.5424 6.64917 14.9028 6.91485 15.1684C7.18053 15.4341 7.54086 15.5834 7.91659 15.5834H22.0833C22.459 15.5834 22.8193 15.4341 23.085 15.1684C23.3507 14.9028 23.4999 14.5424 23.4999 14.1667C23.4999 13.791 23.3507 13.4306 23.085 13.165C22.8193 12.8993 22.459 12.75 22.0833 12.75ZM24.9166 3.05176e-05H5.08325C3.95608 3.05176e-05 2.87508 0.447797 2.07805 1.24483C1.28102 2.04186 0.833252 3.12286 0.833252 4.25003V18.4167C0.833252 19.5439 1.28102 20.6249 2.07805 21.4219C2.87508 22.2189 3.95608 22.6667 5.08325 22.6667H21.5024L26.7441 27.9225C26.8765 28.0538 27.0334 28.1577 27.2061 28.2282C27.3787 28.2987 27.5635 28.3344 27.7499 28.3334C27.9358 28.3382 28.1201 28.2993 28.2883 28.22C28.547 28.1138 28.7684 27.9333 28.9247 27.7013C29.081 27.4694 29.1652 27.1964 29.1666 26.9167V4.25003C29.1666 3.12286 28.7188 2.04186 27.9218 1.24483C27.1248 0.447797 26.0438 3.05176e-05 24.9166 3.05176e-05ZM26.3333 23.5025L23.0891 20.2442C22.9567 20.1129 22.7997 20.009 22.6271 19.9385C22.4545 19.868 22.2697 19.8323 22.0833 19.8334H5.08325C4.70753 19.8334 4.34719 19.6841 4.08152 19.4184C3.81584 19.1528 3.66659 18.7924 3.66659 18.4167V4.25003C3.66659 3.87431 3.81584 3.51397 4.08152 3.2483C4.34719 2.98262 4.70753 2.83336 5.08325 2.83336H24.9166C25.2923 2.83336 25.6526 2.98262 25.9183 3.2483C26.184 3.51397 26.3333 3.87431 26.3333 4.25003V23.5025Z" fill="#4DADBD"/>
</svg>
