<svg width="34" height="34" viewBox="0 0 34 34" fill="none" xmlns="http://www.w3.org/2000/svg">
<path d="M25.5001 18.6717V14.1667C25.498 12.1594 24.7857 10.2177 23.4893 8.68527C22.1928 7.15287 20.3959 6.12872 18.4167 5.79418V4.25001C18.4167 3.87429 18.2675 3.51395 18.0018 3.24828C17.7361 2.9826 17.3758 2.83334 17.0001 2.83334C16.6244 2.83334 16.264 2.9826 15.9983 3.24828C15.7327 3.51395 15.5834 3.87429 15.5834 4.25001V5.79418C13.6042 6.12872 11.8073 7.15287 10.5109 8.68527C9.21443 10.2177 8.50212 12.1594 8.50008 14.1667V18.6717C7.67339 18.964 6.95733 19.5048 6.45008 20.22C5.94283 20.9352 5.66921 21.7898 5.66675 22.6667V25.5C5.66675 25.8757 5.816 26.2361 6.08168 26.5017C6.34736 26.7674 6.70769 26.9167 7.08341 26.9167H11.5317C11.858 28.1171 12.5702 29.1769 13.5584 29.9324C14.5467 30.6879 15.7561 31.0973 17.0001 31.0973C18.2441 31.0973 19.4535 30.6879 20.4417 29.9324C21.43 29.1769 22.1422 28.1171 22.4684 26.9167H26.9167C27.2925 26.9167 27.6528 26.7674 27.9185 26.5017C28.1842 26.2361 28.3334 25.8757 28.3334 25.5V22.6667C28.3309 21.7898 28.0573 20.9352 27.5501 20.22C27.0428 19.5048 26.3268 18.964 25.5001 18.6717ZM11.3334 14.1667C11.3334 12.6638 11.9304 11.2224 12.9931 10.1597C14.0558 9.09703 15.4972 8.50001 17.0001 8.50001C18.503 8.50001 19.9443 9.09703 21.007 10.1597C22.0697 11.2224 22.6667 12.6638 22.6667 14.1667V18.4167H11.3334V14.1667ZM17.0001 28.3333C16.5056 28.3304 16.0206 28.198 15.5931 27.9495C15.1656 27.701 14.8106 27.3449 14.5634 26.9167H19.4367C19.1895 27.3449 18.8345 27.701 18.4071 27.9495C17.9796 28.198 17.4945 28.3304 17.0001 28.3333ZM25.5001 24.0833H8.50008V22.6667C8.50008 22.291 8.64934 21.9306 8.91501 21.6649C9.18069 21.3993 9.54102 21.25 9.91675 21.25H24.0834C24.4591 21.25 24.8195 21.3993 25.0851 21.6649C25.3508 21.9306 25.5001 22.291 25.5001 22.6667V24.0833Z" fill="#4DADBD"/>
<circle cx="24.5" cy="9.5" r="3.5" fill="#CEB699"/>
</svg>
