<svg width="75" height="75" viewBox="0 0 75 75" fill="none" xmlns="http://www.w3.org/2000/svg">
<path d="M59.7656 26.0245C59.7202 44.5928 54.5273 56.1314 49.1675 62.8477C48.794 63.3165 48.4199 63.7623 48.0454 64.1851C46.1294 66.3502 44.2368 67.919 42.5947 68.9913C41.0768 69.9804 39.3038 70.5062 37.4921 70.5046C35.6804 70.5031 33.9083 69.9742 32.3921 68.9825C30.3759 67.6308 28.5475 66.0181 26.9546 64.1866C26.581 63.7633 26.207 63.3175 25.8325 62.8492C20.4507 56.105 15.2344 44.4976 15.2344 25.7813C15.2274 21.5223 16.448 17.3515 18.75 13.7681C19.1162 13.1983 19.5068 12.647 19.9219 12.1143C22.0117 9.42176 24.6928 7.24587 27.7579 5.75489C30.8229 4.2639 34.1897 3.49776 37.5981 3.51569C44.7173 3.54792 51.0293 6.95807 55.0781 12.2095C55.4927 12.7471 55.8833 13.3038 56.25 13.8795C58.56 17.5079 59.7802 21.7231 59.7656 26.0245Z" fill="#8ACCE7"/>
<path d="M52.7343 18.7499C52.7343 21.763 51.8408 24.7084 50.1669 27.2137C48.4929 29.719 46.1136 31.6716 43.3299 32.8247C40.5462 33.9777 37.483 34.2794 34.5279 33.6916C31.5727 33.1038 28.8582 31.6528 26.7276 29.5223C24.597 27.3917 23.1461 24.6772 22.5583 21.722C21.9705 18.7668 22.2722 15.7037 23.4252 12.92C24.5783 10.1363 26.5309 7.757 29.0362 6.08302C31.5415 4.40905 34.4869 3.51557 37.4999 3.51557C39.5033 3.50563 41.4888 3.8929 43.3416 4.65498C45.1944 5.41706 46.8778 6.53883 48.2944 7.95546C49.7111 9.37209 50.8328 11.0555 51.5949 12.9083C52.357 14.7611 52.7443 16.7466 52.7343 18.7499Z" fill="#F4CEAF"/>
<path d="M59.7655 26.0247C59.7201 44.593 54.5273 56.1316 49.1674 62.8479C48.7939 63.3166 48.4199 63.7624 48.0453 64.1853C46.1293 66.3503 44.2367 67.9192 42.5947 68.9915C41.0767 69.9805 39.3037 70.5064 37.492 70.5048C35.6803 70.5033 33.9082 69.9744 32.392 68.9827C30.3758 67.6309 28.5475 66.0183 26.9545 64.1868C26.581 63.7634 26.207 63.3176 25.8325 62.8494C26.0777 58.9659 27.2071 55.1898 29.1345 51.8094C31.0619 48.4291 33.7363 45.5339 36.9535 43.345L44.9311 37.9192C48.0587 35.7951 50.6187 32.9375 52.3874 29.5961C54.1562 26.2546 55.08 22.531 55.078 18.7502V12.2097C55.4926 12.7473 55.8832 13.304 56.2499 13.8796C58.5599 17.5081 59.7801 21.7233 59.7655 26.0247Z" fill="#379EC3"/>
<path d="M50.6747 26.4038C48.822 29.5877 45.8812 31.9948 42.394 33.1816C42.0962 32.0897 42.1211 30.9348 42.4656 29.8566C42.8102 28.7785 43.4597 27.8232 44.3355 27.1063C45.2114 26.3894 46.2762 25.9416 47.4012 25.8169C48.5261 25.6922 49.6631 25.8961 50.6747 26.4038Z" fill="#F2C194"/>
<path d="M52.7344 31.6405C52.7343 32.8837 52.2404 34.0759 51.3613 34.9549C50.4823 35.834 49.2901 36.3279 48.0469 36.328C47.7341 36.328 47.422 36.2971 47.1153 36.2358C46.245 36.0599 45.4425 35.6406 44.8011 35.0266C44.1597 34.4126 43.7057 33.6291 43.4921 32.7673C43.2784 31.9055 43.3137 31.0007 43.594 30.1582C43.8742 29.3157 44.3879 28.57 45.0752 28.0079C45.7626 27.4458 46.5954 27.0904 47.4767 26.983C48.3581 26.8755 49.2519 27.0205 50.0542 27.4009C50.8564 27.7814 51.5342 28.3818 52.0086 29.1324C52.4831 29.8829 52.7348 30.7526 52.7344 31.6405Z" fill="#F4CEAF"/>
<path d="M52.7344 31.6406C52.7342 32.8838 52.2403 34.076 51.3613 34.955C50.4822 35.8341 49.29 36.328 48.0469 36.3281C47.734 36.3281 47.422 36.2972 47.1152 36.2358C49.2321 34.3968 50.9966 32.188 52.3227 29.7173C52.5954 30.3218 52.7357 30.9775 52.7344 31.6406Z" fill="#F2C194"/>
<path d="M59.7657 26.0244C59.7012 52.5278 49.1485 64.708 42.5948 68.9912C41.0768 69.9803 39.3038 70.5061 37.4921 70.5046C35.6804 70.503 33.9083 69.9741 32.3921 68.9824C30.376 67.6307 28.5476 66.0181 26.9546 64.1865C26.9975 60.2603 27.9891 56.4027 29.8449 52.9425C31.7008 49.4823 34.3658 46.5222 37.6128 44.3145L45.5904 38.8887C48.8746 36.6556 51.5629 33.6531 53.4208 30.1429C55.2788 26.6328 56.2501 22.7215 56.25 18.75V13.8794C58.5601 17.5079 59.7802 21.723 59.7657 26.0244Z" fill="#8ACCE7"/>
<path d="M49.1675 62.8476C48.794 63.3164 48.4199 63.7622 48.0454 64.1851C46.1294 66.3501 44.2368 67.9189 42.5947 68.9912C41.0768 69.9803 39.3038 70.5061 37.4921 70.5046C35.6804 70.503 33.9083 69.9741 32.3921 68.9824C30.3759 67.6307 28.5475 66.018 26.9546 64.1865C21.2007 57.6841 15.2344 45.7983 15.2344 25.7812C15.2274 21.5222 16.448 17.3514 18.75 13.7681C19.1162 13.1982 19.5068 12.647 19.9219 12.1143V18.75C19.92 22.5307 20.8437 26.2544 22.6125 29.5958C24.3813 32.9373 26.9412 35.7948 30.0688 37.9189L38.0464 43.3447C41.2632 45.5337 43.9374 48.4286 45.8648 51.8087C47.7922 55.1887 48.9218 58.9645 49.1675 62.8476Z" fill="#379EC3"/>
<path d="M32.8124 31.6406C32.8129 32.1612 32.7434 32.6795 32.6059 33.1816C29.1187 31.9948 26.1778 29.5877 24.3251 26.4038C25.2184 25.9555 26.2116 25.7431 27.2101 25.7869C28.2087 25.8307 29.1794 26.1292 30.03 26.654C30.8806 27.1789 31.5828 27.9126 32.0698 28.7854C32.5568 29.6582 32.8125 30.6411 32.8124 31.6406Z" fill="#F2C194"/>
<path d="M31.6406 31.6406C31.6402 32.7221 31.2661 33.7703 30.5817 34.6077C29.8973 35.4451 28.9445 36.0202 27.8847 36.2358C27.578 36.2972 27.2659 36.3281 26.9531 36.3281C26.026 36.3281 25.1197 36.0532 24.3489 35.5381C23.578 35.0231 22.9772 34.291 22.6224 33.4345C22.2676 32.5779 22.1748 31.6354 22.3557 30.7261C22.5365 29.8169 22.983 28.9816 23.6385 28.3261C24.2941 27.6705 25.1293 27.2241 26.0386 27.0432C26.9479 26.8623 27.8904 26.9552 28.7469 27.3099C29.6035 27.6647 30.3355 28.2655 30.8506 29.0364C31.3657 29.8072 31.6406 30.7135 31.6406 31.6406Z" fill="#F4CEAF"/>
<path d="M26.9531 36.3281C26.1704 36.3278 25.4002 36.1315 24.7128 35.7573C24.0254 35.383 23.4426 34.8427 23.0175 34.1854C22.5924 33.5282 22.3386 32.7751 22.2791 31.9946C22.2197 31.2142 22.3566 30.4313 22.6772 29.7173C24.0033 32.188 25.7679 34.3968 27.8847 36.2358C27.578 36.2972 27.2659 36.3281 26.9531 36.3281Z" fill="#F2C194"/>
<path d="M48.0454 64.1853C46.1294 66.3503 44.2368 67.9192 42.5947 68.9914C41.0768 69.9805 39.3038 70.5064 37.4921 70.5048C35.6804 70.5033 33.9083 69.9744 32.3921 68.9827C30.3759 67.6309 28.5476 66.0183 26.9546 64.1868C21.2007 57.6843 15.2344 45.7986 15.2344 25.7815C15.2274 21.5225 16.448 17.3516 18.75 13.7683V18.7502C18.75 22.7218 19.7213 26.6331 21.5792 30.1432C23.4372 33.6533 26.1254 36.6558 29.4097 38.8889L37.3872 44.3147C40.634 46.5223 43.2988 49.4822 45.1546 52.9421C47.0105 56.402 48.0022 60.2593 48.0454 64.1853Z" fill="#8ACCE7"/>
<path d="M38.6715 12.8906H35.7418C34.9648 12.8906 34.2196 12.582 33.6702 12.0325C33.1208 11.4831 32.8121 10.7379 32.8121 9.96094C32.8121 9.18394 33.1208 8.43876 33.6702 7.88934C34.2196 7.33991 34.9648 7.03125 35.7418 7.03125H36.3278C36.6386 7.03125 36.9366 7.15472 37.1564 7.37448C37.3762 7.59425 37.4996 7.89232 37.4996 8.20312C37.4996 8.51393 37.3762 8.812 37.1564 9.03177C36.9366 9.25153 36.6386 9.375 36.3278 9.375H35.7418C35.5864 9.375 35.4374 9.43673 35.3275 9.54662C35.2176 9.6565 35.1559 9.80554 35.1559 9.96094C35.1559 10.1163 35.2176 10.2654 35.3275 10.3753C35.4374 10.4851 35.5864 10.5469 35.7418 10.5469H38.6715C38.9822 10.5465 39.2801 10.4229 39.4998 10.2032C39.7195 9.98356 39.843 9.68569 39.8434 9.375V8.20312C39.843 7.89243 39.7195 7.59457 39.4998 7.37488C39.2801 7.15518 38.9822 7.03161 38.6715 7.03125C38.3607 7.03125 38.0626 6.90778 37.8429 6.68802C37.6231 6.46825 37.4996 6.17018 37.4996 5.85938C37.4996 5.54857 37.6231 5.2505 37.8429 5.03073C38.0626 4.81097 38.3607 4.6875 38.6715 4.6875C39.6036 4.68855 40.4972 5.05929 41.1563 5.71837C41.8153 6.37745 42.1861 7.27105 42.1871 8.20312V9.375C42.1861 10.3071 41.8153 11.2007 41.1563 11.8598C40.4972 12.5188 39.6036 12.8896 38.6715 12.8906Z" fill="#AD7D4D"/>
<path d="M31.6403 17.5782C31.4864 17.5785 31.3339 17.5482 31.1917 17.4893C31.0495 17.4304 30.9203 17.344 30.8116 17.235C30.6126 17.036 30.3764 16.8782 30.1164 16.7705C29.8565 16.6628 29.5778 16.6074 29.2965 16.6074C29.0151 16.6074 28.7364 16.6629 28.4765 16.7706C28.2165 16.8782 27.9803 17.0361 27.7813 17.2351C27.6725 17.344 27.5433 17.4304 27.4011 17.4894C27.2589 17.5483 27.1065 17.5787 26.9525 17.5787C26.7986 17.5788 26.6461 17.5485 26.5039 17.4896C26.3617 17.4307 26.2324 17.3443 26.1236 17.2354C26.0147 17.1266 25.9284 16.9973 25.8695 16.8551C25.8106 16.7128 25.7804 16.5604 25.7804 16.4064C25.7805 16.2525 25.8109 16.1 25.8699 15.9578C25.9289 15.8156 26.0153 15.6865 26.1242 15.5777C26.9656 14.7363 28.1068 14.2637 29.2966 14.2637C30.4865 14.2637 31.6276 14.7364 32.469 15.5777C32.6329 15.7416 32.7444 15.9505 32.7897 16.1778C32.8349 16.4051 32.8116 16.6407 32.7229 16.8548C32.6342 17.069 32.484 17.252 32.2913 17.3807C32.0986 17.5095 31.8721 17.5782 31.6403 17.5782Z" fill="#AD7D4D"/>
<path d="M48.0465 17.5782C47.8926 17.5785 47.7402 17.5482 47.5979 17.4893C47.4557 17.4304 47.3265 17.344 47.2178 17.235C47.0189 17.036 46.7827 16.8782 46.5227 16.7705C46.2627 16.6628 45.9841 16.6074 45.7027 16.6074C45.4213 16.6074 45.1427 16.6629 44.8827 16.7706C44.6228 16.8782 44.3866 17.0361 44.1876 17.2351C44.0788 17.344 43.9496 17.4304 43.8074 17.4894C43.6652 17.5483 43.5127 17.5787 43.3588 17.5787C43.2048 17.5788 43.0524 17.5485 42.9102 17.4896C42.7679 17.4307 42.6387 17.3443 42.5298 17.2354C42.421 17.1266 42.3347 16.9973 42.2758 16.8551C42.2169 16.7128 42.1866 16.5604 42.1867 16.4064C42.1867 16.2525 42.2171 16.1 42.2761 15.9578C42.3351 15.8156 42.4216 15.6865 42.5305 15.5777C43.3719 14.7363 44.513 14.2637 45.7029 14.2637C46.8927 14.2637 48.0339 14.7364 48.8752 15.5777C49.0391 15.7416 49.1507 15.9505 49.1959 16.1778C49.2411 16.4051 49.2179 16.6407 49.1292 16.8548C49.0405 17.069 48.8903 17.252 48.6976 17.3807C48.5049 17.5095 48.2783 17.5782 48.0465 17.5782Z" fill="#AD7D4D"/>
<path d="M36.3279 19.922C36.0962 19.9219 35.8696 19.8532 35.6769 19.7244C35.4842 19.5957 35.334 19.4127 35.2454 19.1986C35.1567 18.9845 35.1334 18.7489 35.1786 18.5216C35.2238 18.2942 35.3354 18.0854 35.4992 17.9215C35.7619 17.6588 36.0738 17.4504 36.417 17.3082C36.7603 17.166 37.1282 17.0928 37.4997 17.0928C37.8712 17.0928 38.2391 17.1659 38.5824 17.3081C38.9256 17.4503 39.2375 17.6587 39.5002 17.9215C39.609 18.0303 39.6953 18.1595 39.7542 18.3017C39.8131 18.4438 39.8434 18.5962 39.8434 18.7501C39.8434 18.904 39.813 19.0564 39.7541 19.1986C39.6952 19.3407 39.6089 19.4699 39.5001 19.5787C39.3912 19.6875 39.2621 19.7738 39.1199 19.8327C38.9777 19.8916 38.8253 19.9219 38.6714 19.9219C38.5175 19.9219 38.3651 19.8915 38.223 19.8326C38.0808 19.7737 37.9516 19.6874 37.8428 19.5786C37.7518 19.4876 37.6284 19.4365 37.4998 19.4365C37.3711 19.4365 37.2477 19.4877 37.1568 19.5786C37.048 19.6876 36.9188 19.7741 36.7766 19.833C36.6344 19.8919 36.4819 19.9221 36.3279 19.922Z" fill="#EFAE81"/>
<path d="M37.4997 25.176C36.1791 25.1771 34.8669 24.9655 33.6136 24.5495C33.3187 24.4512 33.075 24.2398 32.936 23.9619C32.797 23.6839 32.7741 23.3621 32.8724 23.0672C32.9706 22.7724 33.182 22.5287 33.46 22.3897C33.7379 22.2507 34.0597 22.2278 34.3546 22.326C36.3968 23.0021 38.6025 23.0021 40.6447 22.326C40.7907 22.2774 40.9448 22.2579 41.0983 22.2688C41.2519 22.2797 41.4017 22.3207 41.5394 22.3896C41.677 22.4584 41.7998 22.5536 41.9006 22.6699C42.0014 22.7861 42.0784 22.9211 42.1271 23.0671C42.1757 23.2131 42.1952 23.3673 42.1843 23.5208C42.1734 23.6743 42.1323 23.8241 42.0635 23.9618C41.9947 24.0994 41.8995 24.2222 41.7832 24.323C41.667 24.4239 41.532 24.5008 41.386 24.5495C40.1326 24.9655 38.8204 25.1771 37.4997 25.176Z" fill="#EFAE81"/>
</svg>
