<svg width="80" height="75" viewBox="0 0 80 75" fill="none" xmlns="http://www.w3.org/2000/svg">
<g clip-path="url(#clip0)">
<path d="M52.6344 57.723V57.7245L72.0531 50.995C75.1047 49.8829 78.4375 51.9895 78.4375 55.0921C78.4375 56.847 77.3406 58.3617 75.7547 59.0663C75.4422 59.204 52.5 69.7406 43.125 69.7406C30.625 69.7406 27.5 63.8812 15 63.8812V46.3031C18.7625 46.3031 23.75 40.6634 31.7422 44.8778L39.2859 48.8563C39.7547 49.1039 40.2812 49.2328 40.8187 49.2328H50.9375C53.5266 49.2328 55.625 51.2001 55.625 53.6273C55.625 55.4935 54.3844 57.0873 52.6344 57.723Z" fill="#FCE8D0"/>
<path d="M63.4531 5.25952C73.2016 5.25952 86.5594 19.4465 52.5188 40.4436C18.4203 19.4099 31.9157 5.25952 41.586 5.25952C48.8453 5.25952 52.5188 11.1467 52.5188 11.1467C52.5188 11.1467 56.1922 5.25952 63.4531 5.25952Z" fill="#FF7B79"/>
<path d="M15 66.8108H1.5625V46.303H15V66.8108Z" fill="#EEFAFF"/>
<path d="M1.5625 68.2755H15C15.8628 68.2755 16.5625 67.6197 16.5625 66.8107V65.3791C21.6136 65.5956 24.9594 66.8498 28.4822 68.1708C32.4605 69.6627 36.5741 71.2052 43.125 71.2052C46.0027 71.2052 50.2736 70.298 55.8195 68.5089C56.6356 68.2457 57.0694 67.4122 56.7886 66.6472C56.5077 65.8821 55.6183 65.4753 54.8027 65.7387C49.5847 67.422 45.6558 68.2755 43.125 68.2755C37.1759 68.2755 33.5169 66.9034 29.6428 65.4506C25.9908 64.0811 22.2233 62.6697 16.5625 62.4474V47.5644C17.5641 47.3212 18.5731 46.8909 19.6203 46.4428C22.7003 45.125 26.1912 43.631 30.9761 46.1542L38.5189 50.1324C39.2188 50.502 40.0141 50.6974 40.8187 50.6974H50.9375C52.6606 50.6974 54.0625 52.0117 54.0625 53.6271C54.0625 54.8268 53.2617 55.924 52.0647 56.3587C51.7069 56.4901 51.3277 56.5568 50.9375 56.5568H35.0531C34.1903 56.5568 33.4906 57.2126 33.4906 58.0216C33.4906 58.8307 34.1903 59.4865 35.0531 59.4865H50.9375C51.6973 59.4865 52.4389 59.3583 53.1384 59.1094C53.1509 59.1055 53.1636 59.1027 53.1761 59.0983C53.1761 59.0983 72.6109 52.3631 72.6191 52.36C72.9795 52.2288 73.36 52.1621 73.75 52.1621C75.4731 52.1621 76.875 53.4764 76.875 55.0918C76.875 56.2189 76.1727 57.2592 75.0892 57.7405C74.8219 57.8614 74.5541 57.9831 74.037 58.214L73.585 57.3664C73.1991 56.6428 72.2598 56.3495 71.4888 56.7113C70.7169 57.0731 70.4041 57.9531 70.7898 58.6767L71.2048 59.455C70.182 59.895 69.0194 60.3871 67.7481 60.9115C66.9583 61.2374 66.5997 62.1018 66.9475 62.8423C67.2956 63.5839 68.2183 63.9182 69.007 63.593C72.0808 62.3248 74.1148 61.4252 76.4238 60.3898C78.5963 59.4247 80 57.3452 80 55.0919C80 51.8611 77.1963 49.2326 73.75 49.2326C72.9759 49.2326 72.2191 49.3644 71.5002 49.6247L57.095 54.6168C57.1552 54.2929 57.1875 53.9621 57.1875 53.6271C57.1875 50.3962 54.3838 47.7677 50.9375 47.7677H40.8187C40.5503 47.7677 40.2855 47.7028 40.052 47.5795L32.5083 43.6008C26.3389 40.3477 21.7058 42.3302 18.323 43.7775C16.993 44.3466 15.8445 44.838 15 44.838H1.5625C0.699688 44.838 0 45.4939 0 46.3029V66.8107C0 67.6197 0.699688 68.2755 1.5625 68.2755ZM3.125 47.7677H13.4375V65.3459H3.125V47.7677Z" fill="black"/>
<path d="M51.6599 41.6673C51.9206 41.828 52.2195 41.9084 52.5188 41.9084C52.8178 41.9084 53.117 41.828 53.3775 41.6673C76.2974 27.53 77.0525 17.0694 75.4625 12.0923C73.7225 6.64482 68.1039 3.79468 63.4531 3.79468C57.9595 3.79468 54.3288 6.73799 52.5189 8.69985C50.7092 6.73799 47.0788 3.79468 41.5861 3.79468C36.9405 3.79468 31.3255 6.64966 29.5823 12.1065C27.9933 17.0802 28.7488 27.5345 51.6599 41.6673ZM32.5758 12.947C33.8669 8.90537 38.1817 6.72451 41.5859 6.72451C47.8177 6.72451 51.0306 11.6672 51.1722 11.89C51.453 12.3372 51.9652 12.6117 52.5188 12.6117C53.0739 12.6117 53.5872 12.3356 53.8675 11.8865C53.8997 11.8348 57.1611 6.72451 63.4531 6.72451C66.8624 6.72451 71.1808 8.90039 72.4689 12.9328C73.5339 16.2671 73.6769 25.3925 52.5188 38.6855C31.3692 25.3972 31.5116 16.2787 32.5758 12.947Z" fill="black"/>
<path d="M46.25 24.3303H50.9375V28.7249C50.9375 29.5339 51.6372 30.1897 52.5 30.1897C53.3628 30.1897 54.0625 29.5339 54.0625 28.7249V24.3303H58.75C59.6128 24.3303 60.3125 23.6745 60.3125 22.8655C60.3125 22.0564 59.6128 21.4006 58.75 21.4006H54.0625V17.0061C54.0625 16.1971 53.3628 15.5413 52.5 15.5413C51.6372 15.5413 50.9375 16.1971 50.9375 17.0061V21.4006H46.25C45.3872 21.4006 44.6875 22.0564 44.6875 22.8655C44.6875 23.6745 45.3872 24.3303 46.25 24.3303Z" fill="black"/>
<path d="M61.875 66.2249C62.7379 66.2249 63.4375 65.569 63.4375 64.76C63.4375 63.951 62.7379 63.2952 61.875 63.2952C61.0121 63.2952 60.3125 63.951 60.3125 64.76C60.3125 65.569 61.0121 66.2249 61.875 66.2249Z" fill="black"/>
</g>
<defs>
<clipPath id="clip0">
<rect width="80" height="75" fill="white"/>
</clipPath>
</defs>
</svg>
