<svg width="70" height="70" viewBox="0 0 70 70" fill="none" xmlns="http://www.w3.org/2000/svg">
<g clip-path="url(#clip0)">
<path fill-rule="evenodd" clip-rule="evenodd" d="M68.9746 61.3058V53.2678C68.9746 52.9074 68.6762 52.6128 68.3158 52.6128H61.8166C62.177 52.6128 62.4754 52.9073 62.4754 53.2678V61.3058C62.4754 61.6701 62.177 61.9646 61.8166 61.9646H64.7349H68.3158C68.6762 61.9646 68.9746 61.67 68.9746 61.3058Z" fill="#78C2A4"/>
<path fill-rule="evenodd" clip-rule="evenodd" d="M36.3583 47.373V32.7504L31.169 32.2446L26.809 36.8392C26.809 36.8392 20.2628 39.6047 20.5961 39.7598C20.8363 39.8683 20.5961 47.3731 20.5961 47.3731H36.3583V47.373Z" fill="#EDF4FF"/>
<path fill-rule="evenodd" clip-rule="evenodd" d="M38.9278 30.0954C39.9238 28.3669 39.7998 27.6848 39.9238 25.3323V22.8169C39.9238 20.4063 37.9512 18.4336 35.5406 18.4336H24.0885C22.2553 18.4336 21.1431 19.3288 20.2401 20.7939L13.5005 31.7386C13.7408 31.7813 20.7138 38.0088 21.4192 38.1445C23.2018 38.4856 33.3276 34.2074 33.3276 34.2074L34.033 33.9245C35.7692 33.223 37.2264 32.3665 38.296 31.0255C38.5247 30.7387 38.734 30.4287 38.9278 30.0954Z" fill="#EDF4FF"/>
<path fill-rule="evenodd" clip-rule="evenodd" d="M31.545 41.6488C31.2117 41.4937 30.8783 40.955 30.053 39.9435C29.2197 38.9281 27.8439 37.6374 26.8092 36.8391C24.974 35.3102 24.974 35.3102 23.7126 34.2154C22.2787 33.1805 20.5231 32.607 18.7403 32.2659C18.035 32.1303 17.3296 32.0333 16.632 31.9558L13.5006 34.2076L15.1283 37.498C16.26 37.7266 17.1475 38.0639 17.7017 38.3197C22.8134 40.6838 24.9527 44.3695 25.0418 45.6717C25.1193 46.7685 23.8133 47.0515 19.4765 47.0515H11.9931L10.0488 49.9968L11.9931 52.6128H30.5994L36.3584 47.3729L31.545 41.6488Z" fill="#7E707D"/>
<path fill-rule="evenodd" clip-rule="evenodd" d="M55.3174 52.6128H40.6215H30.5994H11.9931H5.96668H1.68041C1.32002 52.6128 1.02539 52.9073 1.02539 53.2678V61.3058C1.02539 61.6701 1.31988 61.9646 1.68041 61.9646H5.26135H64.7348H68.3158C68.6762 61.9646 68.9746 61.6701 68.9746 61.3058V53.2678C68.9746 52.9074 68.6762 52.6128 68.3158 52.6128H55.3174Z" fill="#B3E59F"/>
<path fill-rule="evenodd" clip-rule="evenodd" d="M64.7348 61.9646H5.26135V64.8946C5.26135 66.5068 6.57905 67.8246 8.19123 67.8246H61.8049C63.4171 67.8246 64.7348 66.5069 64.7348 64.8946V61.9646Z" fill="#F9F7F8"/>
<path fill-rule="evenodd" clip-rule="evenodd" d="M33.3276 34.2074L31.169 29.9404L25.1038 32.572C24.3714 32.8627 23.8715 33.4944 23.7126 34.2152C23.6196 34.6493 23.6467 35.1182 23.825 35.5601C24.2939 36.7344 25.6387 37.3081 26.8091 36.8391L33.3276 34.2074Z" fill="#FFEEE6"/>
<path fill-rule="evenodd" clip-rule="evenodd" d="M34.0331 33.9246C35.7693 33.2231 37.2266 32.3665 38.2962 31.0256C38.5248 30.7388 38.7341 30.4288 38.9278 30.0955C39.9238 28.367 39.7998 27.6849 39.9238 25.3324V22.817C39.9238 20.6079 38.269 18.7708 36.1374 18.4763C36.9164 19.267 37.397 20.3521 37.397 21.542V24.0572C37.2768 26.4097 37.4008 27.0956 36.4048 28.8242C36.2111 29.1575 35.9979 29.4676 35.7692 29.7543C34.8818 30.8666 33.7229 31.6494 32.3549 32.2851L33.3277 34.2073L34.0331 33.9246Z" fill="#DBEAFF"/>
<path fill-rule="evenodd" clip-rule="evenodd" d="M33.3277 34.2074L32.3549 32.2852C32.0797 32.413 31.8006 32.5332 31.51 32.6495L30.8046 32.9363L30.793 32.9169L25.8401 34.9167C25.0921 35.2152 24.2744 35.0912 23.6582 34.6571C23.6544 34.9594 23.7047 35.2656 23.8249 35.5601C24.2938 36.7344 25.6386 37.3081 26.809 36.8391L33.3277 34.2074Z" fill="#FFDFCF"/>
<path fill-rule="evenodd" clip-rule="evenodd" d="M11.2257 47.0513C10.1095 47.0513 9.36934 47.0475 8.90423 46.067C8.28421 44.7531 6.73778 42.4162 5.22253 42.2998C4.05987 42.2107 4.21874 42.6331 4.36216 43.4431L5.96655 52.6128H11.993V47.0513H11.2257Z" fill="#FFEEE6"/>
<path fill-rule="evenodd" clip-rule="evenodd" d="M15.1283 37.4979L16.632 31.9558C15.9266 31.8783 15.2329 31.824 14.5741 31.7737C14.0625 31.7388 13.7408 31.7815 13.5006 31.7388C13.2137 31.6923 13.0394 31.5295 12.7874 30.9986C12.1634 29.6887 10.5086 27.1191 8.98938 27.0029C7.82673 26.9137 7.98956 27.34 8.12901 28.1461L9.5435 36.2151C9.79151 37.6297 9.8071 37.4398 11.3766 37.2964C12.7952 37.1646 14.0703 37.2848 15.1283 37.4979Z" fill="#FFEEE6"/>
<path fill-rule="evenodd" clip-rule="evenodd" d="M51.0194 42.8112C47.9577 40.2378 42.8459 39.1642 38.296 39.6526C36.118 39.8852 34.0717 40.4781 32.4401 41.4314C32.0216 41.6756 31.7851 41.757 31.5449 41.6484V47.3727L40.6213 52.6126H55.3172C55.2747 48.6052 55.949 47.5705 51.0194 42.8112Z" fill="#F37C7C"/>
<path fill-rule="evenodd" clip-rule="evenodd" d="M29.8164 23.5341C31.6805 23.5341 33.2074 21.856 33.2074 19.802V18.4338H26.4214V19.802C26.4215 21.8559 27.9484 23.5341 29.8164 23.5341Z" fill="#FFDFCF"/>
<path fill-rule="evenodd" clip-rule="evenodd" d="M32.041 18.4338C34.6415 17.2246 36.6916 14.3489 36.6916 12.0313V9.92674C34.2707 6.05118 25.384 4.55725 22.9374 9.92674V12.0313C22.9374 14.3489 24.9875 17.2245 27.5919 18.4376C28.2707 18.7447 28.9985 18.9783 29.7494 18.9912C30.5469 19.0049 31.3225 18.7603 32.041 18.4338Z" fill="#FFEEE6"/>
<path fill-rule="evenodd" clip-rule="evenodd" d="M36.6916 9.92681C36.6916 4.81872 33.2541 2.22981 29.8164 2.17554C26.3789 2.22981 22.9374 4.81872 22.9374 9.92681C25.7239 9.73308 26.0688 7.70608 27.9873 8.2021C28.6151 8.36493 36.2809 9.89974 36.6916 9.92681Z" fill="#E29D7B"/>
<path fill-rule="evenodd" clip-rule="evenodd" d="M29.8164 18.9919C29.2661 18.9919 28.7158 18.8757 28.0918 18.647C27.9252 18.5849 27.7547 18.5114 27.5918 18.4338H26.4214V19.4609C26.4214 20.3639 28.956 21.0848 29.9132 21.0808C31.5719 21.0808 33.2074 20.3407 33.2074 19.4609V18.4338H32.0409C32.0409 18.4377 32.0409 18.4377 32.0409 18.4338C31.9983 18.4571 31.9556 18.4725 31.9169 18.4919C31.6069 18.6315 31.2775 18.7516 30.952 18.8331C30.5683 18.9337 30.2078 18.9919 29.8164 18.9919Z" fill="#FFCEBF"/>
<path fill-rule="evenodd" clip-rule="evenodd" d="M36.6916 9.92681C36.6916 4.81872 33.2541 2.22981 29.8164 2.17554C29.1964 2.18333 28.5801 2.2763 27.9795 2.45075C30.5528 3.19874 32.7579 5.45829 32.9983 9.22913C34.8353 9.59349 36.5057 9.91519 36.6916 9.92681Z" fill="#CE8B6B"/>
<path fill-rule="evenodd" clip-rule="evenodd" d="M32.0409 18.4337C34.6414 17.2246 36.6915 14.3488 36.6915 12.0312V9.92668C36.5055 9.91506 34.8352 9.59336 32.9982 9.229V11.3335C32.9982 13.7984 30.6807 16.895 27.8438 17.9492C27.5802 18.0461 27.3322 18.1237 27.088 18.1779C27.2547 18.2709 27.4213 18.3562 27.5918 18.4376C27.7547 18.5112 27.9251 18.5848 28.0918 18.6469C28.7158 18.8755 29.2661 18.9918 29.8164 18.9918C30.4093 18.9918 30.9829 18.8524 31.5371 18.6469C31.7116 18.581 31.8744 18.5112 32.0409 18.4337Z" fill="#FFDFCF"/>
<path fill-rule="evenodd" clip-rule="evenodd" d="M15.1283 37.4979L15.8763 34.7385C14.644 34.3509 12.8961 34.0137 10.8343 34.2036C9.26475 34.347 9.24917 34.5369 9.00116 33.1223L9.5438 36.215C9.7918 37.6297 9.80739 37.4398 11.3769 37.2963C12.7952 37.1645 14.0703 37.2847 15.1283 37.4979Z" fill="#FFDFCF"/>
<path fill-rule="evenodd" clip-rule="evenodd" d="M40.6215 52.6129V47.373H31.545H30.8242C29.3825 47.373 28.2004 48.5551 28.2004 49.9968C28.2004 51.365 29.2585 52.4966 30.5994 52.6128H40.6215V52.6129Z" fill="#FFEEE6"/>
<path fill-rule="evenodd" clip-rule="evenodd" d="M61.455 46.0754C61.7248 44.5108 61.455 42.2843 60.243 39.4434C59.1074 38.8815 57.8092 38.6295 56.4644 38.7729C54.0151 39.0326 52.0269 40.7417 51.0193 42.8113C50.8759 43.1098 50.7519 43.4121 50.6473 43.7182C50.3605 44.5902 50.2442 45.497 50.3372 46.3652C50.6473 49.2758 52.4688 51.7484 55.3172 52.6127L56.8002 52.1397C58.9385 51.4577 60.5675 49.7115 61.0996 47.531L61.455 46.0754Z" fill="#FFEEE6"/>
<path fill-rule="evenodd" clip-rule="evenodd" d="M65.351 47.5899C65.8548 45.4699 64.6884 43.4158 65.448 40.0285C66.0177 37.4861 64.1226 37.4086 61.9562 38.1954C61.2586 38.4512 60.6773 38.8775 60.2432 39.4433C59.127 40.885 58.9527 43.2337 60.1889 45.9194C61.8322 49.4773 55.3174 52.6126 55.3174 52.6126C60.933 52.6128 64.3512 51.7949 65.351 47.5899Z" fill="#7E707D"/>
<path fill-rule="evenodd" clip-rule="evenodd" d="M60.1888 45.9194C58.9524 43.2336 59.1269 40.8851 60.2431 39.4434C59.3052 38.9822 58.2589 38.7264 57.1621 38.7341C56.4219 40.3734 56.4335 42.722 57.507 45.3536C58.6581 48.175 55.7979 50.7601 53.988 52.0546C54.4027 52.2793 54.8446 52.4692 55.3174 52.6126C55.3174 52.6126 61.832 49.4773 60.1888 45.9194Z" fill="#FFDFCF"/>
<path fill-rule="evenodd" clip-rule="evenodd" d="M65.351 47.5898C65.8548 45.4698 64.6884 43.4157 65.448 40.0284C65.8472 38.2572 65.0449 37.6837 63.7931 37.765C61.1733 41.3771 63.5103 44.8574 62.6615 47.9656C62.0299 50.632 60.4215 51.9381 57.8985 52.5349C61.9871 52.2521 64.5139 51.1051 65.351 47.5898Z" fill="#6A5D6A"/>
<path fill-rule="evenodd" clip-rule="evenodd" d="M26.8014 43.4083C24.573 36.5408 15.8569 34.7308 15.8763 34.7386L15.1284 37.4979C16.26 37.7265 17.1476 38.0638 17.7017 38.3196C22.8135 40.6838 24.9527 44.3694 25.0418 45.6717C25.0805 46.2452 24.7434 46.5941 23.7978 46.7995C23.7978 46.7995 24.945 47.2063 25.9254 46.2181L25.9177 46.2259C26.7858 45.4624 27.0921 44.3035 26.8014 43.4083ZM25.1427 46.7219C25.1854 46.7025 25.228 46.6793 25.2706 46.6599C25.2279 46.6793 25.1853 46.7025 25.1427 46.7219ZM25.2784 46.6561C25.2978 46.6444 25.317 46.6366 25.3365 46.625C25.317 46.6366 25.2976 46.6444 25.2784 46.6561ZM25.3403 46.625C25.3597 46.6134 25.379 46.6018 25.4024 46.5902C25.3791 46.6018 25.3597 46.6134 25.3403 46.625ZM25.4024 46.5863C25.4218 46.5785 25.4411 46.5669 25.4605 46.5553C25.4411 46.5669 25.4216 46.5785 25.4024 46.5863ZM25.4683 46.5513C25.4837 46.5397 25.5031 46.5281 25.5225 46.5165C25.5031 46.5281 25.4837 46.5397 25.4683 46.5513ZM25.5845 46.4778C25.6039 46.4661 25.6232 46.4545 25.6388 46.4391C25.6233 46.4545 25.6039 46.4661 25.5845 46.4778ZM25.6465 46.4351C25.662 46.4235 25.6814 46.4119 25.6969 46.4002C25.6814 46.4119 25.662 46.4235 25.6465 46.4351ZM25.7007 46.3964C25.7201 46.3848 25.7355 46.3732 25.755 46.3577C25.7357 46.373 25.7201 46.3847 25.7007 46.3964ZM25.755 46.3576C25.7937 46.3305 25.8287 46.2995 25.8635 46.2723C25.8287 46.2995 25.7938 46.3305 25.755 46.3576ZM25.914 46.2298C25.8946 46.2414 25.8791 46.2568 25.8635 46.2724L25.914 46.2298ZM25.5845 46.4778C25.5651 46.4894 25.5458 46.5048 25.5264 46.5165L25.5845 46.4778Z" fill="#6A5D6A"/>
<path fill-rule="evenodd" clip-rule="evenodd" d="M53.988 52.0548C51.9069 50.9154 50.597 48.7954 50.3374 46.3654C50.2444 45.4972 50.3606 44.5904 50.6474 43.7184C50.752 43.4123 50.876 43.1098 51.0195 42.8115C50.2056 42.1256 49.2444 41.5481 48.1903 41.0752C47.9772 41.5247 47.7951 41.9821 47.64 42.4472C47.1595 43.8889 46.9696 45.3848 47.1208 46.8189C47.3494 48.9466 48.0665 50.9348 49.2057 52.6129H55.3175C54.8444 52.4695 54.4027 52.2796 53.988 52.0548Z" fill="#EE6161"/>
<path fill-rule="evenodd" clip-rule="evenodd" d="M64.7348 64.8946V61.9646H61.8165H54.3484V64.8946C54.3484 66.5068 53.0269 67.8246 51.4185 67.8246H61.8049C63.4171 67.8246 64.7348 66.5069 64.7348 64.8946Z" fill="#F0F0F0"/>
<path fill-rule="evenodd" clip-rule="evenodd" d="M69.2383 61.427V53.1464C69.2383 52.7751 68.9308 52.4717 68.5596 52.4717H61.8642C62.2355 52.4717 62.5429 52.7751 62.5429 53.1464V61.427C62.5429 61.8023 62.2354 62.1058 61.8642 62.1058H64.8705H68.5596C68.9308 62.1058 69.2383 61.8023 69.2383 61.427Z" fill="#95D6A4"/>
<path d="M68.3158 51.5873H64.1633C65.1771 50.7326 65.9442 49.5276 66.3487 47.827C66.6153 46.7048 66.494 45.657 66.3657 44.5475C66.2184 43.2745 66.0661 41.9583 66.4485 40.2529V40.2527C66.7424 38.9412 66.5284 37.957 65.8126 37.3272C64.9461 36.565 63.5307 36.5328 61.6056 37.2318C60.9956 37.4537 60.4495 37.7887 59.9852 38.2155C58.8343 37.7814 57.5944 37.6216 56.3557 37.7532C54.1104 37.9928 52.0326 39.3399 50.709 41.2988C49.3608 40.3918 47.7099 39.6696 45.8645 39.1876C45.316 39.0441 44.7564 39.3727 44.6132 39.9205C44.4701 40.4685 44.7982 41.0286 45.3462 41.1718C47.0673 41.6213 48.5778 42.2959 49.7648 43.1385C49.7331 43.2243 49.7023 43.3107 49.6733 43.3978C49.3352 44.4259 49.2122 45.4897 49.3177 46.4737C49.5332 48.4958 50.3791 50.2723 51.6806 51.5871H41.6469V48.3982H44.3729C44.9392 48.3982 45.3983 47.9392 45.3983 47.3728C45.3983 46.8063 44.9392 46.3474 44.3729 46.3474H32.5704V42.5154C32.6936 42.4612 32.8221 42.3962 32.9577 42.3169C34.9456 41.1551 37.7977 40.5171 40.7829 40.5655C40.7887 40.5657 40.7943 40.5657 40.8 40.5657C41.3585 40.5657 41.8157 40.1177 41.825 39.5571C41.8343 38.9908 41.3827 38.5242 40.8166 38.515C39.6344 38.4962 38.4829 38.573 37.3838 38.7358V33.2858C38.2926 32.6214 39.1508 31.7615 39.8163 30.6074C40.7966 28.9062 40.8357 27.9744 40.9067 26.2831C40.918 26.0124 40.9305 25.716 40.9478 25.3862C40.9484 25.3771 40.9477 25.368 40.9478 25.3589C40.9481 25.35 40.9492 25.3412 40.9492 25.3322V22.817C40.9492 19.8346 38.5228 17.4081 35.5406 17.4081H35.1821C36.7011 15.8553 37.717 13.8415 37.717 12.0311V9.92688C37.717 7.28356 36.8706 5.03754 35.2692 3.43191C33.8345 1.99336 31.9037 1.18303 29.8327 1.15035C29.8219 1.15008 29.8111 1.15008 29.8003 1.15035C27.7292 1.18303 25.7979 1.99336 24.3622 3.43178C22.7593 5.03768 21.9122 7.28369 21.9122 9.92701V12.0312C21.9122 13.841 22.9283 15.8547 24.4487 17.4083H24.0885C21.43 17.4083 20.1208 19.0334 19.3669 20.2563L13.3964 29.9522C12.7211 28.7396 11.0471 26.1317 9.06773 25.9801C8.51676 25.9384 7.82592 25.9552 7.36531 26.4655C6.88064 27.0026 7.00232 27.675 7.09105 28.166L8.53371 36.3922C8.66168 37.1216 8.76258 37.6977 9.24424 38.089C9.74873 38.499 10.3291 38.4371 11.0015 38.3649C11.1394 38.3503 11.2947 38.3336 11.4708 38.3175C14.3166 38.0551 16.4754 38.8827 17.2711 39.2502C18.1326 39.6486 18.8954 40.082 19.5707 40.5296V46.0254C19.5389 46.0254 19.5088 46.0257 19.4767 46.0257H11.2257C10.0197 46.0257 9.98717 45.957 9.83158 45.6291C9.63088 45.2039 7.79857 41.4687 5.301 41.2774C4.74852 41.2346 4.05549 41.2519 3.59502 41.7639C3.11008 42.3028 3.22957 42.9518 3.32555 43.4733L4.74619 51.5874H1.68041C0.753867 51.5873 0 52.3411 0 53.2677V61.3056C0 62.2344 0.753867 62.9899 1.68041 62.9899H4.23596V64.8945C4.23596 67.0754 6.01029 68.8499 8.19123 68.8499H61.8049C63.9859 68.8499 65.7602 67.0754 65.7602 64.8945V62.9899H68.3158C69.2444 62.9899 70 62.2344 70 61.3056V53.2677C70 52.3411 69.2445 51.5873 68.3158 51.5873ZM61.1204 45.491C60.2956 43.6983 60.1308 42.0176 60.6562 40.7585C60.9779 39.9878 61.5485 39.4347 62.306 39.1594C63.1213 38.8634 63.6717 38.7804 64.0139 38.7804C64.2741 38.7804 64.4139 38.8285 64.4581 38.8672C64.4932 38.8983 64.5946 39.1479 64.4473 39.8046V39.8044C63.9887 41.8491 64.1771 43.476 64.3284 44.7835C64.4401 45.7487 64.5364 46.5821 64.3534 47.3528C63.7715 49.7997 62.3541 50.9786 59.0129 51.3994C59.0216 51.3919 59.0305 51.3844 59.0393 51.3767C61.8754 48.9285 61.736 46.824 61.1204 45.491ZM51.3569 46.2561C51.2821 45.5587 51.3736 44.7919 51.6202 44.042C52.2592 42.1217 54.0386 40.063 56.5733 39.7925C57.3141 39.7134 58.0552 39.778 58.7617 39.9738C58.0152 41.7674 58.1911 44.0308 59.2579 46.3494C60.2615 48.5226 56.4417 50.8341 55.2303 51.4996C53.0888 50.6872 51.6187 48.7145 51.3569 46.2561ZM39.5961 48.3983V51.5873H30.6713C29.8614 51.51 29.2258 50.8263 29.2258 49.9965C29.2258 49.1153 29.9428 48.3983 30.8241 48.3983H39.5961ZM35.333 39.1578C34.0762 39.4957 32.9237 39.9612 31.9226 40.5463C31.9029 40.5578 31.8847 40.5683 31.8676 40.578C31.7535 40.4432 31.6057 40.2536 31.4691 40.0786C31.3023 39.8647 31.0948 39.5984 30.8455 39.2928C30.3141 38.6453 29.5539 37.8671 28.7697 37.1536L34.4174 34.875C34.7122 34.7558 35.0197 34.6237 35.3329 34.478V39.1578H35.333ZM26.4277 35.8873C26.1152 36.0124 25.7704 36.0071 25.4568 35.873C25.1434 35.7387 24.902 35.4926 24.7762 35.1773C24.6504 34.8648 24.6549 34.5198 24.7889 34.2063C24.9233 33.8919 25.1703 33.6496 25.4842 33.5243C25.4934 33.5207 25.5024 33.5167 25.5116 33.5129L30.6917 31.2684L31.9096 33.6757L26.4277 35.8873ZM29.8164 3.201C32.3678 3.24844 35.0893 4.99064 35.5861 8.68916C33.3458 8.26205 28.7759 7.34727 28.2446 7.20959C28.2443 7.20945 28.2442 7.20945 28.2439 7.20932C27.9463 7.13248 27.6712 7.09898 27.4154 7.09898C26.4458 7.09898 25.7559 7.57887 25.1779 7.98096C24.8232 8.22773 24.4798 8.46658 24.0495 8.64131C24.5637 4.97574 27.2746 3.2483 29.8164 3.201ZM23.9628 12.0312V10.8091C25.0614 10.558 25.7879 10.0547 26.349 9.66438C27.0216 9.19652 27.2377 9.06719 27.7305 9.19475V9.19461C28.0986 9.28977 33.4165 10.3778 35.6661 10.7918V12.0312C35.6661 13.7937 33.9838 16.3766 31.6653 17.4802C31.6329 17.493 31.6012 17.5072 31.5705 17.5231C31.4434 17.5809 31.315 17.6355 31.1845 17.684C30.6515 17.8793 30.2296 17.9662 29.8164 17.9662C29.4063 17.9662 28.9703 17.8765 28.4494 17.6857C28.3247 17.6393 28.2008 17.5867 28.0777 17.5305C28.0448 17.5129 28.0107 17.4973 27.9759 17.4832C25.8217 16.4492 23.9628 13.9757 23.9628 12.0312ZM32.1822 19.4942V19.8018C32.1822 21.2944 31.121 22.5087 29.8166 22.5087C28.51 22.5087 27.447 21.2944 27.447 19.8018V19.4938C27.5439 19.5345 27.6413 19.5732 27.7393 19.6097C28.4981 19.8877 29.1581 20.0171 29.8166 20.0171C30.4723 20.0171 31.1313 19.8877 31.8946 19.6081C31.9908 19.5722 32.0868 19.5341 32.1822 19.4942ZM21.1129 21.3321C21.933 20.0018 22.7951 19.4592 24.0885 19.4592H25.3961V19.8019C25.3961 22.4253 27.379 24.5596 29.8164 24.5596C32.2517 24.5596 34.2329 22.4254 34.2329 19.8019V19.4592H35.5405C37.3919 19.4592 38.8983 20.9657 38.8983 22.8173V25.3065C38.8813 25.6327 38.8689 25.9278 38.8575 26.1974C38.7892 27.8265 38.7685 28.3181 38.0394 29.5835C37.2099 31.0218 35.9397 32.0209 33.8171 32.9037L32.5672 30.4329C33.0446 30.1831 33.3845 29.9191 33.8644 29.4157C33.9154 29.3624 33.9603 29.3037 33.9985 29.2407L35.2347 27.2059C35.5288 26.722 35.3749 26.0913 34.8909 25.7972C34.4071 25.5028 33.7762 25.6571 33.4821 26.141L32.3049 28.0788C31.9136 28.4803 31.7353 28.5791 31.1449 28.837L24.7086 31.6259C24.1317 31.8594 23.6451 32.2447 23.285 32.7365C22.3694 32.2319 21.382 31.8619 20.3628 31.5856L22.4506 28.1913C22.7473 27.7089 22.5967 27.0774 22.1144 26.7806C21.6321 26.4841 21.0005 26.6346 20.7039 27.1168L18.2321 31.1351C17.2415 30.9762 16.2472 30.8756 15.2837 30.7989L21.1129 21.3321ZM14.381 36.3364C13.4598 36.2153 12.4167 36.1709 11.2835 36.2753C11.0964 36.2924 10.6668 36.3383 10.6092 36.3442C10.5882 36.2343 9.16057 28.0913 9.16057 28.0913C9.97062 28.4359 11.1908 30.031 11.8605 31.4367C12.2413 32.2425 12.6458 32.5839 13.1876 32.7134C13.8258 32.7955 14.2905 32.7819 14.5009 32.7964C14.7722 32.8158 15.0475 32.8372 15.3243 32.8602L14.381 36.3364ZM21.6215 42.1605C23.2304 43.7013 23.924 45.1344 24.0108 45.6742C23.7013 45.8324 22.9001 45.9375 21.6215 45.9889V42.1605ZM13.0185 48.0766H19.4767C23.457 48.0766 24.8269 47.8416 25.5839 47.0292C25.8305 46.7644 26.1142 46.3014 26.0649 45.6017C25.9354 43.7093 23.3246 39.7903 18.1318 37.3887C17.7714 37.2222 17.176 36.9764 16.3931 36.7529L17.3886 33.0837C19.2668 33.3462 21.1241 33.8048 22.6341 34.7303C22.6368 35.1405 22.7157 35.5502 22.8729 35.9405C23.201 36.7623 23.8319 37.4076 24.6492 37.7579C25.0712 37.9388 25.5158 38.0294 25.9606 38.0294C26.1685 38.0294 26.3766 38.0094 26.5822 37.9698C27.5416 38.7599 28.6146 39.8069 29.2585 40.5917C29.4916 40.8774 29.683 41.1229 29.852 41.3396C30.0755 41.6265 30.2909 41.9016 30.5197 42.13V46.3613C28.6497 46.5166 27.1752 48.0873 27.1752 49.9967C27.1752 50.5667 27.3067 51.1063 27.5408 51.5874H13.0185V48.0766ZM7.97781 46.5061C8.66852 47.9624 9.86221 48.0681 10.9677 48.0758V51.5873H6.82814L5.3926 43.383C6.20854 43.7032 7.35643 45.1898 7.97781 46.5061ZM67.9492 60.9392H37.4474C36.8811 60.9392 36.422 61.3982 36.422 61.9646C36.422 62.5311 36.8811 62.99 37.4474 62.99H63.7094V64.8946C63.7094 65.9449 62.8551 66.7993 61.8049 66.7993H8.19123C7.14109 66.7993 6.28674 65.9449 6.28674 64.8946V62.99H32.9362C33.5025 62.99 33.9616 62.5311 33.9616 61.9646C33.9616 61.3982 33.5025 60.9392 32.9362 60.9392H2.05078V53.6382H5.96244C5.9634 53.6382 5.96449 53.6383 5.96545 53.6383C5.96613 53.6383 37.1891 53.6383 55.3145 53.6382C55.3156 53.6382 55.3167 53.6385 55.3178 53.6385C55.3187 53.6385 67.9492 53.6382 67.9492 53.6382V60.9392Z" fill="black"/>
</g>
<defs>
<clipPath id="clip0">
<rect width="70" height="70" fill="white"/>
</clipPath>
</defs>
</svg>
