<svg width="30" height="26" viewBox="0 0 30 26" fill="none" xmlns="http://www.w3.org/2000/svg">
<path d="M18.6515 1.52178C17.0913 0.0308269 14.6344 0.0308269 13.0742 1.52178C11.534 3.06099 11.5332 5.55734 13.0724 7.09745C13.073 7.09802 13.0736 7.09859 13.0742 7.09916L14.6394 8.66438H4.56459C2.16337 8.66438 0.216797 10.611 0.216797 13.0123C0.216797 15.4135 2.16337 17.3601 4.56459 17.3601H14.6394L13.0742 18.9253C11.6457 20.57 11.8211 23.0612 13.4658 24.4897C14.9543 25.7825 17.1687 25.7777 18.6515 24.4784L28.2916 14.8383C29.3099 13.8196 29.3099 12.1683 28.2916 11.1496L18.6515 1.52178Z" fill="#FAFAFA"/>
</svg>
