<svg width="72" height="68" viewBox="0 0 72 68" fill="none" xmlns="http://www.w3.org/2000/svg">
<path d="M69.3577 59.8706C71.0058 61.4258 71.0058 63.9492 69.3577 65.5045C68.5336 66.2827 67.455 66.6719 66.375 66.6719C65.295 66.6719 64.2164 66.2827 63.3924 65.5045L49.8122 52.6788C52.0299 51.0319 54.0338 49.1393 55.7775 47.0449L69.3577 59.8706Z" fill="#4DBBEB"/>
<path d="M49.7573 41.3591L55.7775 47.0448C54.0337 49.1393 52.0298 51.0319 49.8122 52.6787L43.792 46.993V46.9917C46.08 45.4232 48.0951 43.52 49.7559 41.3591H49.7573Z" fill="#FFF5CD"/>
<path d="M54.8438 26.5625C54.8438 32.0848 52.9552 37.1995 49.7559 41.3591C48.0952 43.52 46.08 45.4232 43.792 46.9917C39.3877 50.0132 33.9722 51.7969 28.125 51.7969C13.3917 51.7969 1.40625 40.4773 1.40625 26.5625C1.40625 12.6477 13.3917 1.32812 28.125 1.32812C42.8583 1.32812 54.8438 12.6477 54.8438 26.5625Z" fill="#4DBBEB"/>
<path d="M28.125 6.64062C39.7561 6.64062 49.2188 15.5776 49.2188 26.5625C49.2188 37.5474 39.7561 46.4844 28.125 46.4844C16.4939 46.4844 7.03125 37.5474 7.03125 26.5625C7.03125 15.5776 16.4939 6.64062 28.125 6.64062Z" fill="#BEE7F4"/>
<path d="M70.352 58.9314L51.5814 41.2036C54.6393 36.8535 56.25 31.8159 56.25 26.5625C56.25 11.9159 43.6331 0 28.125 0C12.6169 0 0 11.9159 0 26.5625C0 41.2091 12.6169 53.125 28.125 53.125C33.6876 53.125 39.0215 51.6036 43.6274 48.7159L48.8157 53.616C48.8164 53.6167 48.8171 53.6173 48.818 53.6181L62.3978 66.4436C63.4607 67.4472 64.873 68 66.375 68C67.877 68 69.2893 67.4472 70.3516 66.444C71.4146 65.4408 72 64.1069 72 62.6875C72 61.2681 71.4146 59.9342 70.352 58.9314ZM45.9163 47.1209C47.3718 45.9964 48.7022 44.7399 49.8928 43.3654L53.8824 47.1334C52.6691 48.4859 51.338 49.7432 49.906 50.889L45.9163 47.1209ZM2.8125 26.5625C2.8125 13.3806 14.1677 2.65625 28.125 2.65625C42.0823 2.65625 53.4375 13.3806 53.4375 26.5625C53.4375 31.6326 51.771 36.4792 48.618 40.5789C47.0406 42.6312 45.1391 44.4272 42.966 45.9169C42.966 45.917 42.9659 45.917 42.9657 45.9171C38.625 48.8948 33.4934 50.4688 28.125 50.4688C14.1677 50.4688 2.8125 39.7444 2.8125 26.5625ZM68.3633 64.5653C67.8317 65.0674 67.1257 65.3438 66.375 65.3438C65.6243 65.3438 64.9183 65.0674 64.3867 64.5653L51.8999 52.7722C53.324 51.618 54.6543 50.3617 55.8764 49.0167L68.3636 60.8102C68.8949 61.3114 69.1875 61.978 69.1875 62.6875C69.1875 63.397 68.8949 64.0636 68.3633 64.5653Z" fill="black"/>
<path d="M50.625 26.5625C50.625 14.8451 40.5316 5.3125 28.125 5.3125C15.7184 5.3125 5.625 14.8451 5.625 26.5625C5.625 38.2799 15.7184 47.8125 28.125 47.8125C40.5316 47.8125 50.625 38.2799 50.625 26.5625ZM28.125 45.1562C17.2693 45.1562 8.4375 36.8151 8.4375 26.5625C8.4375 16.3099 17.2693 7.96875 28.125 7.96875C38.9807 7.96875 47.8125 16.3099 47.8125 26.5625C47.8125 36.8151 38.9807 45.1562 28.125 45.1562Z" fill="black"/>
<path d="M43.0758 22.5775C43.8008 22.3144 44.1627 21.546 43.8842 20.8613C42.6732 17.8847 40.5648 15.3397 37.7866 13.5017C34.9424 11.6198 31.6014 10.625 28.125 10.625C27.3485 10.625 26.7188 11.2197 26.7188 11.9531C26.7188 12.6865 27.3485 13.2813 28.125 13.2813C33.9046 13.2813 39.1825 16.7102 41.2588 21.8141C41.4737 22.3421 42.0065 22.6662 42.5718 22.6662C42.7395 22.6662 42.91 22.6376 43.0758 22.5775Z" fill="black"/>
<path d="M43.5938 25.2344C42.8175 25.2344 42.1875 25.8294 42.1875 26.5625C42.1875 27.2956 42.8175 27.8906 43.5938 27.8906C44.37 27.8906 45 27.2956 45 26.5625C45 25.8294 44.37 25.2344 43.5938 25.2344Z" fill="black"/>
</svg>
