<svg width="35" height="35" viewBox="0 0 35 35" fill="none" xmlns="http://www.w3.org/2000/svg">
<path d="M14.5834 26.25C17.1719 26.2495 19.6858 25.3829 21.7249 23.7884L28.1357 30.1992L30.1978 28.1371L23.787 21.7263C25.3824 19.687 26.2495 17.1725 26.2501 14.5834C26.2501 8.15065 21.0161 2.91669 14.5834 2.91669C8.15071 2.91669 2.91675 8.15065 2.91675 14.5834C2.91675 21.0161 8.15071 26.25 14.5834 26.25ZM14.5834 5.83335C19.409 5.83335 23.3334 9.75773 23.3334 14.5834C23.3334 19.409 19.409 23.3334 14.5834 23.3334C9.75779 23.3334 5.83342 19.409 5.83342 14.5834C5.83342 9.75773 9.75779 5.83335 14.5834 5.83335Z" fill="#6F6F6F"/>
<path d="M16.6426 12.5213C17.1953 13.0755 17.5001 13.8076 17.5001 14.5834H20.4167C20.418 13.8169 20.2674 13.0578 19.9735 12.3499C19.6797 11.6421 19.2484 10.9994 18.7047 10.4592C16.4967 8.25423 12.6686 8.25423 10.4622 10.4592L12.5213 12.5242C13.6297 11.4188 15.5401 11.4217 16.6426 12.5213Z" fill="#6F6F6F"/>
</svg>
