<svg width="74" height="74" viewBox="0 0 74 74" fill="none" xmlns="http://www.w3.org/2000/svg">
<path d="M48.8068 48.3893C45.3592 51.8369 45.7901 58.7936 45.7901 58.7936H28.3059C28.3059 58.7936 28.6753 51.8369 25.2893 48.3893C21.5339 45.0649 19.1329 40.2629 19.1329 34.9068C19.1329 25.0565 27.1362 17.0532 36.9865 17.0532C46.8367 17.0532 54.84 25.0565 54.84 34.9068C54.84 40.2629 52.5006 45.0649 48.8068 48.3893Z" fill="#FFD517"/>
<path d="M46.2826 64.2729C46.2826 65.1964 45.5438 65.9351 44.6204 65.9351H29.4141C28.4906 65.9351 27.7518 65.1964 27.7518 64.2729C27.7518 63.3494 28.4906 62.6107 29.4141 62.6107H44.5588C45.4823 62.6107 46.2826 63.3494 46.2826 64.2729Z" fill="#E5E5E5"/>
<path d="M44.0047 71.1681C44.0047 72.0916 43.2659 72.8303 42.3425 72.8303H31.6919C30.7684 72.8303 30.0297 72.0916 30.0297 71.1681C30.0297 70.2446 30.7684 69.5059 31.6919 69.5059H42.3425C43.2659 69.5059 44.0047 70.2446 44.0047 71.1681Z" fill="#E5E5E5"/>
<path d="M49.7302 49.005C53.7318 45.3727 56.0097 40.2629 56.0097 34.9068C56.0097 24.441 47.4523 15.8835 36.9864 15.8835C26.5205 15.8835 17.9631 24.441 17.9631 34.9068C17.9631 40.3861 20.3641 45.619 24.4274 49.1897C27.444 52.2064 27.1362 58.609 27.1362 58.6706C27.1362 58.9784 27.2593 59.2862 27.444 59.5325C27.6903 59.7787 27.9981 59.9019 28.3059 59.9019H45.7285C46.0363 59.9019 46.3442 59.7787 46.5904 59.5325C46.8367 59.2862 46.8982 58.9784 46.8982 58.6706C46.8982 58.609 46.5904 52.2064 49.6071 49.1897C49.6686 49.1282 49.7302 49.0666 49.7302 49.005ZM48.0064 47.4659C47.8833 47.5275 47.8217 47.6506 47.7601 47.7737C45.0513 50.6673 44.6204 55.4077 44.5588 57.624H29.4756C29.414 55.3461 28.9215 50.421 26.028 47.5275C22.3957 44.3261 20.3026 39.7704 20.3026 34.9684C20.3026 25.7338 27.8134 18.2845 36.9864 18.2845C46.221 18.2845 53.6703 25.7954 53.6703 34.9684C53.6703 39.7088 51.6387 44.3262 48.0064 47.4659Z" fill="#210B20"/>
<path d="M36.9864 20.8087C36.3708 20.8087 35.8167 21.3012 35.8167 21.9784C35.8167 22.594 36.3092 23.1481 36.9864 23.1481C43.8816 23.1481 49.4839 28.7504 49.4839 35.6456C49.4839 36.2612 49.9764 36.8153 50.6537 36.8153C51.2693 36.8153 51.8234 36.3228 51.8234 35.6456C51.8234 27.4576 45.1744 20.8087 36.9864 20.8087Z" fill="#210B20"/>
<path d="M47.4523 64.2729C47.4523 62.6722 46.1595 61.4409 44.6204 61.4409H29.414C27.8134 61.4409 26.5821 62.7338 26.5821 64.2729C26.5821 65.8735 27.8749 67.1048 29.414 67.1048H44.5588C46.1595 67.1048 47.4523 65.8735 47.4523 64.2729ZM44.5588 64.7654H29.414C29.1062 64.7654 28.9215 64.5191 28.9215 64.2729C28.9215 63.965 29.1678 63.7803 29.414 63.7803H44.5588C44.8666 63.7803 45.0513 64.0266 45.0513 64.2729C45.1129 64.5807 44.8666 64.7654 44.5588 64.7654Z" fill="#210B20"/>
<path d="M42.3425 68.3361H31.692C30.0913 68.3361 28.86 69.629 28.86 71.1681C28.86 72.7687 30.1529 74 31.692 74H42.3425C43.9432 74 45.1745 72.7072 45.1745 71.1681C45.1745 69.629 43.8816 68.3361 42.3425 68.3361ZM42.3425 71.6606H31.692C31.3841 71.6606 31.1995 71.4143 31.1995 71.1681C31.1995 70.8602 31.4457 70.6756 31.692 70.6756H42.3425C42.6504 70.6756 42.8351 70.9218 42.8351 71.1681C42.8351 71.4759 42.6504 71.6606 42.3425 71.6606Z" fill="#210B20"/>
<path d="M38.1561 9.04992V1.16972C38.1561 0.554076 37.6636 0 36.9864 0C36.3708 0 35.8167 0.492512 35.8167 1.16972V9.11148C35.8167 9.72712 36.3092 10.2812 36.9864 10.2812C37.6636 10.2196 38.1561 9.72712 38.1561 9.04992Z" fill="#210B20"/>
<path d="M56.3791 5.84857C55.825 5.47919 55.1478 5.66388 54.7784 6.15639L50.4074 12.7437C50.038 13.2978 50.2227 13.975 50.7152 14.3444C50.8999 14.4675 51.1461 14.5291 51.3308 14.5291C51.7002 14.5291 52.0696 14.3444 52.3159 14.0366L56.6869 7.44924C57.0563 6.95673 56.8716 6.21796 56.3791 5.84857Z" fill="#210B20"/>
<path d="M23.073 14.2828C23.2577 14.2828 23.5039 14.2213 23.6886 14.0981C24.2427 13.7288 24.3658 13.0516 24.058 12.4975L19.8101 5.84856C19.4407 5.29448 18.7635 5.17135 18.2094 5.47917C17.6554 5.84856 17.5322 6.52576 17.84 7.07984L22.088 13.7288C22.3342 14.0981 22.7036 14.2828 23.073 14.2828Z" fill="#210B20"/>
<path d="M6.7585 19.8236L13.7152 23.579C13.8999 23.7022 14.0846 23.7022 14.2693 23.7022C14.7003 23.7022 15.0696 23.4559 15.3159 23.0865C15.6237 22.5324 15.439 21.7937 14.8234 21.4859L7.86665 17.7305C7.31257 17.4226 6.57381 17.6073 6.26599 18.223C6.01973 18.8386 6.20442 19.5158 6.7585 19.8236Z" fill="#210B20"/>
<path d="M59.7036 23.7637C59.8883 23.7637 60.073 23.7021 60.2577 23.6406L67.2144 19.8852C67.7685 19.5774 68.0148 18.9001 67.707 18.2845C67.3991 17.7304 66.7219 17.4842 66.1063 17.792L59.1496 21.5474C58.5955 21.8552 58.3492 22.5324 58.657 23.1481C58.8417 23.5175 59.2727 23.7637 59.7036 23.7637Z" fill="#210B20"/>
</svg>
