<svg width="28" height="28" viewBox="0 0 28 28" fill="none" xmlns="http://www.w3.org/2000/svg">
<path d="M13.9999 22.1667C14.2307 22.1667 14.4562 22.0982 14.6481 21.97C14.8399 21.8418 14.9895 21.6596 15.0778 21.4465C15.1661 21.2333 15.1892 20.9987 15.1442 20.7724C15.0992 20.5461 14.988 20.3382 14.8249 20.175C14.6617 20.0119 14.4538 19.9008 14.2275 19.8557C14.0012 19.8107 13.7666 19.8338 13.5535 19.9221C13.3403 20.0104 13.1581 20.16 13.0299 20.3518C12.9017 20.5437 12.8333 20.7692 12.8333 21C12.8333 21.3094 12.9562 21.6062 13.175 21.8249C13.3938 22.0437 13.6905 22.1667 13.9999 22.1667ZM19.8333 22.1667C20.064 22.1667 20.2896 22.0982 20.4814 21.97C20.6733 21.8418 20.8228 21.6596 20.9111 21.4465C20.9994 21.2333 21.0225 20.9987 20.9775 20.7724C20.9325 20.5461 20.8214 20.3382 20.6582 20.175C20.4951 20.0119 20.2872 19.9008 20.0609 19.8557C19.8345 19.8107 19.6 19.8338 19.3868 19.9221C19.1736 20.0104 18.9914 20.16 18.8632 20.3518C18.735 20.5437 18.6666 20.7692 18.6666 21C18.6666 21.3094 18.7895 21.6062 19.0083 21.8249C19.2271 22.0437 19.5238 22.1667 19.8333 22.1667ZM19.8333 17.5C20.064 17.5 20.2896 17.4316 20.4814 17.3034C20.6733 17.1752 20.8228 16.993 20.9111 16.7798C20.9994 16.5666 21.0225 16.332 20.9775 16.1057C20.9325 15.8794 20.8214 15.6715 20.6582 15.5084C20.4951 15.3452 20.2872 15.2341 20.0609 15.1891C19.8345 15.1441 19.6 15.1672 19.3868 15.2555C19.1736 15.3438 18.9914 15.4933 18.8632 15.6852C18.735 15.877 18.6666 16.1026 18.6666 16.3333C18.6666 16.6427 18.7895 16.9395 19.0083 17.1583C19.2271 17.3771 19.5238 17.5 19.8333 17.5ZM13.9999 17.5C14.2307 17.5 14.4562 17.4316 14.6481 17.3034C14.8399 17.1752 14.9895 16.993 15.0778 16.7798C15.1661 16.5666 15.1892 16.332 15.1442 16.1057C15.0992 15.8794 14.988 15.6715 14.8249 15.5084C14.6617 15.3452 14.4538 15.2341 14.2275 15.1891C14.0012 15.1441 13.7666 15.1672 13.5535 15.2555C13.3403 15.3438 13.1581 15.4933 13.0299 15.6852C12.9017 15.877 12.8333 16.1026 12.8333 16.3333C12.8333 16.6427 12.9562 16.9395 13.175 17.1583C13.3938 17.3771 13.6905 17.5 13.9999 17.5ZM22.1666 3.49999H20.9999V2.33332C20.9999 2.0239 20.877 1.72716 20.6582 1.50837C20.4394 1.28957 20.1427 1.16666 19.8333 1.16666C19.5238 1.16666 19.2271 1.28957 19.0083 1.50837C18.7895 1.72716 18.6666 2.0239 18.6666 2.33332V3.49999H9.33325V2.33332C9.33325 2.0239 9.21034 1.72716 8.99154 1.50837C8.77275 1.28957 8.47601 1.16666 8.16659 1.16666C7.85717 1.16666 7.56042 1.28957 7.34163 1.50837C7.12284 1.72716 6.99992 2.0239 6.99992 2.33332V3.49999H5.83325C4.90499 3.49999 4.01476 3.86874 3.35838 4.52512C2.702 5.18149 2.33325 6.07173 2.33325 6.99999V23.3333C2.33325 24.2616 2.702 25.1518 3.35838 25.8082C4.01476 26.4646 4.90499 26.8333 5.83325 26.8333H22.1666C23.0948 26.8333 23.9851 26.4646 24.6415 25.8082C25.2978 25.1518 25.6666 24.2616 25.6666 23.3333V6.99999C25.6666 6.07173 25.2978 5.18149 24.6415 4.52512C23.9851 3.86874 23.0948 3.49999 22.1666 3.49999ZM23.3333 23.3333C23.3333 23.6427 23.2103 23.9395 22.9915 24.1583C22.7728 24.3771 22.476 24.5 22.1666 24.5H5.83325C5.52383 24.5 5.22709 24.3771 5.00829 24.1583C4.7895 23.9395 4.66659 23.6427 4.66659 23.3333V12.8333H23.3333V23.3333ZM23.3333 10.5H4.66659V6.99999C4.66659 6.69057 4.7895 6.39382 5.00829 6.17503C5.22709 5.95624 5.52383 5.83332 5.83325 5.83332H6.99992V6.99999C6.99992 7.30941 7.12284 7.60615 7.34163 7.82495C7.56042 8.04374 7.85717 8.16666 8.16659 8.16666C8.47601 8.16666 8.77275 8.04374 8.99154 7.82495C9.21034 7.60615 9.33325 7.30941 9.33325 6.99999V5.83332H18.6666V6.99999C18.6666 7.30941 18.7895 7.60615 19.0083 7.82495C19.2271 8.04374 19.5238 8.16666 19.8333 8.16666C20.1427 8.16666 20.4394 8.04374 20.6582 7.82495C20.877 7.60615 20.9999 7.30941 20.9999 6.99999V5.83332H22.1666C22.476 5.83332 22.7728 5.95624 22.9915 6.17503C23.2103 6.39382 23.3333 6.69057 23.3333 6.99999V10.5ZM8.16659 17.5C8.39733 17.5 8.62289 17.4316 8.81475 17.3034C9.00661 17.1752 9.15614 16.993 9.24445 16.7798C9.33275 16.5666 9.35585 16.332 9.31084 16.1057C9.26582 15.8794 9.1547 15.6715 8.99154 15.5084C8.82838 15.3452 8.6205 15.2341 8.39419 15.1891C8.16788 15.1441 7.9333 15.1672 7.72012 15.2555C7.50694 15.3438 7.32473 15.4933 7.19654 15.6852C7.06834 15.877 6.99992 16.1026 6.99992 16.3333C6.99992 16.6427 7.12284 16.9395 7.34163 17.1583C7.56042 17.3771 7.85717 17.5 8.16659 17.5ZM8.16659 22.1667C8.39733 22.1667 8.62289 22.0982 8.81475 21.97C9.00661 21.8418 9.15614 21.6596 9.24445 21.4465C9.33275 21.2333 9.35585 20.9987 9.31084 20.7724C9.26582 20.5461 9.1547 20.3382 8.99154 20.175C8.82838 20.0119 8.6205 19.9008 8.39419 19.8557C8.16788 19.8107 7.9333 19.8338 7.72012 19.9221C7.50694 20.0104 7.32473 20.16 7.19654 20.3518C7.06834 20.5437 6.99992 20.7692 6.99992 21C6.99992 21.3094 7.12284 21.6062 7.34163 21.8249C7.56042 22.0437 7.85717 22.1667 8.16659 22.1667Z" fill="#396F78" fill-opacity="0.8"/>
</svg>
