<svg width="28" height="28" viewBox="0 0 28 28" fill="none" xmlns="http://www.w3.org/2000/svg">
<path d="M4.375 5.6875C4.375 4.87527 4.69766 4.09632 5.27199 3.52199C5.84632 2.94766 6.62527 2.625 7.4375 2.625H20.5625C21.3747 2.625 22.1537 2.94766 22.728 3.52199C23.3023 4.09632 23.625 4.87527 23.625 5.6875V21C23.625 21.4641 23.4406 21.9092 23.1124 22.2374C22.7842 22.5656 22.3391 22.75 21.875 22.75H6.19938C6.28989 23.006 6.45757 23.2276 6.67932 23.3844C6.90107 23.5411 7.16596 23.6251 7.4375 23.625H22.75C22.9821 23.625 23.2046 23.7172 23.3687 23.8813C23.5328 24.0454 23.625 24.2679 23.625 24.5C23.625 24.7321 23.5328 24.9546 23.3687 25.1187C23.2046 25.2828 22.9821 25.375 22.75 25.375H7.4375C6.62527 25.375 5.84632 25.0523 5.27199 24.478C4.69766 23.9037 4.375 23.1247 4.375 22.3125V5.6875ZM18.375 14.4375C18.375 14.0894 18.2367 13.7556 17.9906 13.5094C17.7444 13.2633 17.4106 13.125 17.0625 13.125H10.9375C10.5894 13.125 10.2556 13.2633 10.0094 13.5094C9.76328 13.7556 9.625 14.0894 9.625 14.4375V14.875C9.625 16.5996 11.2525 18.375 14 18.375C16.7475 18.375 18.375 16.5996 18.375 14.875V14.4375ZM16.4062 9.84375C16.4062 9.20557 16.1527 8.59353 15.7015 8.14227C15.2502 7.69101 14.6382 7.4375 14 7.4375C13.3618 7.4375 12.7498 7.69101 12.2985 8.14227C11.8473 8.59353 11.5938 9.20557 11.5938 9.84375C11.5938 10.4819 11.8473 11.094 12.2985 11.5452C12.7498 11.9965 13.3618 12.25 14 12.25C14.6382 12.25 15.2502 11.9965 15.7015 11.5452C16.1527 11.094 16.4062 10.4819 16.4062 9.84375Z" fill="#396F78"/>
</svg>
