<svg width="28" height="28" viewBox="0 0 28 28" fill="none" xmlns="http://www.w3.org/2000/svg">
<path d="M12.8333 0V3.5H15.1667V0H12.8333ZM9.19333 1.70333L7.53667 3.34833L10.0217 5.83333L11.6667 4.17667L9.19333 1.70333ZM18.8067 1.70333L16.3333 4.17667L17.9783 5.83333L20.4633 3.36L18.8067 1.70333V1.70333ZM14 5.83333C13.3812 5.83333 12.7877 6.07917 12.3501 6.51675C11.9125 6.95434 11.6667 7.54783 11.6667 8.16667V9.33333H7.58333C6.81333 9.33333 6.16 9.82333 5.92667 10.5L3.5 17.5V26.8333C3.5 27.1428 3.62292 27.4395 3.84171 27.6583C4.0605 27.8771 4.35725 28 4.66667 28H5.83333C6.14275 28 6.4395 27.8771 6.65829 27.6583C6.87708 27.4395 7 27.1428 7 26.8333V25.6667H21V26.8333C21 27.1428 21.1229 27.4395 21.3417 27.6583C21.5605 27.8771 21.8572 28 22.1667 28H23.3333C23.6428 28 23.9395 27.8771 24.1583 27.6583C24.3771 27.4395 24.5 27.1428 24.5 26.8333V17.5L22.0733 10.5C21.84 9.82333 21.1867 9.33333 20.4167 9.33333H16.3333V8.16667C16.3333 7.54783 16.0875 6.95434 15.6499 6.51675C15.2123 6.07917 14.6188 5.83333 14 5.83333V5.83333ZM7.58333 11.0833H20.4167L22.1667 16.3333H5.83333L7.58333 11.0833ZM7.58333 18.6667C8.04746 18.6667 8.49258 18.851 8.82077 19.1792C9.14896 19.5074 9.33333 19.9525 9.33333 20.4167C9.33333 20.8808 9.14896 21.3259 8.82077 21.6541C8.49258 21.9823 8.04746 22.1667 7.58333 22.1667C7.1192 22.1667 6.67408 21.9823 6.3459 21.6541C6.01771 21.3259 5.83333 20.8808 5.83333 20.4167C5.83333 19.9525 6.01771 19.5074 6.3459 19.1792C6.67408 18.851 7.1192 18.6667 7.58333 18.6667V18.6667ZM20.4167 18.6667C20.8808 18.6667 21.3259 18.851 21.6541 19.1792C21.9823 19.5074 22.1667 19.9525 22.1667 20.4167C22.1667 20.8808 21.9823 21.3259 21.6541 21.6541C21.3259 21.9823 20.8808 22.1667 20.4167 22.1667C19.9525 22.1667 19.5074 21.9823 19.1792 21.6541C18.851 21.3259 18.6667 20.8808 18.6667 20.4167C18.6667 19.9525 18.851 19.5074 19.1792 19.1792C19.5074 18.851 19.9525 18.6667 20.4167 18.6667V18.6667Z" fill="#396F78" fill-opacity="0.8"/>
</svg>
