<svg width="28" height="28" viewBox="0 0 28 28" fill="none" xmlns="http://www.w3.org/2000/svg">
<path d="M22.75 12.25H21V14H22.75C23.446 14.0007 24.1133 14.2775 24.6054 14.7696C25.0975 15.2617 25.3743 15.929 25.375 16.625V20.125H27.125V16.625C27.1236 15.4651 26.6622 14.3531 25.8421 13.5329C25.0219 12.7128 23.9099 12.2514 22.75 12.25Z" fill="#396F78" fill-opacity="0.8"/>
<path d="M21 3.5C21.5192 3.5 22.0267 3.65395 22.4584 3.94239C22.8901 4.23083 23.2265 4.6408 23.4252 5.12046C23.6239 5.60011 23.6758 6.12791 23.5746 6.63711C23.4733 7.14631 23.2233 7.61404 22.8562 7.98116C22.489 8.34827 22.0213 8.59828 21.5121 8.69956C21.0029 8.80085 20.4751 8.74886 19.9955 8.55018C19.5158 8.3515 19.1058 8.01505 18.8174 7.58337C18.529 7.15169 18.375 6.64418 18.375 6.125C18.375 5.42881 18.6516 4.76113 19.1438 4.26884C19.6361 3.77656 20.3038 3.5 21 3.5V3.5ZM21 1.75C20.1347 1.75 19.2888 2.00659 18.5694 2.48732C17.8499 2.96805 17.2892 3.65133 16.958 4.45076C16.6269 5.25019 16.5403 6.12985 16.7091 6.97852C16.8779 7.82719 17.2946 8.60674 17.9064 9.21859C18.5183 9.83045 19.2978 10.2471 20.1465 10.4159C20.9951 10.5847 21.8748 10.4981 22.6742 10.167C23.4737 9.83584 24.157 9.27509 24.6377 8.55562C25.1184 7.83616 25.375 6.99029 25.375 6.125C25.375 4.96468 24.9141 3.85188 24.0936 3.03141C23.2731 2.21094 22.1603 1.75 21 1.75V1.75Z" fill="#396F78" fill-opacity="0.8"/>
<path d="M20.125 26.25H18.375V24.5C18.3743 23.804 18.0975 23.1367 17.6054 22.6446C17.1133 22.1525 16.446 21.8757 15.75 21.875H12.25C11.554 21.8757 10.8867 22.1525 10.3946 22.6446C9.90248 23.1367 9.62569 23.804 9.625 24.5V26.25H7.875V24.5C7.87639 23.3401 8.33777 22.2281 9.15794 21.4079C9.97811 20.5878 11.0901 20.1264 12.25 20.125H15.75C16.9099 20.1264 18.0219 20.5878 18.8421 21.4079C19.6622 22.2281 20.1236 23.3401 20.125 24.5V26.25Z" fill="#396F78" fill-opacity="0.8"/>
<path d="M14 11.375C14.5192 11.375 15.0267 11.529 15.4584 11.8174C15.8901 12.1058 16.2265 12.5158 16.4252 12.9955C16.6239 13.4751 16.6759 14.0029 16.5746 14.5121C16.4733 15.0213 16.2233 15.489 15.8562 15.8562C15.489 16.2233 15.0213 16.4733 14.5121 16.5746C14.0029 16.6758 13.4751 16.6239 12.9955 16.4252C12.5158 16.2265 12.1058 15.8901 11.8174 15.4584C11.529 15.0267 11.375 14.5192 11.375 14C11.375 13.3038 11.6516 12.6361 12.1438 12.1438C12.6361 11.6516 13.3038 11.375 14 11.375V11.375ZM14 9.625C13.1347 9.625 12.2888 9.88159 11.5694 10.3623C10.8499 10.8431 10.2892 11.5263 9.95803 12.3258C9.6269 13.1252 9.54026 14.0049 9.70907 14.8535C9.87788 15.7022 10.2946 16.4817 10.9064 17.0936C11.5183 17.7054 12.2978 18.1221 13.1465 18.2909C13.9951 18.4597 14.8748 18.3731 15.6742 18.042C16.4737 17.7108 17.157 17.1501 17.6377 16.4306C18.1184 15.7112 18.375 14.8653 18.375 14C18.375 12.8397 17.9141 11.7269 17.0936 10.9064C16.2731 10.0859 15.1603 9.625 14 9.625Z" fill="#396F78" fill-opacity="0.8"/>
<path d="M7 12.25H5.25C4.0901 12.2514 2.97811 12.7128 2.15794 13.5329C1.33777 14.3531 0.876389 15.4651 0.875 16.625V20.125H2.625V16.625C2.62569 15.929 2.90248 15.2617 3.39461 14.7696C3.88674 14.2775 4.55402 14.0007 5.25 14H7V12.25Z" fill="#396F78" fill-opacity="0.8"/>
<path d="M7 3.5C7.51918 3.5 8.0267 3.65395 8.45837 3.94239C8.89005 4.23083 9.22651 4.6408 9.42519 5.12046C9.62387 5.60011 9.67585 6.12791 9.57456 6.63711C9.47328 7.14631 9.22327 7.61404 8.85616 7.98116C8.48904 8.34827 8.02131 8.59828 7.51211 8.69956C7.00291 8.80085 6.47511 8.74886 5.99546 8.55018C5.5158 8.3515 5.10583 8.01505 4.81739 7.58337C4.52896 7.15169 4.375 6.64418 4.375 6.125C4.375 5.42881 4.65156 4.76113 5.14385 4.26884C5.63613 3.77656 6.30381 3.5 7 3.5V3.5ZM7 1.75C6.13471 1.75 5.28885 2.00659 4.56938 2.48732C3.84992 2.96805 3.28916 3.65133 2.95803 4.45076C2.6269 5.25019 2.54026 6.12985 2.70907 6.97852C2.87788 7.82719 3.29456 8.60674 3.90641 9.21859C4.51826 9.83045 5.29782 10.2471 6.14648 10.4159C6.99515 10.5847 7.87482 10.4981 8.67424 10.167C9.47367 9.83584 10.1569 9.27509 10.6377 8.55562C11.1184 7.83616 11.375 6.99029 11.375 6.125C11.375 4.96468 10.9141 3.85188 10.0936 3.03141C9.27312 2.21094 8.16032 1.75 7 1.75V1.75Z" fill="#396F78" fill-opacity="0.8"/>
</svg>
