<svg width="28" height="28" viewBox="0 0 28 28" fill="none" xmlns="http://www.w3.org/2000/svg">
<path d="M25.6667 2.33333H2.33341C2.024 2.33333 1.72725 2.45624 1.50846 2.67504C1.28966 2.89383 1.16675 3.19058 1.16675 3.49999V12.8333C1.16675 13.1427 1.28966 13.4395 1.50846 13.6583C1.72725 13.8771 2.024 14 2.33341 14H5.83341V24.5C5.83341 24.8094 5.95633 25.1062 6.17512 25.325C6.39392 25.5437 6.69066 25.6667 7.00008 25.6667H21.0001C21.3095 25.6667 21.6062 25.5437 21.825 25.325C22.0438 25.1062 22.1667 24.8094 22.1667 24.5V14H25.6667C25.9762 14 26.2729 13.8771 26.4917 13.6583C26.7105 13.4395 26.8334 13.1427 26.8334 12.8333V3.49999C26.8334 3.19058 26.7105 2.89383 26.4917 2.67504C26.2729 2.45624 25.9762 2.33333 25.6667 2.33333ZM8.16675 23.3333V21C8.78559 21 9.37908 21.2458 9.81666 21.6834C10.2542 22.121 10.5001 22.7145 10.5001 23.3333H8.16675ZM19.8334 23.3333H17.5001C17.5001 22.7145 17.7459 22.121 18.1835 21.6834C18.6211 21.2458 19.2146 21 19.8334 21V23.3333ZM19.8334 18.6667C18.5957 18.6667 17.4088 19.1583 16.5336 20.0335C15.6584 20.9087 15.1667 22.0957 15.1667 23.3333H12.8334C12.8334 22.0957 12.3417 20.9087 11.4666 20.0335C10.5914 19.1583 9.40442 18.6667 8.16675 18.6667V9.33333H19.8334V18.6667ZM24.5001 11.6667H22.1667V8.16666C22.1667 7.85724 22.0438 7.5605 21.825 7.3417C21.6062 7.12291 21.3095 7 21.0001 7H7.00008C6.69066 7 6.39392 7.12291 6.17512 7.3417C5.95633 7.5605 5.83341 7.85724 5.83341 8.16666V11.6667H3.50008V4.66666H24.5001V11.6667ZM14.0001 17.5C14.6923 17.5 15.369 17.2947 15.9446 16.9101C16.5201 16.5256 16.9688 15.9789 17.2337 15.3394C17.4986 14.6998 17.5679 13.9961 17.4328 13.3172C17.2978 12.6382 16.9644 12.0146 16.475 11.5251C15.9855 11.0356 15.3618 10.7023 14.6829 10.5672C14.004 10.4322 13.3002 10.5015 12.6607 10.7664C12.0211 11.0313 11.4745 11.4799 11.0899 12.0555C10.7054 12.6311 10.5001 13.3078 10.5001 14C10.5001 14.9283 10.8688 15.8185 11.5252 16.4749C12.1816 17.1312 13.0718 17.5 14.0001 17.5ZM14.0001 12.8333C14.2308 12.8333 14.4564 12.9018 14.6482 13.0299C14.8401 13.1581 14.9896 13.3404 15.0779 13.5535C15.1662 13.7667 15.1893 14.0013 15.1443 14.2276C15.0993 14.4539 14.9882 14.6618 14.825 14.825C14.6619 14.9881 14.454 15.0992 14.2277 15.1442C14.0014 15.1893 13.7668 15.1662 13.5536 15.0779C13.3404 14.9896 13.1582 14.84 13.03 14.6482C12.9018 14.4563 12.8334 14.2307 12.8334 14C12.8334 13.6906 12.9563 13.3938 13.1751 13.175C13.3939 12.9562 13.6907 12.8333 14.0001 12.8333Z" fill="#396F78" fill-opacity="0.8"/>
</svg>
