<svg width="28" height="28" viewBox="0 0 28 28" fill="none" xmlns="http://www.w3.org/2000/svg">
<path d="M23.3334 9.33334L16.3334 3.19667C15.6918 2.62273 14.861 2.30542 14.0001 2.30542C13.1392 2.30542 12.3085 2.62273 11.6668 3.19667L4.66678 9.33334C4.29621 9.66476 4.00049 10.0713 3.79933 10.526C3.59816 10.9806 3.49616 11.4729 3.50011 11.97V22.1667C3.50011 23.0949 3.86886 23.9852 4.52524 24.6415C5.18161 25.2979 6.07185 25.6667 7.00011 25.6667H21.0001C21.9284 25.6667 22.8186 25.2979 23.475 24.6415C24.1314 23.9852 24.5001 23.0949 24.5001 22.1667V11.9583C24.5024 11.4632 24.3996 10.9731 24.1985 10.5206C23.9974 10.0681 23.7025 9.66346 23.3334 9.33334ZM16.3334 23.3333H11.6668V17.5C11.6668 17.1906 11.7897 16.8938 12.0085 16.675C12.2273 16.4563 12.524 16.3333 12.8334 16.3333H15.1668C15.4762 16.3333 15.7729 16.4563 15.9917 16.675C16.2105 16.8938 16.3334 17.1906 16.3334 17.5V23.3333ZM22.1668 22.1667C22.1668 22.4761 22.0439 22.7728 21.8251 22.9916C21.6063 23.2104 21.3095 23.3333 21.0001 23.3333H18.6668V17.5C18.6668 16.5717 18.298 15.6815 17.6417 15.0251C16.9853 14.3688 16.095 14 15.1668 14H12.8334C11.9052 14 11.0149 14.3688 10.3586 15.0251C9.70219 15.6815 9.33344 16.5717 9.33344 17.5V23.3333H7.00011C6.69069 23.3333 6.39395 23.2104 6.17515 22.9916C5.95636 22.7728 5.83344 22.4761 5.83344 22.1667V11.9583C5.83365 11.7927 5.86914 11.629 5.93753 11.4781C6.00593 11.3272 6.10566 11.1927 6.23011 11.0833L13.2301 4.95834C13.443 4.7713 13.7167 4.66815 14.0001 4.66815C14.2835 4.66815 14.5572 4.7713 14.7701 4.95834L21.7701 11.0833C21.8946 11.1927 21.9943 11.3272 22.0627 11.4781C22.1311 11.629 22.1666 11.7927 22.1668 11.9583V22.1667Z" fill="#396F78"/>
</svg>
