<svg width="28" height="28" viewBox="0 0 28 28" fill="none" xmlns="http://www.w3.org/2000/svg">
<path d="M8 13.3438V11.1562C8 10.7938 8.33581 10.5 8.75 10.5H11.25C11.6642 10.5 12 10.7938 12 11.1562V13.3438C12 13.7062 11.6642 14 11.25 14H8.75C8.33581 14 8 13.7062 8 13.3438ZM16.75 14H19.25C19.6642 14 20 13.7062 20 13.3438V11.1562C20 10.7938 19.6642 10.5 19.25 10.5H16.75C16.3358 10.5 16 10.7938 16 11.1562V13.3438C16 13.7062 16.3358 14 16.75 14ZM12 18.5938V16.4062C12 16.0438 11.6642 15.75 11.25 15.75H8.75C8.33581 15.75 8 16.0438 8 16.4062V18.5938C8 18.9562 8.33581 19.25 8.75 19.25H11.25C11.6642 19.25 12 18.9562 12 18.5938ZM16.75 19.25H19.25C19.6642 19.25 20 18.9562 20 18.5938V16.4062C20 16.0438 19.6642 15.75 19.25 15.75H16.75C16.3358 15.75 16 16.0438 16 16.4062V18.5938C16 18.9562 16.3358 19.25 16.75 19.25ZM28 26.0312V28H0V26.0312C0 25.6688 0.335813 25.375 0.75 25.375H1.96875V4.65035C1.96875 4.01505 2.64031 3.5 3.46875 3.5H9V1.3125C9 0.587617 9.67156 0 10.5 0H17.5C18.3284 0 19 0.587617 19 1.3125V3.5H24.5312C25.3597 3.5 26.0312 4.01505 26.0312 4.65035V25.375H27.25C27.6642 25.375 28 25.6688 28 26.0312ZM4.96875 25.3203H12V21.6562C12 21.2938 12.3358 21 12.75 21H15.25C15.6642 21 16 21.2938 16 21.6562V25.3203H23.0312V6.125H19V7.4375C19 8.16238 18.3284 8.75 17.5 8.75H10.5C9.67156 8.75 9 8.16238 9 7.4375V6.125H4.96875V25.3203ZM16.625 3.5H15V2.07812C15 1.9911 14.9605 1.90764 14.8902 1.84611C14.8198 1.78457 14.7245 1.75 14.625 1.75H13.375C13.2755 1.75 13.1802 1.78457 13.1098 1.84611C13.0395 1.90764 13 1.9911 13 2.07812V3.5H11.375C11.2755 3.5 11.1802 3.53457 11.1098 3.59611C11.0395 3.65764 11 3.7411 11 3.82812V4.92188C11 5.0089 11.0395 5.09236 11.1098 5.15389C11.1802 5.21543 11.2755 5.25 11.375 5.25H13V6.67188C13 6.7589 13.0395 6.84236 13.1098 6.90389C13.1802 6.96543 13.2755 7 13.375 7H14.625C14.7245 7 14.8198 6.96543 14.8902 6.90389C14.9605 6.84236 15 6.7589 15 6.67188V5.25H16.625C16.7245 5.25 16.8198 5.21543 16.8902 5.15389C16.9605 5.09236 17 5.0089 17 4.92188V3.82812C17 3.7411 16.9605 3.65764 16.8902 3.59611C16.8198 3.53457 16.7245 3.5 16.625 3.5Z" fill="#396F78"/>
</svg>
