<svg width="28" height="28" viewBox="0 0 28 28" fill="none" xmlns="http://www.w3.org/2000/svg">
<path fill-rule="evenodd" clip-rule="evenodd" d="M18.2992 15.1171L14.5099 17.3046L16.5516 20.8408L20.3403 18.6532C20.8054 18.3806 21.1438 17.935 21.2816 17.4138C21.4194 16.8926 21.3454 16.338 21.0759 15.8711C20.8063 15.4042 20.363 15.0629 19.8427 14.9216C19.3224 14.7803 18.7673 14.8506 18.2986 15.1171H18.2992ZM17.1343 21.8517L20.9231 19.6642C21.6539 19.2357 22.1857 18.5355 22.4022 17.7164C22.6188 16.8974 22.5026 16.0259 22.0789 15.2922C21.6553 14.5585 20.9587 14.0221 20.1411 13.8001C19.3234 13.5782 18.4512 13.6886 17.7147 14.1073L13.926 16.2948C13.8873 16.2278 13.8236 16.179 13.7489 16.1589C13.6742 16.1389 13.5945 16.1494 13.5276 16.1881L9.23422 18.6667C8.83296 18.8948 8.48079 19.2001 8.19798 19.5649C7.91518 19.9297 7.70732 20.3468 7.58638 20.7922C7.46544 21.2377 7.43381 21.7027 7.49331 22.1604C7.5528 22.6181 7.70225 23.0596 7.93304 23.4593C8.16384 23.859 8.47142 24.2092 8.83809 24.4896C9.20475 24.7699 9.62326 24.975 10.0695 25.093C10.5158 25.211 10.9809 25.2395 11.4383 25.177C11.8956 25.1145 12.336 24.9621 12.7342 24.7287L17.0281 22.2495C17.0951 22.2108 17.144 22.1471 17.164 22.0724C17.184 21.9977 17.1736 21.9181 17.1349 21.8511L17.1343 21.8517ZM11.6527 18.5045L9.46872 19.7528C8.58963 20.2545 8.19938 21.2777 8.44205 22.2098C8.52255 22.5219 8.88772 22.6193 9.16772 22.4595C9.30772 22.3796 9.35263 22.2017 9.3048 22.0477C9.1263 21.469 9.36197 20.8209 9.90272 20.5123L12.0867 19.264C12.1845 19.205 12.2554 19.1101 12.2841 18.9995C12.3129 18.8889 12.2973 18.7715 12.2406 18.6723C12.1839 18.5731 12.0907 18.5001 11.9808 18.4687C11.871 18.4373 11.7532 18.4502 11.6527 18.5045V18.5045Z" fill="#396F78"/>
<path fill-rule="evenodd" clip-rule="evenodd" d="M13.5672 16.8385L11.7881 17.8658C12.0195 17.847 12.2504 17.9077 12.4427 18.0379C12.635 18.1681 12.7772 18.3599 12.8457 18.5818C12.9143 18.8036 12.9052 19.0422 12.8199 19.2582C12.7347 19.4742 12.5783 19.6546 12.3766 19.7698L10.1926 21.0181C9.89922 21.1855 9.76097 21.5466 9.86305 21.875C9.96805 22.2133 9.89805 22.7138 9.45763 22.9653C9.32212 23.0435 9.17192 23.0929 9.01644 23.1103C8.86095 23.1278 8.70354 23.113 8.55405 23.0668C8.48938 23.0462 8.42686 23.0195 8.36738 22.9868C8.54382 23.3449 8.79188 23.6629 9.0962 23.9212C9.40051 24.1795 9.75461 24.3726 10.1366 24.4885C10.5185 24.6045 10.9202 24.6408 11.3168 24.5952C11.7133 24.5496 12.0963 24.4231 12.442 24.2235L16.4839 21.8902L13.5672 16.8385V16.8385ZM14.5099 17.3052L18.2986 15.1177C18.7668 14.8579 19.3183 14.7924 19.8344 14.9353C20.3504 15.0783 20.7896 15.4182 21.0573 15.8819C21.3251 16.3456 21.4 16.8959 21.2659 17.4143C21.1317 17.9327 20.7994 18.3776 20.3403 18.6533L16.5516 20.8408L14.5099 17.3046V17.3052ZM17.1349 21.8511L20.9236 19.6636C21.6545 19.2351 22.1862 18.5349 22.4028 17.7159C22.6193 16.8968 22.5031 16.0253 22.0795 15.2916C21.6559 14.5579 20.9593 14.0215 20.1416 13.7996C19.324 13.5776 18.4518 13.688 17.7153 14.1068L13.9266 16.2943C13.8879 16.2273 13.8242 16.1784 13.7495 16.1584C13.6747 16.1383 13.5951 16.1488 13.5281 16.1875L9.23422 18.6667C8.83296 18.8948 8.48079 19.2001 8.19798 19.5649C7.91518 19.9297 7.70732 20.3468 7.58638 20.7922C7.46544 21.2377 7.43381 21.7027 7.49331 22.1604C7.5528 22.6181 7.70225 23.0596 7.93304 23.4593C8.16384 23.8591 8.47142 24.2092 8.83809 24.4896C9.20475 24.77 9.62326 24.975 10.0695 25.093C10.5158 25.211 10.9809 25.2395 11.4383 25.177C11.8956 25.1145 12.336 24.9621 12.7342 24.7287L17.0281 22.2495C17.0951 22.2108 17.144 22.1471 17.164 22.0724C17.184 21.9977 17.1736 21.9181 17.1349 21.8511V21.8511ZM9.4693 19.7517L11.6533 18.5033C11.7541 18.4458 11.8736 18.4306 11.9856 18.4612C12.0976 18.4918 12.1928 18.5656 12.2503 18.6664C12.3079 18.7672 12.323 18.8867 12.2925 18.9987C12.2619 19.1106 12.1881 19.2059 12.0873 19.2634L9.9033 20.5118C9.36255 20.8203 9.12688 21.4684 9.30538 22.0471C9.35322 22.2011 9.3083 22.379 9.1683 22.4589C8.8883 22.6188 8.52313 22.5213 8.44205 22.2093C8.19997 21.2771 8.59022 20.2539 9.46872 19.7517H9.4693Z" fill="#396F78"/>
<path d="M22.9862 10.3332C23.0141 10.3622 23.048 10.3848 23.0855 10.3994C23.1231 10.414 23.1634 10.4203 23.2036 10.4177C23.2438 10.4152 23.2829 10.4039 23.3183 10.3846C23.3537 10.3654 23.3845 10.3387 23.4085 10.3063C24.0545 9.4072 24.3598 8.30775 24.27 7.2043C24.1802 6.10086 23.7011 5.06524 22.9183 4.28237C22.1355 3.4995 21.1 3.02034 19.9965 2.93046C18.8931 2.84057 17.7936 3.1458 16.8944 3.79166C16.8621 3.81566 16.8354 3.84644 16.8161 3.88183C16.7969 3.91723 16.7856 3.95639 16.783 3.9966C16.7805 4.0368 16.7867 4.07708 16.8013 4.11463C16.8159 4.15217 16.8385 4.18608 16.8676 4.21399L22.9862 10.3332Z" fill="#396F78"/>
<path d="M16.2487 4.83348C16.2207 4.80443 16.1868 4.78181 16.1493 4.76721C16.1117 4.7526 16.0715 4.74636 16.0313 4.74891C15.9911 4.75146 15.9519 4.76275 15.9165 4.782C15.8811 4.80124 15.8503 4.82796 15.8263 4.86032C15.1804 5.75944 14.8751 6.85889 14.9648 7.96233C15.0546 9.06578 15.5337 10.1014 16.3165 10.8843C17.0993 11.6671 18.1349 12.1463 19.2383 12.2362C20.3418 12.3261 21.4412 12.0208 22.3404 11.375C22.3728 11.351 22.3995 11.3202 22.4187 11.2848C22.438 11.2494 22.4493 11.2102 22.4518 11.17C22.4544 11.1298 22.4481 11.0896 22.4335 11.052C22.4189 11.0145 22.3963 10.9806 22.3672 10.9526L16.2487 4.83348Z" fill="#396F78"/>
<path d="M7.72682 5.5189C8.21857 4.6929 9.44182 4.78273 9.80815 5.67173L12.67 12.6233C12.7457 12.8072 12.7731 13.0073 12.7497 13.2048C12.7263 13.4022 12.6528 13.5904 12.5362 13.7515C12.4196 13.9126 12.2638 14.0412 12.0835 14.1251C11.9033 14.209 11.7045 14.2455 11.5062 14.231L4.79907 13.7398C4.60071 13.7253 4.40937 13.6602 4.24321 13.5509C4.07706 13.4416 3.94161 13.2916 3.84972 13.1152C3.75784 12.9388 3.71259 12.7419 3.71825 12.5431C3.72391 12.3443 3.7803 12.1502 3.88207 11.9793L7.72624 5.51831L7.72682 5.5189Z" fill="#396F78"/>
</svg>
