<svg width="28" height="28" viewBox="0 0 28 28" fill="none" xmlns="http://www.w3.org/2000/svg">
<path d="M19.8333 8.16666H8.16659C7.85717 8.16666 7.56042 8.28958 7.34163 8.50837C7.12284 8.72716 6.99992 9.02391 6.99992 9.33333C6.99992 9.64275 7.12284 9.93949 7.34163 10.1583C7.56042 10.3771 7.85717 10.5 8.16659 10.5H19.8333C20.1427 10.5 20.4394 10.3771 20.6582 10.1583C20.877 9.93949 20.9999 9.64275 20.9999 9.33333C20.9999 9.02391 20.877 8.72716 20.6582 8.50837C20.4394 8.28958 20.1427 8.16666 19.8333 8.16666ZM19.8333 12.8333H8.16659C7.85717 12.8333 7.56042 12.9562 7.34163 13.175C7.12284 13.3938 6.99992 13.6906 6.99992 14C6.99992 14.3094 7.12284 14.6062 7.34163 14.825C7.56042 15.0437 7.85717 15.1667 8.16659 15.1667H19.8333C20.1427 15.1667 20.4394 15.0437 20.6582 14.825C20.877 14.6062 20.9999 14.3094 20.9999 14C20.9999 13.6906 20.877 13.3938 20.6582 13.175C20.4394 12.9562 20.1427 12.8333 19.8333 12.8333ZM22.1666 2.33333H5.83325C4.90499 2.33333 4.01476 2.70208 3.35838 3.35845C2.702 4.01483 2.33325 4.90507 2.33325 5.83333V17.5C2.33325 18.4283 2.702 19.3185 3.35838 19.9749C4.01476 20.6312 4.90499 21 5.83325 21H19.3549L23.6716 25.3283C23.7806 25.4365 23.9099 25.522 24.052 25.5801C24.1942 25.6381 24.3464 25.6675 24.4999 25.6667C24.653 25.6706 24.8048 25.6386 24.9433 25.5733C25.1563 25.4858 25.3387 25.3372 25.4674 25.1462C25.5961 24.9552 25.6654 24.7303 25.6666 24.5V5.83333C25.6666 4.90507 25.2978 4.01483 24.6415 3.35845C23.9851 2.70208 23.0948 2.33333 22.1666 2.33333ZM23.3333 21.6883L20.6616 19.005C20.5526 18.8969 20.4233 18.8113 20.2811 18.7533C20.139 18.6952 19.9868 18.6658 19.8333 18.6667H5.83325C5.52383 18.6667 5.22709 18.5437 5.00829 18.325C4.7895 18.1062 4.66659 17.8094 4.66659 17.5V5.83333C4.66659 5.52391 4.7895 5.22716 5.00829 5.00837C5.22709 4.78958 5.52383 4.66666 5.83325 4.66666H22.1666C22.476 4.66666 22.7728 4.78958 22.9915 5.00837C23.2103 5.22716 23.3333 5.52391 23.3333 5.83333V21.6883Z" fill="#396F78" fill-opacity="0.8"/>
</svg>
