<svg width="28" height="28" viewBox="0 0 28 28" fill="none" xmlns="http://www.w3.org/2000/svg">
<path d="M4.30769 0V20.4615C4.30769 21.0592 3.82846 21.5385 3.23077 21.5385C2.63308 21.5385 2.15385 21.0592 2.15385 20.4615V7.53846H3.23077V5.38462H0V20.4615C0 22.2331 1.45923 23.6923 3.23077 23.6923H14C13.7846 23.0462 13.6629 22.2923 13.6629 21.5385H6.26123C6.384 21.1982 6.46262 20.8417 6.46262 20.4615V2.15385H23.6934V14C24.4472 14.2154 25.2011 14.5385 25.8472 15.0769V0H4.30769ZM8.61539 4.30769V8.61539H21.5385V4.30769H8.61539ZM8.61539 10.7692V12.9231H14V10.7692H8.61539ZM16.1538 10.7692V12.9231H21.5385V10.7692H16.1538ZM8.61539 14V16.1538H14V14H8.61539ZM21.5385 15.0769C17.9588 15.0769 15.0769 17.9588 15.0769 21.5385C15.0769 25.1182 17.9588 28 21.5385 28V25.8462C19.0874 25.8462 17.2308 23.9895 17.2308 21.5385C17.2308 19.0874 19.0874 17.2308 21.5385 17.2308C23.9895 17.2308 25.8462 19.0874 25.8462 21.5385C25.8462 22.4732 25.5802 23.3369 25.1052 24.0294L23.6923 22.6154L23.1538 27.4615L28 26.9231L26.6538 25.5769C27.5488 24.4526 28 23.0214 28 21.5385C28 17.9588 25.1182 15.0769 21.5385 15.0769ZM8.61539 17.2308V19.3846H14V17.2308H8.61539Z" fill="#396F78" fill-opacity="0.8"/>
</svg>
